<svg xmlns="http://www.w3.org/2000/svg" width="606.124" height="601.46" viewBox="0 0 606.124 601.46"><defs><style>.a{fill:none;}.b{fill:#76be46;}.c{fill:#004d19;}.d{fill:#f59639;}.e{fill:#b86a1e;}.f{fill:#fbbc5a;}.g{fill:#e42129;}.h{fill:#8d0a0e;}.i{fill:#7b4302;}.j{fill:#ffd576;}.k{fill:#f06152;}.l{fill:#9d3d32;}.m{fill:#cb7258;}.n{fill:#7b4331;}.o{fill:#3f7426;}.p{fill:#b0d038;}.q{fill:#da3d34;}.r{fill:#b3654d;}.s{fill:#e98d6d;}.t{fill:#fcfcfc;}</style></defs><g transform="translate(-52.825 -25.653)"><g transform="translate(141.474 57.629)"><path class="a" d="M186.235,250.831a27.575,27.575,0,0,0-2.25,12.27,7.633,7.633,0,0,0,2.322,4.786Q186.225,259.258,186.235,250.831Z" transform="translate(-63.803 75.736)"/><path class="a" d="M300.693,242.966q-.322,8.338-.723,16.825c4.4-1.99,8.867-4,13.334-6l.5-.224A52.156,52.156,0,0,0,300.693,242.966Z" transform="translate(4.9 71.078)"/><path class="a" d="M364.725,242.293a2.714,2.714,0,0,0,.016,1.178,2.622,2.622,0,0,0,.537,1.207c3.146-1.03,30.581-14.24,32.852-15.843l0,0a1.109,1.109,0,0,0,.4-1.35,2.549,2.549,0,0,0-1.522-1.8C393.846,226.225,369.292,239.51,364.725,242.293Z" transform="translate(43.22 60.843)"/><path class="a" d="M361.692,235.557a2.093,2.093,0,0,0,0,1.207,2.586,2.586,0,0,0,.565,1.193c3.119-1.105,30.226-14.974,32.458-16.631a1.11,1.11,0,0,0,.371-1.361,2.55,2.55,0,0,0-1.565-1.764C390.386,218.818,366.3,232.607,361.692,235.557Z" transform="translate(41.408 56.41)"/><g transform="translate(305.73 255.867)"><path class="b" d="M353.034,244.876a1.593,1.593,0,1,1-1.118-2.984c.654-.244,1.3-.511,1.946-.78-10.335-11.089-25.069-20.5-37.343-27.178-.336.7-.678,1.388-1.064,2.064a1.592,1.592,0,1,1-2.764-1.58c.369-.65.7-1.315,1.022-1.986-4.646-2.452-8.837-4.479-12.143-6,.029,16.763-.352,35.267-1.06,54.543a54.766,54.766,0,0,1,16.042,12.856q4.3-1.923,8.24-3.677c3.611-5.234,9.071-9.538,16.173-12.536a43.241,43.241,0,0,1,20.413-3.42l1.524-.64a53.7,53.7,0,0,0-6.809-9.934C355.083,244.064,354.064,244.489,353.034,244.876ZM315.8,246.954a19.4,19.4,0,0,1-6.694,5.022,1.577,1.577,0,0,1-.656.142,1.592,1.592,0,0,1-.658-3.043,16.208,16.208,0,0,0,5.59-4.192,1.592,1.592,0,0,1,2.417,2.072Zm7.584-12.654a.808.808,0,0,1-.088,0,1.592,1.592,0,0,1-.086-3.181l9.213-.5a1.554,1.554,0,0,1,1.677,1.5,1.591,1.591,0,0,1-1.5,1.677Zm11.248,19.75a1.57,1.57,0,0,1-.591.113,1.593,1.593,0,0,1-1.479-1l-2.048-5.118a1.592,1.592,0,1,1,2.957-1.181l2.048,5.116A1.589,1.589,0,0,1,334.632,254.05Z" transform="translate(-300.51 -206.429)"/></g><path class="c" d="M300.561,240.684q-.067,1.813-.137,3.634a52.155,52.155,0,0,1,13.111,10.6l3.068-1.374A54.765,54.765,0,0,0,300.561,240.684Z" transform="translate(5.169 69.726)"/><path class="c" d="M310.564,212.262c12.275,6.681,27.008,16.09,37.343,27.178,1.04-.433,2.07-.895,3.083-1.39-10.772-11.931-26.32-21.867-39.139-28.8C311.476,210.275,311.038,211.276,310.564,212.262Z" transform="translate(11.175 51.11)"/><path class="c" d="M301.18,207.745c3.306,1.524,7.5,3.551,12.143,6a29.937,29.937,0,0,0,1.245-3.027c-5.261-2.755-9.915-4.949-13.4-6.514Q301.176,205.962,301.18,207.745Z" transform="translate(5.61 48.122)"/><path class="c" d="M335.418,230.315a53.7,53.7,0,0,1,6.809,9.934q1.54-.647,2.946-1.228a56.329,56.329,0,0,0-6.761-10.125C337.426,229.394,336.429,229.87,335.418,230.315Z" transform="translate(25.895 62.745)"/><g transform="translate(134.049 364.587)"><path class="b" d="M351.454,306.529c-1.374,10.585-5.681,18.827-12.455,23.833-7.711,5.7-17.38,6.969-26.731,8.2-13.453,1.769-26.158,3.442-31.516,18.169-7.652,21.034-24.651,35.836-44.362,38.628a48.849,48.849,0,0,1-6.856.486c-12.963,0-25.551-5.253-36.847-15.23.952,6.262,2.006,12.265,3.17,17.954l.42-.344a1.592,1.592,0,1,1,2.011,2.47l-1.693,1.38c3.6,16.531,8.187,30.154,14,39.342a28.984,28.984,0,0,1,1.959-2.142,1.592,1.592,0,0,1,2.228,2.275,25.661,25.661,0,0,0-2.32,2.6,34.769,34.769,0,0,0,3.608,4.21c20.723,20.314,46.505,30.371,70.72,27.605,19.056-2.178,35.7-12.136,47.335-28.178-1.236-1.021-2.489-2.019-3.769-2.971a1.591,1.591,0,0,1,1.9-2.556c1.252.928,2.478,1.9,3.689,2.9.279-.42.572-.826.845-1.255,2.7-4.229,5.673-16.977,8.627-35.858-1.032-.514-2.054-1.048-3.052-1.618a1.592,1.592,0,1,1,1.58-2.764c.65.371,1.314.718,1.979,1.064,2.587-17.174,5.143-38.966,7.461-63.783-.365.107-.723.226-1.089.325a1.642,1.642,0,0,1-.417.054,1.593,1.593,0,0,1-.412-3.13c.75-.2,1.494-.432,2.236-.666,1.223-13.359,2.374-27.554,3.427-42.343-.339-.373-.689-.737-1-1.131a1.6,1.6,0,0,1,.26-2.239,1.564,1.564,0,0,1,1-.32q.568-8.173,1.094-16.561l.014-.229q-5.14,2.431-9.5,4.476A68.918,68.918,0,0,1,351.454,306.529ZM224.161,430.521a1.594,1.594,0,0,1-2.185-.546l-4.6-7.678a1.593,1.593,0,0,1,2.731-1.64l4.6,7.679A1.592,1.592,0,0,1,224.161,430.521Zm24.492-17.08a1.6,1.6,0,0,1,2.175.588l4.328,7.544a1.592,1.592,0,1,1-2.761,1.586l-4.329-7.544A1.593,1.593,0,0,1,248.653,413.441Zm11.955,46.139a1.595,1.595,0,0,1-2.207.452,36.091,36.091,0,0,0-8.909-4.255,1.593,1.593,0,1,1,.966-3.035,39.324,39.324,0,0,1,9.7,4.63A1.593,1.593,0,0,1,260.608,459.58Zm24.215-55.121,3.161-7.64a1.591,1.591,0,1,1,2.941,1.215l-3.159,7.64a1.592,1.592,0,0,1-2.943-1.215Zm8.627,46.914a1.589,1.589,0,0,1-2.243-.185l-6.1-7.2a1.592,1.592,0,1,1,2.428-2.059l6.1,7.2A1.589,1.589,0,0,1,293.45,451.374Zm16.924-26.285a1.593,1.593,0,0,1-2.992-1.1,32.57,32.57,0,0,0,1.955-9.769A1.611,1.611,0,0,1,311,412.7a1.6,1.6,0,0,1,1.521,1.661A35.785,35.785,0,0,1,310.374,425.089Zm10.057-67.254a1.592,1.592,0,0,1-2.237.248,59.022,59.022,0,0,1-7.515-7.194,1.592,1.592,0,1,1,2.4-2.1,56.208,56.208,0,0,0,7.108,6.8A1.59,1.59,0,0,1,320.43,357.835Zm14.654,30.941a1.59,1.59,0,0,1-2.25-.086l-7.4-7.971a1.593,1.593,0,1,1,2.336-2.167l7.4,7.974A1.593,1.593,0,0,1,335.084,388.775Z" transform="translate(-192.688 -274.709)"/></g><g transform="translate(125.793 193.5)"><path class="b" d="M364.826,202.451c-1.4.621-2.8,1.259-4.165,1.933a1.574,1.574,0,0,1-.7.164,1.592,1.592,0,0,1-.7-3.021c1.78-.877,3.6-1.7,5.431-2.489a262.749,262.749,0,0,0-2.908-31.778c-23.376,4.525-47.268,8.281-68.953,11.294-40.63,5.643-74.55,9.109-102.387,10.931-.134,2.455-.314,5.914-.521,10.251l2.925,1.3a1.592,1.592,0,0,1-.646,3.048,1.576,1.576,0,0,1-.645-.137l-1.793-.795c-1.092,23.846-2.7,68.676-2.145,117.184a57.408,57.408,0,0,0,7.773,4.584q3.5-2.255,7.339-4.337c19.058-10.3,36.609-6.444,50.714-3.345,11.034,2.423,19.01,4.176,23.136-1.868,4.205-6.164,15.617-20.561,30.71-21.144,9.671-.39,19.064,4.963,27.8,15.862q2.6,3.239,4.879,6.678c7.24-3.331,15.169-6.952,23.387-10.675C365.345,264.648,365.819,228.938,364.826,202.451ZM194.157,225.432a18.372,18.372,0,0,0,4.275-5.621,1.592,1.592,0,1,1,2.86,1.4,21.525,21.525,0,0,1-5.024,6.6,1.592,1.592,0,1,1-2.111-2.382Zm7.563,73.188-4.081,6.664a1.592,1.592,0,0,1-2.715-1.664l4.081-6.664a1.592,1.592,0,0,1,2.715,1.664Zm154.811-54.411-7.168,6.656a1.593,1.593,0,0,1-2.166-2.336l7.165-6.652a1.593,1.593,0,0,1,2.169,2.333Zm-10.617-65.558a1.589,1.589,0,0,1,2.237-.24l6.788,5.463a1.592,1.592,0,1,1-2,2.481l-6.788-5.465A1.59,1.59,0,0,1,345.914,178.651ZM213.253,272.79a1.589,1.589,0,0,1-2.25.08l-7.151-6.668a1.593,1.593,0,0,1,2.173-2.329l7.148,6.668A1.59,1.59,0,0,1,213.253,272.79Zm30.382,32.022a1.593,1.593,0,0,1-2.232.291,24.823,24.823,0,0,1-5.539-5.928,1.593,1.593,0,0,1,2.653-1.764,21.558,21.558,0,0,0,4.828,5.167A1.594,1.594,0,0,1,243.635,304.812Zm37.842-9.113a19.693,19.693,0,0,1-3.137,6.555,1.592,1.592,0,0,1-2.572-1.877,16.491,16.491,0,0,0,2.632-5.5,1.592,1.592,0,0,1,3.076.822ZM322.7,279.79l-2.129,7.654a1.6,1.6,0,0,1-1.533,1.166,1.66,1.66,0,0,1-.428-.057,1.594,1.594,0,0,1-1.108-1.962l2.132-7.656a1.592,1.592,0,1,1,3.067.855Zm12.76-36.964c-4.618,14.182-19.01,20.47-30.939,21.625-1.519.146-3.022.218-4.5.218-.6,0-1.193-.019-1.783-.041-2.646,8.727-9.149,20.242-25.045,20.242-7.31,0-13.182-2.253-17.451-6.7a27.187,27.187,0,0,1-6.641-13.564,46.064,46.064,0,0,1-6.535-.159c-11.929-1.154-26.322-7.442-30.939-21.625-3.443-10.577-3.165-19,.828-25.043,4.976-7.531,13.821-8.393,14.193-8.425a1.592,1.592,0,0,1,.895,2.987c-3.659,1.971-3.9,6.313-2.571,9.515,1.527,3.689,5.66,7.291,12.28,5.3a63.451,63.451,0,0,0,9.807-4.387c7.178-3.669,14.6-7.455,20.722-5.219a11.5,11.5,0,0,1,5.764,4.936,11.485,11.485,0,0,1,5.762-4.936c6.125-2.239,13.545,1.552,20.722,5.219a63.452,63.452,0,0,0,9.807,4.387c6.614,1.989,10.753-1.611,12.28-5.3,1.326-3.2,1.088-7.544-2.572-9.515a1.592,1.592,0,0,1,.895-2.987c.373.032,9.218.893,14.193,8.425C338.623,223.822,338.9,232.248,335.458,242.826Zm17.907,40.689a1.591,1.591,0,0,1-.938-.307,31.766,31.766,0,0,1-8.07-8.638,1.593,1.593,0,0,1,2.694-1.7,28.493,28.493,0,0,0,7.254,7.765,1.592,1.592,0,0,1-.941,2.879Z" transform="translate(-187.503 -167.26)"/></g><path class="c" d="M188.98,220.772a1.592,1.592,0,0,1,.775,1.419c-.637,20.177-.994,40.166-1.057,59.415a1.589,1.589,0,0,1-.35.99,22.634,22.634,0,0,0-2.955,4.9q-.007,8.414.072,17.056a22.382,22.382,0,0,0,3.4,2.95c-.551-48.508,1.052-93.338,2.145-117.184l-3.159-1.4c-.406,8.336-.885,19.375-1.312,32.336.277-.164.567-.339.823-.489A1.6,1.6,0,0,1,188.98,220.772Z" transform="translate(-62.96 39.068)"/><path class="c" d="M327.472,384.765c-11.638,16.042-28.279,26-47.335,28.178-24.215,2.766-50-7.291-70.72-27.605a34.766,34.766,0,0,1-3.608-4.21,26.027,26.027,0,0,0-1.882,2.785,35.971,35.971,0,0,0,3.261,3.7c19.063,18.685,42.33,28.966,64.977,28.966a73.458,73.458,0,0,0,8.334-.471c19.884-2.274,37.243-12.617,49.4-29.272Q328.7,385.779,327.472,384.765Z" transform="translate(-51.982 152.906)"/><path class="c" d="M297.236,275.282l-.014.229q-.525,8.386-1.094,16.561a1.567,1.567,0,0,1,1.234.58,18.592,18.592,0,0,0,1.744,1.885c.49-6.893.952-13.838,1.382-20.8Q298.823,274.532,297.236,275.282Z" transform="translate(2.625 89.305)"/><path class="c" d="M297.238,287.571c-1.052,14.789-2.2,28.984-3.427,42.343,1.087-.342,2.167-.709,3.231-1.116,1.135-12.421,2.194-25.357,3.153-38.518A22.168,22.168,0,0,1,297.238,287.571Z" transform="translate(1.253 97.496)"/><path class="c" d="M296.387,316.7c-2.318,24.817-4.874,46.609-7.461,63.783.96.5,1.931.979,2.92,1.423,2.759-18.139,5.417-41.052,7.767-66.246Q298.013,316.223,296.387,316.7Z" transform="translate(-1.641 114.13)"/><path class="c" d="M292.131,358.452c-2.954,18.881-5.931,31.629-8.627,35.858-.274.428-.567.834-.845,1.255q1.237,1.015,2.444,2.07c.36-.538.734-1.06,1.084-1.611,2.89-4.532,5.93-17.6,8.867-36.216C294.069,359.38,293.093,358.931,292.131,358.452Z" transform="translate(-5.352 139.476)"/><path class="c" d="M210.181,394.043c-5.815-9.187-10.405-22.811-14-39.342l-2.783,2.267c3.79,16.728,8.627,30.508,14.762,39.784A29.24,29.24,0,0,1,210.181,394.043Z" transform="translate(-58.22 137.254)"/><path class="c" d="M197.285,360.525c-1.164-5.689-2.218-11.692-3.17-17.954q-1.944-1.717-3.836-3.622c1.218,8.406,2.611,16.4,4.2,23.863Z" transform="translate(-60.066 127.925)"/><path class="c" d="M190.191,191.469c.207-4.337.387-7.8.521-10.251-1.081.07-2.148.137-3.21.2-.126,2.215-.283,5.124-.46,8.649Z" transform="translate(-61.983 34.507)"/><path class="c" d="M299.415,189.858c.994,26.487.519,62.2-1.47,103.639q1.605-.728,3.224-1.46.4-8.476.723-16.825.069-1.82.137-3.634c.708-19.276,1.089-37.78,1.06-54.543q0-1.782-.011-3.538c-.048-8.9-.215-17.276-.516-24.975Q300.979,189.167,299.415,189.858Z" transform="translate(3.701 38.833)"/><path class="c" d="M296.955,167.489a262.742,262.742,0,0,1,2.908,31.778q1.562-.671,3.145-1.294a256.767,256.767,0,0,0-2.914-31.1C299.047,167.079,298,167.286,296.955,167.489Z" transform="translate(3.115 26.012)"/><path class="d" d="M419.127,116.081c-10.862-10.939-41.048-15.163-79.1-15.163-16.685,0-34.886.815-53.632,2.229,2.465,5.192,4.791,10.366,6.976,15.443a1.593,1.593,0,0,1,.127.191c2.275,5.329,4.39,10.552,6.342,15.585,4.286,10.977,7.773,21.019,10.372,29.2,66.165-15.989,106.971-33.181,113.184-35.88A13.8,13.8,0,0,0,419.127,116.081Z" transform="translate(-3.137 -13.052)"/><path class="d" d="M224.509,134.3c0-.017.011-.033.013-.051.32-5.489.761-11.19,1.363-17.01C174.259,128,121.356,143.1,111.9,160.973a10.5,10.5,0,0,0-.3,9.9c2.412,1.75,24.814,15.8,112.758,11.02A440.644,440.644,0,0,1,224.509,134.3Z" transform="translate(-107.314 -3.388)"/><path class="c" d="M374.37,118.556v0Z" transform="translate(48.964 -2.607)"/><path class="e" d="M110.662,171.785a1.6,1.6,0,0,1,1.892.18c.016.013.092.076.231.177a10.5,10.5,0,0,1,.3-9.9c9.456-17.878,62.359-32.976,113.985-43.739q.174-1.693.368-3.4c-53.554,11.106-107.126,26.659-117.168,45.65a13.676,13.676,0,0,0-.287,12.924c-.01-.037-.025-.081-.035-.115A1.6,1.6,0,0,1,110.662,171.785Z" transform="translate(-108.5 -4.652)"/><path class="e" d="M286.946,104.348c18.746-1.414,36.947-2.229,53.632-2.229,38.047,0,68.233,4.224,79.1,15.163a13.8,13.8,0,0,1,4.274,11.608c.5-.22.8-.349.839-.369a1.593,1.593,0,0,1,2.234,1.664,17.067,17.067,0,0,0-5.087-15.146C403.626,96.6,339.494,97.1,285.475,101.281Q286.218,102.814,286.946,104.348Z" transform="translate(-3.685 -14.252)"/><path class="f" d="M224.37,174.579c37.033-3.374,77.113-11.241,125.962-24.72-14.354-33.433-35.012-70.875-60.5-89.929-14.676-10.971-29.549-14.563-44.214-10.67-45.574,12.093-58.345,76.669-61.4,124.943C198.2,176.467,212.96,175.62,224.37,174.579Z" transform="translate(-63.654 -44.548)"/><path class="c" d="M305.158,151.141l.057-.014c-2.6-8.183-6.086-18.225-10.372-29.2C299.1,132.907,302.567,142.956,305.158,151.141Z" transform="translate(1.864 -0.61)"/><path class="e" d="M183.474,159.58c-.6,5.82-1.043,11.522-1.363,17.01a1.586,1.586,0,0,1,.591-1.107,1.561,1.561,0,0,1,1.266-.317c.5.089,1,.142,1.5.223,3.052-48.274,15.824-112.85,61.4-124.943,14.665-3.893,29.538-.3,44.214,10.67,25.489,19.055,46.147,56.5,60.5,89.929.6-.166,1.189-.323,1.795-.49a1.58,1.58,0,0,1,1.764.718c-2.185-5.078-4.511-10.251-6.976-15.443q-.728-1.533-1.471-3.067c-14.09-29.075-32.418-58.285-53.7-74.2-15.5-11.582-31.285-15.346-46.941-11.2-31.836,8.45-52.938,42.861-61.023,99.518-.446,3.116-.834,6.218-1.183,9.3Q183.651,157.888,183.474,159.58Z" transform="translate(-64.903 -45.735)"/><path class="g" d="M225,138.668c-11.542,1.051-26.47,1.941-40.733-.336a438.357,438.357,0,0,0-.053,45.465c24.075-1.411,52.92-4.207,87.442-9,36.025-5,68.326-11.4,96.251-18.053-3.583-11.31-8.912-26.444-15.932-43.013C302.725,127.336,262.342,135.266,225,138.668Z" transform="translate(-63.992 -5.465)"/><path class="h" d="M355.541,112.5a1.869,1.869,0,0,0-1.892-.909c-.605.167-1.193.325-1.794.49-48.849,13.478-88.929,21.346-125.962,24.72-11.41,1.041-26.169,1.888-40.15-.376-.5-.081-1-.134-1.5-.223a1.561,1.561,0,0,0-1.266.317,1.586,1.586,0,0,0-.591,1.107c0,.018-.013.033-.013.051a440.644,440.644,0,0,0-.153,47.6c1.052-.057,2.1-.115,3.178-.177a438.357,438.357,0,0,1,.053-45.465c14.264,2.277,29.191,1.387,40.733.336,37.343-3.4,77.726-11.332,126.975-24.941,7.02,16.569,12.35,31.7,15.932,43.013q1.562-.37,3.108-.744c-2.591-8.186-6.055-18.235-10.315-29.216C359.931,123.048,357.816,117.825,355.541,112.5Z" transform="translate(-65.176 -6.766)"/><path class="f" d="M134.957,208.69c10.186,7.03,64.187,13.814,201.961-5.323,63.439-8.813,145.8-23.954,177.905-46.039l.223-.151c4.4-3.025,8.855-23.293,10.967-37.14C510.944,126.4,432.492,157.8,314.343,174.21c-143.079,19.879-189.345,6-202.028-.244C116.355,183.464,126.808,203.068,134.957,208.69Z" transform="translate(-106.241 -1.728)"/><g transform="translate(1.395 114.127)"><path class="e" d="M236.711,219.009c27.838-1.822,61.757-5.288,102.387-10.931,21.685-3.013,45.577-6.769,68.953-11.294,1.048-.2,2.092-.409,3.138-.615,44.225-8.711,86.149-20.195,107.18-34.659l.22-.153c7.406-5.084,12.2-38.286,12.725-42.122l0-.008,0-.008v0a1.593,1.593,0,0,0-2.234-1.664c-.043.021-.334.15-.839.369-6.213,2.7-47.02,19.891-113.184,35.88l-.057.014q-1.545.373-3.108.744c-27.925,6.651-60.226,13.049-96.251,18.053-34.522,4.8-63.367,7.594-87.442,9-1.073.062-2.126.119-3.178.177-87.944,4.785-110.345-9.27-112.758-11.02-.139-.1-.215-.164-.231-.177a1.593,1.593,0,0,0-2.6,1.6c.01.033.025.078.035.115,1.651,5.9,14.558,33.065,25.424,40.563,6.488,4.476,24.755,7.759,57.255,7.759,11.851,0,25.605-.441,41.357-1.416C234.563,219.146,235.63,219.079,236.711,219.009ZM114.056,175.522c12.682,6.246,58.949,20.123,202.028.244,118.149-16.415,196.6-47.806,211.671-54.172-2.113,13.846-6.565,34.114-10.968,37.14l-.223.151C484.457,180.97,402.1,196.11,338.659,204.924c-137.774,19.137-191.775,12.353-201.961,5.323C128.548,204.624,118.1,185.02,114.056,175.522Z" transform="translate(-109.376 -117.411)"/></g><path class="d" d="M358.9,219.187a3.5,3.5,0,0,0-1.618,1.508c.032.559,1.164,2.443,2.705,4.543.772-.47,1.661-1,2.65-1.583a28.409,28.409,0,0,0-2.28-5A5.762,5.762,0,0,0,358.9,219.187Z" transform="translate(38.847 56.678)"/><path class="e" d="M361.166,226.394c-1.541-2.1-2.673-3.984-2.705-4.543a3.5,3.5,0,0,1,1.618-1.508,5.763,5.763,0,0,1,1.457-.535,28.407,28.407,0,0,1,2.28,5c.863-.506,1.8-1.049,2.791-1.623a26.464,26.464,0,0,0-2.586-5.372,3.433,3.433,0,0,0-3.546-1c-2.041.439-4.571,2.189-5.1,4.245-.424,1.642,1.145,4.414,3.1,7.073C358.988,227.752,359.916,227.156,361.166,226.394Z" transform="translate(37.673 55.522)"/><path class="d" d="M367.162,214.653a3.519,3.519,0,0,0-1.622,1.509,15.865,15.865,0,0,0,2.527,4.3q1.364-.759,2.756-1.529a27.283,27.283,0,0,0-2.205-4.809A5.724,5.724,0,0,0,367.162,214.653Z" transform="translate(43.735 53.994)"/><path class="e" d="M369.24,221.615a15.865,15.865,0,0,1-2.527-4.3,3.519,3.519,0,0,1,1.622-1.509,5.726,5.726,0,0,1,1.455-.532A27.284,27.284,0,0,1,372,220.087c.936-.518,1.879-1.033,2.818-1.548a25.806,25.806,0,0,0-2.538-5.253,3.422,3.422,0,0,0-3.544-1c-2.041.439-4.573,2.186-5.1,4.245-.4,1.557,1,4.132,2.8,6.662C367.346,222.673,368.287,222.146,369.24,221.615Z" transform="translate(42.562 52.837)"/><path class="d" d="M375.48,210.433a3.507,3.507,0,0,0-1.618,1.508,14.343,14.343,0,0,0,2.275,3.949q1.49-.788,2.879-1.508a25.264,25.264,0,0,0-2.078-4.484A5.762,5.762,0,0,0,375.48,210.433Z" transform="translate(48.664 51.493)"/><path class="e" d="M377.311,217.046a14.343,14.343,0,0,1-2.275-3.949,3.507,3.507,0,0,1,1.618-1.508,5.76,5.76,0,0,1,1.459-.535,25.265,25.265,0,0,1,2.078,4.484q1.5-.781,2.852-1.46a24.589,24.589,0,0,0-2.444-5.016,3.428,3.428,0,0,0-3.548-1c-2.041.439-4.573,2.189-5.1,4.245-.377,1.474.85,3.86,2.514,6.256C375.432,218.043,376.384,217.535,377.311,217.046Z" transform="translate(47.491 50.337)"/><path class="d" d="M390.864,239.71a3.525,3.525,0,0,0,1.736-1.374,14.9,14.9,0,0,0-2.033-4.253c-.849.457-1.8.957-2.88,1.508a24.767,24.767,0,0,0,1.683,4.533A5.676,5.676,0,0,0,390.864,239.71Z" transform="translate(56.851 65.817)"/><path class="e" d="M391.642,234.666a14.9,14.9,0,0,1,2.033,4.253,3.525,3.525,0,0,1-1.736,1.374,5.675,5.675,0,0,1-1.5.414,24.762,24.762,0,0,1-1.683-4.533q-1.318.671-2.892,1.447a23.1,23.1,0,0,0,1.939,4.874,3.228,3.228,0,0,0,2.785,1.33,5.356,5.356,0,0,0,.667-.045c2.072-.277,4.734-1.817,5.425-3.825.522-1.521-.661-4.194-2.259-6.858C393.659,233.555,392.741,234.076,391.642,234.666Z" transform="translate(55.776 65.234)"/><path class="d" d="M382.232,243.394a3.526,3.526,0,0,0,1.736-1.373,13.106,13.106,0,0,0-1.759-3.785c-1.009.473-2.025.946-3.04,1.412a22.625,22.625,0,0,0,1.568,4.162A5.771,5.771,0,0,0,382.232,243.394Z" transform="translate(51.806 68.277)"/><path class="e" d="M383.742,238.54l-.447.209a13.107,13.107,0,0,1,1.759,3.785,3.526,3.526,0,0,1-1.736,1.373,5.77,5.77,0,0,1-1.5.417,22.623,22.623,0,0,1-1.568-4.162q-1.471.678-2.922,1.336a22.036,22.036,0,0,0,1.855,4.614,3.229,3.229,0,0,0,2.785,1.328,4.83,4.83,0,0,0,.667-.046c2.072-.275,4.734-1.817,5.425-3.825.479-1.393-.47-3.756-1.861-6.194C385.415,237.75,384.6,238.133,383.742,238.54Z" transform="translate(50.72 67.766)"/><path class="d" d="M373.556,246.776a3.507,3.507,0,0,0,1.736-1.374,11.215,11.215,0,0,0-1.5-3.342q-1.72.743-3.18,1.353a20.355,20.355,0,0,0,1.449,3.777A5.675,5.675,0,0,0,373.556,246.776Z" transform="translate(46.739 70.541)"/><path class="e" d="M374.894,242.538a11.215,11.215,0,0,1,1.5,3.342,3.507,3.507,0,0,1-1.736,1.374,5.675,5.675,0,0,1-1.5.414,20.356,20.356,0,0,1-1.449-3.777c-1.135.474-2.143.885-2.963,1.2a20.866,20.866,0,0,0,1.779,4.363,3.223,3.223,0,0,0,2.785,1.328,5.1,5.1,0,0,0,.667-.045c2.07-.277,4.732-1.815,5.423-3.825.444-1.291-.35-3.42-1.575-5.664C376.813,241.7,375.827,242.134,374.894,242.538Z" transform="translate(45.637 70.063)"/><g transform="translate(392.384 264.564)"><path class="f" d="M362.768,260.654c3.45.138,8.783.178,11.3-.521,4.368-1.213,35.571-15.446,39.358-18.711-.931-4.336-10.284-26.79-13.264-29.532-4.727,1.646-37.627,19.946-39.647,21.695-.935.909-3.667,6.028-5.578,9.894,2.839,3.251,8.008,11.819,7.914,16.552A5.16,5.16,0,0,1,362.768,260.654Zm40.34-29.976a5.54,5.54,0,0,1,4.286,4.215,4.3,4.3,0,0,1-1.659,4.712v0h0c-2.068,1.46-31.689,15.926-34.24,16.413a2.911,2.911,0,0,1-.522.049c-1.366,0-2.616-1.025-3.275-2.743-.758-1.97-.608-4.52,1.14-5.584.287-.175,30.019-17.072,34.122-17.072A1.074,1.074,0,0,1,403.107,230.678Zm-39.225,5.965v0c.285-.182,29.769-17.891,33.734-17.891.041,0,.08,0,.116,0a5.545,5.545,0,0,1,4.388,4.111,4.308,4.308,0,0,1-1.548,4.753c-2.029,1.508-31.293,16.685-33.832,17.235a2.841,2.841,0,0,1-.586.062,3.766,3.766,0,0,1-3.275-2.659C362.072,240.307,362.159,237.749,363.882,236.643Z" transform="translate(-354.932 -211.891)"/></g><path class="e" d="M417.789,243.062c.018-2.567-10.367-28.75-14.549-32.449a2.6,2.6,0,0,0-2.054-.763,41.733,41.733,0,0,0-6.992,3.108q-1.345.678-2.852,1.46-1.388.719-2.879,1.508c-.927.489-1.879,1-2.847,1.514-1.5.806-3.035,1.637-4.578,2.479-.939.514-1.882,1.03-2.818,1.548s-1.847,1.022-2.756,1.529c-.952.53-1.893,1.057-2.807,1.573-1.666.938-3.251,1.841-4.715,2.685-1,.573-1.928,1.116-2.791,1.623-.989.583-1.877,1.113-2.65,1.583-1.25.763-2.178,1.358-2.7,1.737a4.057,4.057,0,0,0-.382.3c-1.629,1.583-5.1,8.482-6.377,11.079,1.533-.3,1.839-.038,2.124.21a9.825,9.825,0,0,1,.876.908c1.911-3.866,4.643-8.985,5.578-9.894,2.021-1.748,34.92-20.048,39.647-21.695,2.979,2.742,12.332,25.2,13.264,29.532-3.786,3.264-34.99,17.5-39.358,18.711-2.513.7-7.845.659-11.3.521a4.029,4.029,0,0,1-1.366,2.713,6.557,6.557,0,0,1-.589.379c1,.059,3.291.178,5.869.178a35.407,35.407,0,0,0,8.234-.721c.416-.116,1.11-.365,2.021-.718.82-.318,1.828-.729,2.963-1.2q1.457-.609,3.18-1.353c.933-.4,1.919-.836,2.936-1.285,1.47-.65,3.009-1.339,4.586-2.054q1.45-.657,2.922-1.336c1.014-.467,2.03-.939,3.04-1.412l.447-.209c.861-.406,1.673-.79,2.462-1.166,1.745-.831,3.313-1.591,4.723-2.285q1.572-.774,2.892-1.447c1.078-.551,2.032-1.051,2.88-1.508,1.1-.591,2.017-1.111,2.785-1.568C417.773,244.546,417.786,243.795,417.789,243.062Z" transform="translate(36.336 51.456)"/><g transform="translate(399.839 271.424)"><path class="e" d="M363.381,242.365a2.842,2.842,0,0,0,.586-.062c2.54-.549,31.8-15.727,33.832-17.235a4.308,4.308,0,0,0,1.548-4.753,5.545,5.545,0,0,0-4.388-4.111c-.037,0-.075,0-.116,0-3.965,0-33.449,17.709-33.734,17.891v0c-1.723,1.107-1.81,3.664-1,5.614A3.766,3.766,0,0,0,363.381,242.365Zm32.891-21.215a1.11,1.11,0,0,1-.371,1.361c-2.232,1.658-29.339,15.526-32.458,16.631a2.586,2.586,0,0,1-.565-1.193,2.092,2.092,0,0,1,0-1.207c4.606-2.95,28.694-16.739,31.833-17.357A2.55,2.55,0,0,1,396.273,221.149Z" transform="translate(-359.614 -216.199)"/></g><g transform="translate(404.714 283.342)"><path class="e" d="M363.109,246.34c.659,1.718,1.909,2.743,3.275,2.743a2.912,2.912,0,0,0,.522-.049c2.551-.487,32.172-14.953,34.24-16.413h0v0a4.3,4.3,0,0,0,1.659-4.712,5.54,5.54,0,0,0-4.286-4.215,1.074,1.074,0,0,0-.15-.01c-4.1,0-33.836,16.9-34.122,17.072C362.5,241.82,362.351,244.371,363.109,246.34Zm36.606-17.673a1.109,1.109,0,0,1-.4,1.35l0,0c-2.271,1.6-29.705,14.813-32.852,15.843a2.622,2.622,0,0,1-.537-1.207,2.714,2.714,0,0,1-.016-1.178c4.567-2.783,29.121-16.068,32.286-16.609A2.549,2.549,0,0,1,399.715,228.668Z" transform="translate(-362.676 -223.684)"/></g><path class="f" d="M315.008,249c-13.646.525-24.268,13.991-28.2,19.757-5.337,7.821-15.122,5.672-26.449,3.185-6.973-1.532-14.819-3.255-23.242-3.255a51.94,51.94,0,0,0-25.274,6.291c-1.888,1.021-3.691,2.086-5.449,3.172,3.67,1.693,7.718,3.355,11.924,4.982a36.16,36.16,0,0,0,3.245-2.285,1.593,1.593,0,0,1,1.986,2.492c-.517.411-1.053.8-1.589,1.181,3.834,1.441,7.737,2.852,11.545,4.227,3.992,1.443,7.926,2.864,11.684,4.278l2.248-1.72a1.592,1.592,0,1,1,1.936,2.529l-.691.529a124.965,124.965,0,0,1,16.451,7.466c.116-.129.212-.263.331-.392a28.872,28.872,0,0,1,23.1-9.23c7.638.417,15,3.7,18.322,8.17,1.724,2.325,7.2,10.711,5.167,21.043-1.559,7.918-7.078,14.791-16.4,20.422a23.5,23.5,0,0,1-12.24,3.578,21.927,21.927,0,0,1-3.858-.352,34.516,34.516,0,0,1-3.049,8.219c-3.2,5.961-10.542,14.493-26.347,14.493a57.394,57.394,0,0,1-13.493-1.79v1.266a1.592,1.592,0,0,1-3.185,0v-2.052l-1.1-.279c-10.455-2.65-25.148-6.375-39.875-13.294-.068.747-.161,1.49-.287,2.232a1.594,1.594,0,0,1-1.57,1.326,1.71,1.71,0,0,1-.267-.022,1.593,1.593,0,0,1-1.3-1.836,26.655,26.655,0,0,0,.326-3.215,115.464,115.464,0,0,1-14.735-8.756c2.392,12.045,8.4,24.739,18.053,37.964,15.247,20.894,34.4,30.887,53.892,28.113,18.542-2.626,34.565-16.636,41.816-36.563,6.017-16.542,20.29-18.421,34.092-20.239,8.95-1.178,18.2-2.395,25.252-7.6,6.062-4.477,9.929-11.975,11.19-21.682a65.389,65.389,0,0,0-2.2-25.575c-27.22,12.713-30.93,13.733-31.833,13.733a1.2,1.2,0,0,1-.213-.019c-3.981-.678-12.08-14.555-13.214-20.254-.417-2.1-.045-3.525,1.107-4.25,1.989-1.25,14.732-7.3,32.019-15.276-1.392-2.06-2.861-4.081-4.428-6.036C332.131,253.608,323.657,248.643,315.008,249Z" transform="translate(-69.31 74.643)"/><path class="e" d="M304.353,247.005c-15.093.583-26.5,14.98-30.71,21.144-4.126,6.044-12.1,4.291-23.136,1.868-14.1-3.1-31.656-6.953-50.714,3.345q-3.845,2.078-7.339,4.337,1.636.822,3.4,1.637c1.758-1.086,3.56-2.151,5.449-3.172a51.941,51.941,0,0,1,25.274-6.291c8.423,0,16.27,1.723,23.242,3.255,11.327,2.487,21.112,4.637,26.449-3.185,3.934-5.766,14.556-19.231,28.2-19.757,8.649-.36,17.123,4.6,25.2,14.674,1.567,1.955,3.036,3.976,4.428,6.036l2.936-1.352q-2.288-3.43-4.879-6.678C323.417,251.968,314.024,246.615,304.353,247.005Z" transform="translate(-58.777 73.459)"/><path class="e" d="M204.736,378.952c11.3,9.977,23.884,15.23,36.847,15.23a48.849,48.849,0,0,0,6.856-.486c19.711-2.793,36.71-17.594,44.362-38.628,5.358-14.727,18.063-16.4,31.516-18.169,9.351-1.232,19.02-2.5,26.731-8.2,6.773-5.006,11.081-13.248,12.455-23.833a68.918,68.918,0,0,0-2.455-27.344c-1,.468-1.962.919-2.9,1.358a65.39,65.39,0,0,1,2.2,25.575c-1.261,9.706-5.129,17.2-11.19,21.682-7.047,5.21-16.3,6.426-25.252,7.6-13.8,1.818-28.075,3.7-34.092,20.239-7.251,19.927-23.274,33.938-41.816,36.563-19.491,2.774-38.644-7.219-53.892-28.113-9.652-13.225-15.661-25.919-18.053-37.964-1.248-.881-2.486-1.786-3.7-2.732,1.973,13.5,8.364,27.747,19.185,42.576a95.332,95.332,0,0,0,9.37,11.022Q202.792,377.233,204.736,378.952Z" transform="translate(-70.687 91.543)"/><path class="d" d="M259.335,321.873c8.523-5.146,13.544-11.308,14.923-18.309,1.78-9.05-3.072-16.47-4.6-18.529-2.745-3.694-9.3-6.527-15.94-6.89-.518-.027-1.033-.041-1.545-.041a25.577,25.577,0,0,0-18.965,8.179,26.21,26.21,0,0,1,2.807,2.169c.341.307.661.674.989,1.019l0,0a19.907,19.907,0,0,1,15.934-6.366c5.278.287,10.383,2.578,12.7,5.7,1.193,1.6,4.973,7.4,3.565,14.552-1.078,5.471-4.868,10.2-11.264,14.068a16.3,16.3,0,0,1-8.5,2.485,15.2,15.2,0,0,1-3.377-.4,46.092,46.092,0,0,1-.549,5.165A19.7,19.7,0,0,0,259.335,321.873Z" transform="translate(-34.64 91.888)"/><path class="e" d="M234.229,287.466a25.577,25.577,0,0,1,18.965-8.179c.511,0,1.027.014,1.544.041,6.641.363,13.2,3.2,15.94,6.89,1.529,2.059,6.38,9.479,4.6,18.529-1.379,7-6.4,13.163-14.923,18.309a19.7,19.7,0,0,1-13.818,2.793q-.258,1.6-.635,3.161a21.928,21.928,0,0,0,3.858.352A23.5,23.5,0,0,0,262,325.784c9.324-5.632,14.843-12.5,16.4-20.422,2.033-10.332-3.442-18.719-5.167-21.043-3.32-4.469-10.684-7.753-18.322-8.17a28.872,28.872,0,0,0-23.1,9.23c-.119.129-.215.263-.331.392C232.462,286.333,233.39,286.9,234.229,287.466Z" transform="translate(-35.661 90.704)"/><path class="i" d="M254.119,311.659c5.6-3.379,8.888-7.4,9.784-11.955,1.156-5.871-2-10.7-3-12.038-1.436-1.936-5.278-4.145-10.318-4.419a16.861,16.861,0,0,0-13.424,5.352c-.1.108-.183.221-.28.331,4.2,5.933,6.893,15.036,7.059,24.307A12.524,12.524,0,0,0,254.119,311.659Z" transform="translate(-32.463 94.921)"/><path class="e" d="M256.53,315.572c6.4-3.864,10.186-8.6,11.264-14.068,1.408-7.154-2.372-12.947-3.565-14.552-2.318-3.121-7.423-5.412-12.7-5.7a19.907,19.907,0,0,0-15.934,6.366l0,0a22.035,22.035,0,0,1,2.057,2.494c.1-.11.18-.223.28-.331a16.861,16.861,0,0,1,13.424-5.352c5.04.274,8.882,2.482,10.318,4.419,1,1.339,4.153,6.167,3,12.037-.9,4.554-4.188,8.576-9.784,11.955a12.524,12.524,0,0,1-10.176,1.58c.019,1.076,0,2.154-.053,3.229a15.2,15.2,0,0,0,3.377.4A16.3,16.3,0,0,0,256.53,315.572Z" transform="translate(-33.228 93.736)"/><path class="j" d="M351.823,245.967a40.355,40.355,0,0,1,4.14,8.272c6.039-3.049,10-5.141,10.912-5.817a1.326,1.326,0,0,0,.244-.906c.073-3.775-5.011-12.157-7.3-14.6-2.006.4-8.417,2.9-17.48,6.684C346.446,240.836,349.792,242.969,351.823,245.967Z" transform="translate(29.996 65.125)"/><path class="j" d="M262.5,287.31c-.057.651.315,2.944,2.7,7.592,3.108,6.062,6.644,10.491,7.918,11.149,3.634-.992,37.428-16.759,71.047-32.818-.6-2.033-1-3.735-1.228-4.853v0a36.422,36.422,0,0,1-.545-3.7l-1.326-.107a1.593,1.593,0,0,1,.255-3.175l.906.073a29.312,29.312,0,0,1,2.443-12.079C307.8,265.816,267.516,284.375,262.5,287.31Z" transform="translate(-17.292 74.887)"/><path class="e" d="M372.359,249.37a5.159,5.159,0,0,0,.078-.623c.094-4.732-5.075-13.3-7.914-16.552a9.826,9.826,0,0,0-.876-.908c-.285-.248-.591-.511-2.124-.21-2.236.439-7.089,2.083-18.317,6.73q-1.407.583-2.946,1.228l-1.524.64a29.448,29.448,0,0,1,5.742,1.089c9.063-3.786,15.474-6.283,17.48-6.684,2.285,2.446,7.369,10.827,7.3,14.6a1.326,1.326,0,0,1-.244.906c-.914.675-4.872,2.767-10.912,5.817q.537,1.426,1.016,2.941c5.689-2.861,9.765-4.974,11.289-5.885a6.56,6.56,0,0,0,.589-.379A4.029,4.029,0,0,0,372.359,249.37Z" transform="translate(27.861 63.957)"/><path class="e" d="M345.347,274.979c-33.619,16.06-67.413,31.826-71.047,32.818-1.274-.658-4.81-5.087-7.918-11.149-2.38-4.648-2.753-6.941-2.7-7.592,5.011-2.935,45.29-21.494,82.166-37.912a28.752,28.752,0,0,1,2.634-4.7q-3.948,1.755-8.24,3.677l-3.068,1.374-.5.224c-4.466,2-8.933,4.014-13.334,6q-1.619.731-3.224,1.46c-8.218,3.723-16.147,7.344-23.387,10.675l-2.936,1.352c-17.287,7.974-30.03,14.026-32.019,15.276-1.151.725-1.524,2.154-1.107,4.25,1.134,5.7,9.233,19.575,13.214,20.254a1.2,1.2,0,0,0,.213.019c.9,0,4.613-1.021,31.833-13.733.941-.439,1.9-.89,2.9-1.358q4.366-2.047,9.5-4.476,1.586-.75,3.251-1.541c7.028-3.336,15.074-7.178,24.363-11.644l.385-.185C345.951,276.973,345.631,275.946,345.347,274.979Z" transform="translate(-18.473 73.141)"/><g transform="translate(71.234 264.076)"><path class="b" d="M203.192,365.314a1.6,1.6,0,0,1,1.81,1.339,29.642,29.642,0,0,1,.3,3.6c14.913,7.227,29.966,11.058,40.561,13.744l.312.08v-1.826a1.592,1.592,0,1,1,3.184,0v2.634c17.932,4.581,30.737.8,37.036-10.945,7.484-13.95,3.356-36.068-5.145-43.72-4.224-3.8-12.942-7.64-22.843-11.424l-3.493,2.673a1.592,1.592,0,0,1-1.935-2.529l1.917-1.468c-3.215-1.2-6.506-2.387-9.778-3.57-4.711-1.7-9.366-3.385-13.808-5.076a39.715,39.715,0,0,1-3.7,1.895,1.593,1.593,0,1,1-1.288-2.914c.357-.158.7-.338,1.054-.506-15.886-6.28-28.127-12.778-28.373-20.852-.275-9.084,2.79-15.19,5.557-18.814.065-18.182.392-37.02.967-56.044a140.034,140.034,0,0,0-16.173,11.687l1.852,3.247a1.592,1.592,0,0,1-2.767,1.576l-1.544-2.708c-12.256,10.775-25.481,26.408-31,46.645,1.049.153,2.1.328,3.134.543a1.593,1.593,0,0,1-.323,3.153,1.657,1.657,0,0,1-.326-.033c-1.075-.225-2.161-.4-3.25-.553a76.045,76.045,0,0,0-1.175,27.283A87.491,87.491,0,0,0,162,329.486l.93-1.331a1.592,1.592,0,0,1,2.61,1.823l-1.893,2.708c9.308,16.994,23.593,28.221,38.366,35.912-.046-.492-.089-.984-.162-1.473A1.594,1.594,0,0,1,203.192,365.314Zm73.988,15.569a1.589,1.589,0,0,1-2.118.767,25.955,25.955,0,0,1-6.535-4.375,1.593,1.593,0,1,1,2.153-2.349,22.717,22.717,0,0,0,5.732,3.841A1.592,1.592,0,0,1,277.18,380.883Zm-12.452-45.66a1.59,1.59,0,0,1,2.25-.073l5.46,5.119a1.592,1.592,0,0,1-2.177,2.323l-5.46-5.119A1.591,1.591,0,0,1,264.728,335.223Zm-18.865,23.7,6.527-.895a1.591,1.591,0,0,1,.433,3.153l-6.528.9a1.7,1.7,0,0,1-.218.014,1.592,1.592,0,0,1-.213-3.17ZM229.433,331.5a1.593,1.593,0,0,1,3.148.494l-1.126,7.149a1.593,1.593,0,0,1-1.573,1.344,1.906,1.906,0,0,1-.248-.017,1.594,1.594,0,0,1-1.326-1.822ZM177.251,303.86A1.592,1.592,0,0,1,175,303.9a18.765,18.765,0,0,1-4.457-6.73,1.592,1.592,0,0,1,2.973-1.142,15.557,15.557,0,0,0,3.694,5.579A1.592,1.592,0,0,1,177.251,303.86Zm1.4-46.139a50.407,50.407,0,0,1-7.051,3.527,1.593,1.593,0,1,1-1.2-2.952,46.784,46.784,0,0,0,6.6-3.3,1.593,1.593,0,0,1,1.646,2.728Zm39.959,98.029a1.6,1.6,0,0,1,1.81,1.341l1.229,8.207a1.593,1.593,0,0,1-1.337,1.812,1.765,1.765,0,0,1-.239.017,1.594,1.594,0,0,1-1.573-1.357l-1.231-8.21A1.594,1.594,0,0,1,218.61,355.751Zm-28.7-107.61a1.6,1.6,0,0,1,1.919-1.178,59.3,59.3,0,0,1,10.194,3.444,1.592,1.592,0,0,1-.646,3.048,1.57,1.57,0,0,1-.643-.137,56.292,56.292,0,0,0-9.644-3.258A1.593,1.593,0,0,1,189.914,248.141Zm-3.481,32.8,5.809-4.086a1.591,1.591,0,0,1,1.831,2.6l-5.807,4.086a1.592,1.592,0,0,1-1.833-2.6Zm6.926,62.883a1.566,1.566,0,0,1-.553.1,1.591,1.591,0,0,1-1.492-1.041,28.454,28.454,0,0,1-1.763-9.041,1.593,1.593,0,1,1,3.185-.1,25.269,25.269,0,0,0,1.564,8.035A1.591,1.591,0,0,1,193.36,343.826Zm6.7-26.263a1.592,1.592,0,0,1-2.25-.105,17.044,17.044,0,0,1-4.145-8.272,1.593,1.593,0,0,1,3.129-.6,14.058,14.058,0,0,0,3.369,6.727A1.593,1.593,0,0,1,200.055,317.563Z" transform="translate(-153.238 -211.584)"/></g><path class="c" d="M184.256,318.47a115.457,115.457,0,0,0,14.735,8.756,26.446,26.446,0,0,0-.084-3.673c-14.773-7.691-29.057-18.918-38.366-35.912l-2.052,2.936a85.228,85.228,0,0,0,22.064,25.161C181.77,316.684,183.007,317.59,184.256,318.47Z" transform="translate(-78.894 97.537)"/><path class="c" d="M226.844,325.055l-.312-.08c-10.595-2.686-25.648-6.517-40.561-13.744a29.49,29.49,0,0,1-.1,3.538c14.727,6.918,29.42,10.644,39.875,13.294l1.1.279Z" transform="translate(-62.675 111.509)"/><path class="c" d="M163.192,305.976a87.49,87.49,0,0,1-8.052-27.062,76.044,76.044,0,0,1,1.175-27.283q-1.6-.227-3.22-.35a79.391,79.391,0,0,0-1.113,28.06,90.708,90.708,0,0,0,9.1,29.657Z" transform="translate(-83.192 76.002)"/><path class="c" d="M176.514,224.93a140.034,140.034,0,0,1,16.173-11.687c-.575,19.024-.9,37.862-.967,56.044-2.767,3.624-5.832,9.73-5.557,18.814.245,8.074,12.486,14.572,28.373,20.852a36.231,36.231,0,0,0,3.637-2.009c-4.207-1.627-8.254-3.29-11.924-4.982q-1.765-.814-3.4-1.637a57.407,57.407,0,0,1-7.773-4.584,22.379,22.379,0,0,1-3.4-2.95A7.632,7.632,0,0,1,189.348,288a27.575,27.575,0,0,1,2.25-12.27,22.636,22.636,0,0,1,2.955-4.9,1.589,1.589,0,0,0,.35-.99c.064-19.249.42-39.238,1.057-59.415A1.591,1.591,0,0,0,193.567,209c-.256.15-.546.325-.823.489a141.805,141.805,0,0,0-17.83,12.633Z" transform="translate(-69.166 50.833)"/><path class="c" d="M156.095,267.947c5.519-20.238,18.744-35.87,31-46.645l-1.61-2.821c-12.848,11.189-26.881,27.643-32.589,49.1Q154.5,267.715,156.095,267.947Z" transform="translate(-82.206 56.576)"/><path class="c" d="M202.269,273.45c4.442,1.691,9.1,3.374,13.808,5.076,3.272,1.183,6.563,2.374,9.778,3.57l2.987-2.287c-3.758-1.414-7.692-2.836-11.684-4.278-3.809-1.376-7.711-2.786-11.545-4.228Q204,272.462,202.269,273.45Z" transform="translate(-52.964 87.862)"/><path class="c" d="M222.653,279.758c9.9,3.785,18.618,7.622,22.843,11.425,8.5,7.652,12.628,29.771,5.145,43.72-6.3,11.741-19.1,15.526-37.036,10.945v3.266A57.394,57.394,0,0,0,227.1,350.9c15.8,0,23.15-8.531,26.347-14.493a34.517,34.517,0,0,0,3.049-8.219q.38-1.562.635-3.161a46.084,46.084,0,0,0,.549-5.165c.051-1.075.072-2.153.053-3.229-.166-9.272-2.86-18.375-7.058-24.307a22.038,22.038,0,0,0-2.057-2.494c-.328-.345-.648-.712-.989-1.019a26.214,26.214,0,0,0-2.807-2.169c-.839-.568-1.767-1.134-2.745-1.7a124.96,124.96,0,0,0-16.451-7.466Z" transform="translate(-46.251 91.523)"/><g transform="translate(328.087 306.659)"><path class="b" d="M317.654,268.536a1.592,1.592,0,0,1-.126,3.18c-.043,0-.084,0-.129,0l-2.616-.21c.111.909.248,1.834.446,2.791v0c.963,4.684,4.85,19.856,15.76,27.876a14.2,14.2,0,0,0,1.478-2.586,1.593,1.593,0,0,1,2.92,1.272,17.488,17.488,0,0,1-1.718,3.027c6.159,3.471,13.27,4.057,21.164,1.693a23.547,23.547,0,0,0,4.637-1.973,18.532,18.532,0,0,1-1.963-3.872,1.592,1.592,0,0,1,2.992-1.089,15.431,15.431,0,0,0,1.667,3.223,26.123,26.123,0,0,0,8.579-12.393c2.269-6.377,2.861-13.838,2.259-21.047l-.93.164a1.63,1.63,0,0,1-.277.024,1.592,1.592,0,0,1-.274-3.161l1.138-.2c-1.089-8.184-3.67-15.77-7.016-20.706-2.763-4.079-8.77-6.218-15.835-6.218a41.617,41.617,0,0,0-15.924,3.329c-4.926,2.081-19.6,9.725-19.333,26.629Zm11.308-18.8a1.591,1.591,0,0,1,2.21.435l3.482,5.184a1.592,1.592,0,0,1-2.643,1.775l-3.482-5.184A1.593,1.593,0,0,1,328.963,249.738Zm19.195,20.472a1.592,1.592,0,1,1,3.162-.373l1.029,8.7a1.6,1.6,0,0,1-1.395,1.769,1.548,1.548,0,0,1-.189.011,1.594,1.594,0,0,1-1.58-1.406Zm-15.947,17.413a1.591,1.591,0,1,1-2.82-1.476l3.186-6.082a1.593,1.593,0,1,1,2.822,1.481Zm25.795-44.188a1.6,1.6,0,0,1,.731,2.13,36.446,36.446,0,0,1-3.38,5.581,1.591,1.591,0,0,1-2.565-1.884,33.576,33.576,0,0,0,3.084-5.1A1.594,1.594,0,0,1,358.006,243.434Z" transform="translate(-314.551 -238.328)"/></g><path class="c" d="M332.1,289.927c-10.91-8.02-14.8-23.191-15.76-27.876h0c-.2-.957-.334-1.882-.446-2.791l-3.218-.26a36.423,36.423,0,0,0,.545,3.7v0c.231,1.118.631,2.82,1.228,4.853.283.966.6,1.993.987,3.1,2.376,6.831,6.783,15.835,14.533,21.661A14.281,14.281,0,0,0,332.1,289.927Z" transform="translate(12.426 80.574)"/><path class="c" d="M373.6,252.215a40.355,40.355,0,0,0-4.14-8.272c-2.032-3-5.377-5.132-9.48-6.369a29.449,29.449,0,0,0-5.742-1.089,43.241,43.241,0,0,0-20.413,3.42c-7.1,3-12.561,7.3-16.173,12.536a28.751,28.751,0,0,0-2.634,4.7,29.313,29.313,0,0,0-2.443,12.079l3.154.253c-.269-16.9,14.407-24.548,19.333-26.629a41.617,41.617,0,0,1,15.924-3.329c7.065,0,13.072,2.138,15.835,6.218,3.345,4.936,5.926,12.522,7.016,20.706l3.173-.557a64.789,64.789,0,0,0-2.4-10.721Q374.134,253.641,373.6,252.215Z" transform="translate(12.364 67.149)"/><path class="c" d="M353.148,279.323a23.544,23.544,0,0,1-4.637,1.973c-7.894,2.365-15.005,1.779-21.164-1.693a17.6,17.6,0,0,1-2.121,2.479,27.1,27.1,0,0,0,14.071,3.842,35.247,35.247,0,0,0,10.128-1.578,26.3,26.3,0,0,0,5.719-2.489A19.05,19.05,0,0,1,353.148,279.323Z" transform="translate(19.859 92.611)"/><path class="c" d="M355.294,257.438c.6,7.208.01,14.67-2.259,21.047a26.122,26.122,0,0,1-8.579,12.393,15.78,15.78,0,0,0,1.992,2.465,29.521,29.521,0,0,0,9.589-13.791,54.38,54.38,0,0,0,2.447-22.674Z" transform="translate(31.247 79.318)"/><path class="k" d="M249.084,249.732c13.679,0,19.454-9.592,21.89-17.3-9.238-1.052-17.063-5.051-21.54-11.216-4.428,6.1-12.119,10.079-21.225,11.186a23.858,23.858,0,0,0,5.732,11.632C237.587,247.813,242.681,249.732,249.084,249.732Z" transform="translate(-37.601 58.193)"/><path class="l" d="M272.171,228.266c-2.436,7.713-8.211,17.3-21.89,17.3-6.4,0-11.5-1.919-15.142-5.7a23.858,23.858,0,0,1-5.732-11.631c-1.054.129-2.13.209-3.218.26a27.188,27.188,0,0,0,6.641,13.565c4.269,4.442,10.141,6.7,17.451,6.7,15.9,0,22.4-11.515,25.045-20.242C274.257,228.47,273.206,228.384,272.171,228.266Z" transform="translate(-38.798 62.354)"/><path class="m" d="M322.724,202.2a15.564,15.564,0,0,0-6.844-5.614,11.884,11.884,0,0,1-.092,9.127c-2.2,5.3-8.039,9.557-16.136,7.13a65.7,65.7,0,0,1-10.342-4.6c-6.57-3.355-13.351-6.826-18.18-5.065-2.272.831-4.033,2.807-5.388,6.038a1.591,1.591,0,0,1-2.935,0c-1.355-3.231-3.116-5.207-5.388-6.038-4.831-1.766-11.614,1.708-18.18,5.065a65.694,65.694,0,0,1-10.342,4.6c-8.1,2.427-13.94-1.831-16.136-7.13a11.884,11.884,0,0,1-.092-9.127,15.584,15.584,0,0,0-6.845,5.614c-3.412,5.189-3.559,12.682-.436,22.273,4.141,12.721,17.29,18.383,28.218,19.44,13.084,1.264,24.572-3.382,29.277-11.843a1.6,1.6,0,0,1,2.785,0c4.705,8.461,16.206,13.111,29.277,11.843,10.928-1.057,24.077-6.719,28.218-19.44C326.284,214.882,326.138,207.388,322.724,202.2Z" transform="translate(-52.443 43.608)"/><path class="n" d="M312.352,193.7a1.592,1.592,0,0,0-.895,2.987c3.659,1.971,3.9,6.313,2.572,9.515-1.527,3.688-5.665,7.288-12.28,5.3a63.45,63.45,0,0,1-9.807-4.387c-7.176-3.667-14.6-7.458-20.722-5.219a11.486,11.486,0,0,0-5.762,4.936,11.5,11.5,0,0,0-5.764-4.936c-6.119-2.236-13.544,1.551-20.722,5.219a63.45,63.45,0,0,1-9.807,4.387c-6.619,1.992-10.753-1.61-12.28-5.3-1.326-3.2-1.088-7.544,2.572-9.515a1.592,1.592,0,0,0-.895-2.987c-.373.032-9.218.893-14.193,8.425-3.993,6.039-4.27,14.466-.828,25.043,4.618,14.182,19.01,20.47,30.939,21.625a46.062,46.062,0,0,0,6.535.159c1.088-.051,2.164-.131,3.218-.26,9.106-1.107,16.8-5.09,21.225-11.186,4.477,6.165,12.3,10.163,21.54,11.216,1.035.118,2.086.2,3.154.247.591.022,1.185.041,1.783.041,1.476,0,2.979-.072,4.5-.218,11.929-1.154,26.322-7.442,30.939-21.625,3.442-10.577,3.165-19-.828-25.043C321.57,194.595,312.725,193.733,312.352,193.7Zm-16.225,51.922c-13.071,1.267-24.572-3.382-29.277-11.843a1.6,1.6,0,0,0-2.785,0c-4.705,8.461-16.193,13.107-29.277,11.843-10.928-1.057-24.077-6.719-28.218-19.44-3.122-9.59-2.976-17.083.436-22.273a15.584,15.584,0,0,1,6.845-5.614,11.884,11.884,0,0,0,.092,9.127c2.2,5.3,8.036,9.557,16.136,7.13a65.695,65.695,0,0,0,10.342-4.6c6.566-3.357,13.35-6.831,18.18-5.065,2.272.831,4.033,2.807,5.388,6.038a1.591,1.591,0,0,0,2.935,0c1.355-3.231,3.116-5.207,5.388-6.038,4.829-1.761,11.611,1.71,18.18,5.065a65.7,65.7,0,0,0,10.342,4.6c8.1,2.427,13.94-1.831,16.136-7.13a11.884,11.884,0,0,0,.092-9.127,15.564,15.564,0,0,1,6.844,5.614c3.414,5.189,3.56,12.682.438,22.273C320.2,238.9,307.055,244.566,296.127,245.624Z" transform="translate(-53.626 41.897)"/><path class="c" d="M176.045,223.931l1.545,2.708a1.592,1.592,0,0,0,2.767-1.576l-1.852-3.247-1.6-2.807-2.376-4.165a1.592,1.592,0,1,0-2.767,1.576l2.673,4.689Z" transform="translate(-71.157 53.946)"/><path class="c" d="M177.467,236.915a56.3,56.3,0,0,1,9.644,3.258,1.57,1.57,0,0,0,.643.137,1.592,1.592,0,0,0,.646-3.048,59.3,59.3,0,0,0-10.194-3.444,1.592,1.592,0,0,0-.74,3.1Z" transform="translate(-68.378 65.636)"/><path class="c" d="M170.989,238.932a46.788,46.788,0,0,1-6.6,3.3,1.593,1.593,0,0,0,1.2,2.952,50.41,50.41,0,0,0,7.051-3.527,1.593,1.593,0,0,0-1.646-2.728Z" transform="translate(-75.989 68.553)"/><path class="c" d="M157.363,252.87c1.089.153,2.175.328,3.25.553a1.658,1.658,0,0,0,.326.033,1.593,1.593,0,0,0,.323-3.153c-1.038-.215-2.084-.39-3.134-.543s-2.13-.277-3.2-.368c-1.285-.111-2.572-.189-3.856-.207h-.021a1.592,1.592,0,0,0-.019,3.185c1.035.013,2.073.072,3.11.15Q155.758,252.642,157.363,252.87Z" transform="translate(-84.24 74.762)"/><path class="c" d="M167.118,265a1.592,1.592,0,0,0-2.973,1.142,18.765,18.765,0,0,0,4.457,6.73,1.592,1.592,0,0,0,2.21-2.293A15.558,15.558,0,0,1,167.118,265Z" transform="translate(-75.606 83.523)"/><path class="c" d="M175.255,259.666a1.576,1.576,0,0,0,.916-.29l5.807-4.086a1.591,1.591,0,0,0-1.831-2.6l-5.809,4.086a1.592,1.592,0,0,0,.917,2.893Z" transform="translate(-69.907 76.662)"/><path class="c" d="M185.134,279.712a14.058,14.058,0,0,1-3.369-6.727,1.593,1.593,0,0,0-3.129.6,17.044,17.044,0,0,0,4.145,8.272,1.592,1.592,0,1,0,2.353-2.145Z" transform="translate(-66.978 88.093)"/><path class="c" d="M162.247,289.58l1.893-2.708a1.592,1.592,0,1,0-2.61-1.823l-.93,1.331-2.111,3.022-2.6,3.712a1.591,1.591,0,1,0,2.61,1.822l1.691-2.419Z" transform="translate(-80.601 95.598)"/><path class="c" d="M179.23,288.881a1.593,1.593,0,1,0-3.185.1,28.454,28.454,0,0,0,1.763,9.041,1.591,1.591,0,0,0,1.492,1.041,1.566,1.566,0,0,0,.553-.1,1.591,1.591,0,0,0,.941-2.044A25.269,25.269,0,0,1,179.23,288.881Z" transform="translate(-68.496 97.357)"/><path class="c" d="M198.675,276.027a1.6,1.6,0,0,0,2.1.814,39.7,39.7,0,0,0,3.7-1.895q1.724-.991,3.344-2.146c.537-.384,1.072-.771,1.589-1.181a1.593,1.593,0,0,0-1.986-2.492,37.387,37.387,0,0,1-6.882,4.294c-.352.169-.7.349-1.054.506A1.6,1.6,0,0,0,198.675,276.027Z" transform="translate(-55.173 86.366)"/><path class="c" d="M201.717,296.363a1.906,1.906,0,0,0,.248.017,1.593,1.593,0,0,0,1.573-1.344l1.126-7.149a1.593,1.593,0,0,0-3.148-.494l-1.126,7.148A1.594,1.594,0,0,0,201.717,296.363Z" transform="translate(-54.088 96.594)"/><path class="c" d="M218.027,279.694l-1.917,1.468a1.592,1.592,0,1,0,1.935,2.529l3.493-2.673,2.97-2.272.691-.529a1.592,1.592,0,1,0-1.936-2.528l-2.248,1.72Z" transform="translate(-45.136 90.264)"/><path class="c" d="M228.951,296.791a1.592,1.592,0,1,0,2.177-2.323l-5.46-5.119a1.592,1.592,0,0,0-2.177,2.323Z" transform="translate(-40.693 98.293)"/><path class="c" d="M212.136,307.628a1.708,1.708,0,0,0,.218-.014l6.528-.9a1.591,1.591,0,0,0-.433-3.153l-6.527.895a1.592,1.592,0,0,0,.213,3.17Z" transform="translate(-48.063 106.957)"/><path class="c" d="M196.262,313.508a1.76,1.76,0,0,0,.239-.017,1.593,1.593,0,0,0,1.337-1.812l-1.229-8.207a1.593,1.593,0,0,0-3.151.47l1.231,8.21A1.594,1.594,0,0,0,196.262,313.508Z" transform="translate(-58.193 106.111)"/><path class="c" d="M185.032,320.147a1.71,1.71,0,0,0,.267.022,1.594,1.594,0,0,0,1.57-1.326c.126-.742.218-1.486.287-2.232a32.608,32.608,0,0,0-.2-7.133,1.592,1.592,0,1,0-3.15.473c.073.489.116.981.162,1.473a27.829,27.829,0,0,1-.242,6.888A1.593,1.593,0,0,0,185.032,320.147Z" transform="translate(-63.959 109.668)"/><path class="c" d="M214.789,321.992v-2.634a1.592,1.592,0,1,0-3.184,0v7.165a1.592,1.592,0,0,0,3.184,0v-4.532Z" transform="translate(-47.436 115.379)"/><path class="c" d="M233.721,318.165a22.718,22.718,0,0,1-5.732-3.841,1.593,1.593,0,1,0-2.153,2.349,25.955,25.955,0,0,0,6.535,4.375,1.592,1.592,0,1,0,1.35-2.884Z" transform="translate(-39.312 113.093)"/><path class="c" d="M309.261,213.558c-.32.67-.653,1.336-1.022,1.986a1.592,1.592,0,1,0,2.764,1.58c.385-.675.728-1.368,1.064-2.064.474-.986.912-1.987,1.287-3.011a33.184,33.184,0,0,0,1.524-5.654,1.593,1.593,0,1,0-3.138-.551,30.509,30.509,0,0,1-2.478,7.714Z" transform="translate(9.672 48.312)"/><path class="c" d="M326.216,223.128a1.554,1.554,0,0,0-1.677-1.5l-9.213.5a1.592,1.592,0,0,0,.086,3.181.808.808,0,0,0,.088,0l9.214-.5A1.591,1.591,0,0,0,326.216,223.128Z" transform="translate(13.105 58.432)"/><path class="c" d="M311.023,230.786a16.209,16.209,0,0,1-5.59,4.192,1.592,1.592,0,0,0,.658,3.043,1.577,1.577,0,0,0,.656-.142,19.4,19.4,0,0,0,6.694-5.022,1.592,1.592,0,0,0-2.417-2.072Z" transform="translate(7.581 63.535)"/><path class="c" d="M322.353,232.2a1.592,1.592,0,1,0-2.957,1.181l2.048,5.118a1.593,1.593,0,0,0,1.479,1,1.57,1.57,0,0,0,.591-.113,1.589,1.589,0,0,0,.887-2.07Z" transform="translate(16.338 64.106)"/><path class="c" d="M335.125,229.7c-.645.269-1.291.537-1.946.78a1.593,1.593,0,0,0,1.118,2.984c1.03-.387,2.049-.812,3.059-1.255s2.008-.92,2.993-1.419c1.323-.669,2.629-1.374,3.895-2.137a1.593,1.593,0,0,0-1.646-2.728c-1.422.858-2.89,1.651-4.39,2.384C337.2,228.806,336.165,229.267,335.125,229.7Z" transform="translate(23.957 60.85)"/><path class="c" d="M310.928,258.4a1.592,1.592,0,0,0,1.46,1.715l1.326.107,3.218.26,2.616.21c.045,0,.086,0,.129,0a1.592,1.592,0,0,0,.126-3.18l-3.1-.25-3.154-.253-.906-.073A1.586,1.586,0,0,0,310.928,258.4Z" transform="translate(11.387 79.352)"/><path class="c" d="M328.236,253.693a1.592,1.592,0,0,0,1.32-2.479l-3.482-5.184a1.592,1.592,0,1,0-2.643,1.775l3.482,5.184A1.591,1.591,0,0,0,328.236,253.693Z" transform="translate(18.635 72.474)"/><path class="c" d="M339.023,249.647a1.591,1.591,0,0,0,2.224-.341,36.449,36.449,0,0,0,3.38-5.581,1.593,1.593,0,0,0-2.861-1.4,33.579,33.579,0,0,1-3.084,5.1A1.589,1.589,0,0,0,339.023,249.647Z" transform="translate(27.645 70.17)"/><path class="c" d="M351.96,255.709l-1.138.2a1.592,1.592,0,0,0,.274,3.161,1.63,1.63,0,0,0,.277-.024l.93-.164,3.189-.56,4.087-.72a1.592,1.592,0,1,0-.553-3.135l-3.893.685Z" transform="translate(34.238 77.873)"/><path class="c" d="M338.268,269.12a1.549,1.549,0,0,0,.189-.011,1.6,1.6,0,0,0,1.395-1.769l-1.029-8.7a1.592,1.592,0,1,0-3.162.373l1.027,8.7A1.593,1.593,0,0,0,338.268,269.12Z" transform="translate(26.032 79.527)"/><path class="c" d="M329.276,264.186a1.6,1.6,0,0,0-2.151.67l-3.186,6.082a1.591,1.591,0,1,0,2.82,1.476l3.188-6.078A1.594,1.594,0,0,0,329.276,264.186Z" transform="translate(18.988 83.539)"/><path class="c" d="M328.585,281.454a17.485,17.485,0,0,0,1.718-3.027,1.593,1.593,0,0,0-2.92-1.272,14.589,14.589,0,0,1-3.61,4.963c-.032.027-.059.061-.091.088a1.591,1.591,0,1,0,2.089,2.4c.244-.212.462-.449.693-.674A17.6,17.6,0,0,0,328.585,281.454Z" transform="translate(18.62 90.76)"/><path class="c" d="M346.224,279.819a15.43,15.43,0,0,1-1.667-3.223,1.592,1.592,0,0,0-2.992,1.089,18.532,18.532,0,0,0,1.963,3.872,19.052,19.052,0,0,0,2,2.535,18.419,18.419,0,0,0,2.18,1.993,1.594,1.594,0,0,0,2.234-.288,1.6,1.6,0,0,0-.29-2.234,15.138,15.138,0,0,1-1.433-1.28A15.78,15.78,0,0,1,346.224,279.819Z" transform="translate(29.478 90.376)"/><path class="c" d="M192.033,192.159l1.793.795a1.576,1.576,0,0,0,.645.137,1.592,1.592,0,0,0,.646-3.048l-2.925-1.3-3.15-1.4-3.138-1.392a1.593,1.593,0,1,0-1.295,2.911l4.264,1.89Z" transform="translate(-63.983 37.231)"/><path class="c" d="M193.993,208.6a21.526,21.526,0,0,0,5.024-6.6,1.592,1.592,0,1,0-2.86-1.4,18.372,18.372,0,0,1-4.275,5.621,1.592,1.592,0,1,0,2.111,2.382Z" transform="translate(-59.434 45.455)"/><path class="c" d="M200.132,228.1a1.593,1.593,0,1,0-2.173,2.329l7.151,6.668a1.592,1.592,0,0,0,2.17-2.33Z" transform="translate(-55.816 62.017)"/><path class="c" d="M198.522,248.471a1.593,1.593,0,0,0-2.189.525l-4.081,6.664a1.592,1.592,0,0,0,2.715,1.664l4.081-6.664A1.591,1.591,0,0,0,198.522,248.471Z" transform="translate(-59.036 74.2)"/><path class="c" d="M220.626,249.265a1.593,1.593,0,0,0-2.653,1.764,24.823,24.823,0,0,0,5.539,5.928,1.593,1.593,0,0,0,1.941-2.525A21.558,21.558,0,0,1,220.626,249.265Z" transform="translate(-43.82 74.387)"/><path class="c" d="M273.259,236.723a1.589,1.589,0,0,0-1.96,1.107l-2.132,7.656a1.594,1.594,0,0,0,1.108,1.962,1.66,1.66,0,0,0,.428.057,1.6,1.6,0,0,0,1.533-1.166l2.129-7.654A1.593,1.593,0,0,0,273.259,236.723Z" transform="translate(-13.378 67.345)"/><path class="c" d="M296.053,241.629a28.494,28.494,0,0,1-7.254-7.765,1.593,1.593,0,0,0-2.694,1.7,31.765,31.765,0,0,0,8.07,8.638,1.592,1.592,0,1,0,1.879-2.572Z" transform="translate(-3.457 65.247)"/><path class="c" d="M297.4,214.363a1.591,1.591,0,0,0-2.25-.083l-7.165,6.652a1.593,1.593,0,0,0,2.166,2.336l7.168-6.656A1.592,1.592,0,0,0,297.4,214.363Z" transform="translate(-2.499 53.836)"/><path class="c" d="M301.133,188.36c-1.834.787-3.651,1.611-5.431,2.489a1.592,1.592,0,1,0,1.4,2.857c1.369-.674,2.763-1.312,4.165-1.933q1.564-.69,3.148-1.336c1.788-.726,3.591-1.417,5.406-2.048a1.592,1.592,0,1,0-1.046-3.008c-1.509.524-3.008,1.094-4.5,1.685Q302.7,187.689,301.133,188.36Z" transform="translate(1.844 36.918)"/><path class="c" d="M294.151,182.338a1.592,1.592,0,1,0,2-2.481l-6.788-5.463a1.592,1.592,0,0,0-2,2.479Z" transform="translate(-2.918 30.256)"/><path class="c" d="M247.632,246.721a1.6,1.6,0,0,0-1.949,1.127,16.491,16.491,0,0,1-2.632,5.5,1.592,1.592,0,0,0,2.572,1.877,19.692,19.692,0,0,0,3.137-6.555A1.593,1.593,0,0,0,247.632,246.721Z" transform="translate(-28.992 73.27)"/><path class="c" d="M269.334,321.44a1.592,1.592,0,1,0-2.4,2.1,59.02,59.02,0,0,0,7.515,7.194,1.592,1.592,0,0,0,1.99-2.486A56.206,56.206,0,0,1,269.334,321.44Z" transform="translate(-14.897 117.232)"/><path class="c" d="M251.46,361.483a1.591,1.591,0,0,0,2.079-.863l3.159-7.64a1.591,1.591,0,0,0-2.941-1.215L250.6,359.4A1.59,1.59,0,0,0,251.46,361.483Z" transform="translate(-24.413 134.933)"/><path class="c" d="M199.26,356.266l1.693-1.38a1.592,1.592,0,1,0-2.011-2.47l-.42.344-2.807,2.286-6.936,5.651a1.592,1.592,0,0,0,2.013,2.468l5.686-4.632Z" transform="translate(-61.302 135.689)"/><path class="c" d="M211.006,366.657a1.593,1.593,0,0,0-2.731,1.64l4.6,7.678a1.592,1.592,0,1,0,2.731-1.638Z" transform="translate(-49.541 143.878)"/><path class="c" d="M207,383.111a25.666,25.666,0,0,1,2.32-2.6,1.592,1.592,0,0,0-2.228-2.275,31.643,31.643,0,0,0-3.982,4.852c-.339.521-.667,1.048-.974,1.591a1.591,1.591,0,1,0,2.771,1.567c.067-.118.143-.229.212-.345A26.032,26.032,0,0,1,207,383.111Z" transform="translate(-53.169 150.923)"/><path class="c" d="M239.439,391.179a39.323,39.323,0,0,0-9.7-4.63,1.593,1.593,0,1,0-.966,3.035,36.092,36.092,0,0,1,8.909,4.255,1.593,1.593,0,0,0,1.755-2.659Z" transform="translate(-37.923 156.072)"/><path class="c" d="M233.257,372.433a1.592,1.592,0,0,0,1.379-2.385l-4.328-7.544a1.593,1.593,0,0,0-2.763,1.586l4.329,7.544A1.59,1.59,0,0,0,233.257,372.433Z" transform="translate(-38.119 141.403)"/><path class="c" d="M295.081,315.539c-.742.234-1.486.463-2.236.666a1.593,1.593,0,0,0,.412,3.13,1.642,1.642,0,0,0,.417-.054c.366-.1.724-.218,1.089-.325q1.626-.473,3.226-1.04a59.616,59.616,0,0,0,7.184-3.062,1.592,1.592,0,0,0-1.446-2.837,56.144,56.144,0,0,1-5.417,2.406C297.248,314.831,296.168,315.2,295.081,315.539Z" transform="translate(-0.017 111.871)"/><path class="c" d="M297.96,285.834a1.658,1.658,0,0,0-2.239-.26,1.6,1.6,0,0,0-.26,2.239c.312.393.662.758,1,1.131a23.063,23.063,0,0,0,6.281,4.834,1.592,1.592,0,0,0,1.446-2.837,19,19,0,0,1-4.487-3.221A18.581,18.581,0,0,1,297.96,285.834Z" transform="translate(2.027 96.124)"/><path class="c" d="M278.553,340.115a1.593,1.593,0,1,0-2.336,2.167l7.4,7.971a1.591,1.591,0,1,0,2.334-2.164Z" transform="translate(-9.419 128.314)"/><path class="c" d="M268.372,361.375a1.611,1.611,0,0,0-1.661,1.521,32.571,32.571,0,0,1-1.955,9.769,1.593,1.593,0,0,0,2.992,1.1,35.785,35.785,0,0,0,2.145-10.724A1.6,1.6,0,0,0,268.372,361.375Z" transform="translate(-16.013 141.207)"/><path class="c" d="M253.3,379.94A1.592,1.592,0,0,0,250.871,382l6.1,7.2a1.592,1.592,0,1,0,2.428-2.059Z" transform="translate(-24.404 151.869)"/><path class="c" d="M290.549,356.843c-.666-.346-1.33-.693-1.979-1.064a1.592,1.592,0,1,0-1.58,2.764c1,.57,2.021,1.1,3.052,1.618.962.479,1.938.928,2.923,1.355,1.64.71,3.307,1.36,5,1.92a1.621,1.621,0,0,0,.5.081,1.592,1.592,0,0,0,.5-3.1,57.545,57.545,0,0,1-5.5-2.148C292.48,357.822,291.509,357.343,290.549,356.843Z" transform="translate(-3.263 137.767)"/><path class="c" d="M284.976,382.954c-1.212-.994-2.438-1.968-3.689-2.9a1.591,1.591,0,1,0-1.9,2.556c1.28.952,2.533,1.951,3.769,2.971q1.232,1.015,2.428,2.07c1.392,1.229,2.758,2.489,4.071,3.794a1.592,1.592,0,1,0,2.245-2.258c-1.444-1.435-2.947-2.822-4.484-4.167Q286.214,383.968,284.976,382.954Z" transform="translate(-7.67 152.087)"/><path class="o" d="M211.2,327.842a128.282,128.282,0,0,1-18.443-8.955,25.231,25.231,0,0,0,1.543,7.751,1.591,1.591,0,0,1-.941,2.044,1.566,1.566,0,0,1-.553.1,1.591,1.591,0,0,1-1.492-1.041,28.454,28.454,0,0,1-1.763-9.041,1.576,1.576,0,0,1,.737-1.36A62.045,62.045,0,0,1,173.9,302.376c-12.523-16.934-13.3-39.834-10.377-60.689.21-1.5.455-3.017.755-4.535a81.915,81.915,0,0,0-8.385,19.736c1.049.153,2.1.328,3.134.543a1.593,1.593,0,0,1-.323,3.153,1.66,1.66,0,0,1-.326-.033c-1.075-.225-2.161-.4-3.25-.552a76.044,76.044,0,0,0-1.175,27.283A87.491,87.491,0,0,0,162,314.343l.93-1.331a1.592,1.592,0,0,1,2.61,1.823l-1.893,2.708c9.308,16.994,23.593,28.221,38.366,35.912-.046-.492-.089-.984-.162-1.473A1.592,1.592,0,1,1,205,351.51a29.642,29.642,0,0,1,.3,3.6c14.913,7.227,29.966,11.058,40.561,13.744l.312.08V367.1a1.592,1.592,0,1,1,3.184,0v2.634c17.932,4.581,30.737.8,37.036-10.945a35.563,35.563,0,0,0,3.826-14.681A228.492,228.492,0,0,1,211.2,327.842Zm9.111,24.124a1.765,1.765,0,0,1-.239.017,1.594,1.594,0,0,1-1.573-1.357l-1.231-8.21a1.593,1.593,0,1,1,3.151-.47l1.229,8.207A1.593,1.593,0,0,1,220.312,351.967Zm32.511-5.93-6.528.9a1.7,1.7,0,0,1-.218.014,1.592,1.592,0,0,1-.213-3.17l6.527-.895a1.591,1.591,0,0,1,.433,3.153Zm24.357,19.7a1.589,1.589,0,0,1-2.118.767,25.956,25.956,0,0,1-6.535-4.375,1.593,1.593,0,1,1,2.153-2.349,22.717,22.717,0,0,0,5.732,3.841A1.592,1.592,0,0,1,277.18,365.74Z" transform="translate(-82.004 67.635)"/><path class="o" d="M371.845,263.2a1.631,1.631,0,0,1-.277.024,1.592,1.592,0,0,1-.274-3.161l1.138-.2a60.733,60.733,0,0,0-2.984-12.442,33.141,33.141,0,0,1-10.339,21.141,30.963,30.963,0,0,1-7.008,4.769,1.574,1.574,0,0,1-1.379,1.586,1.542,1.542,0,0,1-.189.011,1.583,1.583,0,0,1-1.06-.411,34.233,34.233,0,0,1-14.671,2.339l-2.822,5.379a1.591,1.591,0,1,1-2.82-1.476l2.256-4.305a31.033,31.033,0,0,1-7.96-2.427,39.568,39.568,0,0,1-8.519-5.5c.024.129.033.248.061.379v0c.963,4.684,4.85,19.856,15.76,27.876a14.2,14.2,0,0,0,1.478-2.586,1.593,1.593,0,0,1,2.92,1.272,17.487,17.487,0,0,1-1.718,3.027c6.159,3.471,13.27,4.057,21.164,1.693a23.547,23.547,0,0,0,4.637-1.973,18.531,18.531,0,0,1-1.963-3.872,1.592,1.592,0,0,1,2.992-1.089,15.428,15.428,0,0,0,1.667,3.223,26.123,26.123,0,0,0,8.579-12.393c2.269-6.377,2.861-13.838,2.259-21.047Z" transform="translate(13.766 73.718)"/><path class="o" d="M340.965,246.4c.444-.186.892-.346,1.339-.517a73.166,73.166,0,0,0-6.7-4.657,1.563,1.563,0,0,1-1.562,1.723,1.593,1.593,0,0,1-1.479-1l-1.307-3.269q-2.329-1.29-4.684-2.482a212.658,212.658,0,0,0-25.338-10.827c-.177,7.939-.417,16.083-.723,24.387a54.765,54.765,0,0,1,16.042,12.856q4.3-1.923,8.24-3.677C328.4,253.7,333.863,249.4,340.965,246.4ZM315.8,235.737a19.4,19.4,0,0,1-6.694,5.022,1.577,1.577,0,0,1-.656.142,1.592,1.592,0,0,1-.658-3.043,16.208,16.208,0,0,0,5.59-4.192,1.592,1.592,0,0,1,2.417,2.072Z" transform="translate(5.22 60.655)"/><path class="o" d="M253.44,309.811c11.034,2.423,19.01,4.176,23.136-1.868.139-.2.306-.438.46-.658a81.513,81.513,0,0,1-14.528-3.691c-19.54-7.116-34.915-23.593-43.018-42.743a96.669,96.669,0,0,1-6.2-21.5,27.267,27.267,0,0,1-1.667-3.952c-3.3-10.149-3.143-18.294.4-24.276.274-3.869.718-7.726,1.318-11.546A78.725,78.725,0,0,1,218.96,179.8q-15.207,1.4-28.521,2.264c-.134,2.455-.314,5.914-.521,10.251l2.925,1.3a1.592,1.592,0,0,1-.646,3.048,1.576,1.576,0,0,1-.645-.137l-1.793-.795c-1.092,23.846-2.7,68.676-2.145,117.184a57.408,57.408,0,0,0,7.773,4.584q3.5-2.255,7.339-4.337C221.785,302.857,239.336,306.712,253.44,309.811Zm-17.131-20.268a1.591,1.591,0,0,1,2.207.444,21.558,21.558,0,0,0,4.828,5.167,1.593,1.593,0,0,1-1.941,2.525,24.823,24.823,0,0,1-5.539-5.928A1.6,1.6,0,0,1,236.309,289.543Zm-42.152-71.536a18.372,18.372,0,0,0,4.275-5.621,1.592,1.592,0,1,1,2.86,1.4,21.525,21.525,0,0,1-5.024,6.6,1.592,1.592,0,1,1-2.111-2.382Zm7.563,73.188-4.081,6.664a1.592,1.592,0,0,1-2.715-1.664l4.081-6.664a1.592,1.592,0,0,1,2.715,1.664Zm11.533-25.83a1.589,1.589,0,0,1-2.25.08l-7.151-6.668a1.593,1.593,0,0,1,2.173-2.329l7.148,6.668A1.59,1.59,0,0,1,213.253,265.366Z" transform="translate(-61.71 33.665)"/><path class="o" d="M334.129,423.667c-1.236-1.021-2.489-2.019-3.769-2.971a1.591,1.591,0,0,1,1.9-2.556c1.252.928,2.478,1.9,3.689,2.9.279-.42.572-.826.845-1.255.1-.153.2-.342.295-.519A69.014,69.014,0,0,1,324.7,408.943c-11.176-12.135-15.768-28.861-18.615-45.11-2.8-15.988-4.232-32.587-.852-48.389-10.683,1.767-20.072,5.043-24.481,17.163-7.652,21.034-24.651,35.836-44.362,38.628a48.849,48.849,0,0,1-6.856.486c-12.963,0-25.551-5.253-36.847-15.23.952,6.262,2.006,12.265,3.17,17.954l.42-.344a1.592,1.592,0,1,1,2.011,2.47l-1.693,1.38c3.6,16.531,8.187,30.154,14,39.342a28.984,28.984,0,0,1,1.959-2.142,1.592,1.592,0,0,1,2.228,2.275,25.661,25.661,0,0,0-2.32,2.6,34.767,34.767,0,0,0,3.608,4.21c20.723,20.314,46.505,30.371,70.72,27.605C305.85,449.667,322.491,439.709,334.129,423.667ZM224.161,406.4a1.594,1.594,0,0,1-2.185-.546l-4.6-7.678a1.593,1.593,0,0,1,2.731-1.64l4.6,7.679A1.592,1.592,0,0,1,224.161,406.4Zm24.492-17.08a1.6,1.6,0,0,1,2.175.588l4.328,7.544a1.592,1.592,0,1,1-2.761,1.586l-4.329-7.544A1.593,1.593,0,0,1,248.653,389.315Zm11.955,46.139a1.595,1.595,0,0,1-2.207.452,36.092,36.092,0,0,0-8.909-4.255,1.593,1.593,0,1,1,.966-3.035,39.324,39.324,0,0,1,9.7,4.63A1.593,1.593,0,0,1,260.608,435.454Zm24.215-55.121,3.161-7.64a1.591,1.591,0,1,1,2.941,1.215l-3.159,7.64a1.592,1.592,0,0,1-2.943-1.215Zm8.627,46.914a1.589,1.589,0,0,1-2.243-.185l-6.1-7.2a1.592,1.592,0,1,1,2.428-2.059l6.1,7.2A1.589,1.589,0,0,1,293.45,427.248Zm16.924-26.285a1.593,1.593,0,0,1-2.992-1.1,32.57,32.57,0,0,0,1.955-9.769A1.611,1.611,0,0,1,311,388.578a1.6,1.6,0,0,1,1.521,1.661A35.785,35.785,0,0,1,310.374,400.963Z" transform="translate(-58.639 114.004)"/><path class="p" d="M366.252,245.527c-.2-.326-.4-.674-.605-.981-2.763-4.079-8.77-6.218-15.835-6.218a41.617,41.617,0,0,0-15.924,3.329c-4.926,2.081-19.6,9.725-19.333,26.629l.732.059a23.347,23.347,0,0,1,8.8-12.45,35.406,35.406,0,0,1,5.009-3.1l-.57-.85a1.592,1.592,0,1,1,2.643-1.775L332,251.41a80.027,80.027,0,0,1,8.662-3.07,77.91,77.91,0,0,1,14.614-3.084c.2-.365.414-.718.6-1.091a1.584,1.584,0,0,1,3,.863A37.719,37.719,0,0,1,366.252,245.527Z" transform="translate(13.536 68.331)"/><path class="p" d="M265.755,307.2c-4.224-3.8-12.942-7.64-22.843-11.425l-3.493,2.673a1.592,1.592,0,0,1-1.935-2.529l1.917-1.468c-3.215-1.2-6.506-2.387-9.778-3.57-4.712-1.7-9.366-3.385-13.808-5.076a39.7,39.7,0,0,1-3.7,1.895,1.593,1.593,0,1,1-1.288-2.914c.357-.158.7-.338,1.054-.506C196,278,183.754,271.505,183.509,263.431a30.97,30.97,0,0,1,2.245-12.993,32.765,32.765,0,0,0-4.39,7c-2.549,5.681-2.892,12.709.586,17.876,3.181,4.727,8.818,7.055,14.125,9.128l43.378,16.943c11.609,4.535,23.9,9.676,33.124,17.671C270.981,314.044,268.628,309.788,265.755,307.2Z" transform="translate(-66.511 75.503)"/><g transform="translate(295.686 193.5)"><path class="p" d="M296.327,201.244c1.586-.767,3.189-1.508,4.815-2.205a262.737,262.737,0,0,0-2.908-31.778c-1.145.221-2.293.433-3.439.651C297.053,178.77,296.924,190.023,296.327,201.244Z" transform="translate(-293.85 -167.26)"/><path class="p" d="M301.632,189.361c-1.4.621-2.8,1.259-4.165,1.933a1.359,1.359,0,0,1-.973.126c-.17,2.866-.357,5.726-.532,8.573-1.949,31.826-1.952,63.724-1.546,95.614q2.847-1.292,5.746-2.607C302.151,251.558,302.625,215.848,301.632,189.361Z" transform="translate(-294.202 -154.17)"/></g><path class="p" d="M294.946,299.083a57.756,57.756,0,0,1-.447,7.445c-.14,1.075-.33,2.108-.53,3.135-1.266,14.6-2.223,29.228-2.984,43.862-.887,17.04-1.517,34.092-2.13,51.145.038.019.076.041.115.061,2.587-17.174,5.143-38.966,7.461-63.783-.365.107-.723.226-1.089.325a1.642,1.642,0,0,1-.417.054,1.593,1.593,0,0,1-.412-3.13c.75-.2,1.494-.432,2.236-.666,1.223-13.359,2.374-27.554,3.427-42.343-.339-.373-.689-.737-1-1.131a1.6,1.6,0,0,1,.26-2.239,1.564,1.564,0,0,1,1-.32q.568-8.173,1.094-16.561l.014-.229c-1.414.669-2.772,1.31-4.1,1.935Q296.044,287.848,294.946,299.083Z" transform="translate(-1.683 89.878)"/><path class="q" d="M232.426,238.9c3.646,3.785,8.74,5.7,15.142,5.7,7.815,0,13.044-3.135,16.55-7.258a23.733,23.733,0,0,0-22.021-6.958,22.975,22.975,0,0,0-11.329,6.5A18.591,18.591,0,0,0,232.426,238.9Z" transform="translate(-36.085 63.321)"/><path class="r" d="M320.5,198.95a49.78,49.78,0,0,1-.25,7.159c-.744,6.579-3.267,13.193-8.2,17.609-6.672,5.969-16.641,6.926-25.363,4.914-6.309-1.455-12.711-4.7-15.552-10.518-2.423-4.961-1.691-10.7.723-15.784a7.452,7.452,0,0,0-.726.212c-2.272.831-4.033,2.807-5.388,6.038a1.591,1.591,0,0,1-2.935,0c-1.355-3.231-3.116-5.207-5.388-6.038a7.631,7.631,0,0,0-1.465-.357,23.37,23.37,0,0,1-2.486,13.708,26.887,26.887,0,0,1-15.091,12.585c-10.544,3.589-23.642.025-29.425-9.493-3.909-6.431-3.321-15.173.7-21.327a14.59,14.59,0,0,0-3.826,3.907c-3.412,5.189-3.559,12.682-.436,22.273,4.141,12.721,17.29,18.383,28.218,19.44,13.084,1.264,24.572-3.382,29.277-11.843a1.6,1.6,0,0,1,2.785,0c4.705,8.461,16.206,13.111,29.277,11.843,10.928-1.057,24.077-6.719,28.218-19.44,3.122-9.59,2.976-17.083-.438-22.273A14.07,14.07,0,0,0,320.5,198.95Z" transform="translate(-52.443 44.243)"/><path class="s" d="M292.034,201.094c-.1-1.174-.217-2.358-.368-3.544a18.491,18.491,0,0,0-1.879-.965,11.884,11.884,0,0,1-.092,9.127c-2.2,5.3-8.039,9.557-16.136,7.13a65.7,65.7,0,0,1-10.342-4.6c-5.638-2.879-11.428-5.832-16.01-5.5,3.172,1.263,5.969,3.876,8.751,6.036a42.414,42.414,0,0,0,21.448,8.635c3.9.411,8.226.14,11.163-2.463C292.27,211.668,292.435,206.021,292.034,201.094Z" transform="translate(-26.349 43.608)"/><path class="s" d="M243.8,210.117a50.99,50.99,0,0,1,11.936-6.719c-.175-.083-.349-.169-.532-.236-4.831-1.766-11.614,1.708-18.18,5.065a65.7,65.7,0,0,1-10.342,4.6c-8.1,2.427-13.94-1.831-16.136-7.13a11.887,11.887,0,0,1-.105-9.09c-4.264,3.578-4.592,10.622-1.454,15.27,3.216,4.759,9.157,7.129,14.9,7.313a21.614,21.614,0,0,0,9.734-1.834C237.409,215.61,240.474,212.644,243.8,210.117Z" transform="translate(-50.225 43.622)"/><path class="d" d="M413.421,233.4a69.488,69.488,0,0,0-2.788-7.965c-1.011.9-2.041,1.761-3.1,2.579a4.189,4.189,0,0,1-1.8,3.567v0h0c-2.068,1.46-31.689,15.926-34.24,16.413a2.911,2.911,0,0,1-.522.049c-1.366,0-2.616-1.025-3.275-2.743-.758-1.97-.608-4.52,1.14-5.584.1-.061,3.7-2.11,8.544-4.769-1.742-.148-3.484-.312-5.221-.514a46.683,46.683,0,0,1-5.418,2.4,2.841,2.841,0,0,1-.586.062,3.766,3.766,0,0,1-3.275-2.659,6.566,6.566,0,0,1-.444-1.779,28.981,28.981,0,0,1-4.864-2.108c-.895,1.656-1.839,3.492-2.638,5.11,2.839,3.251,8.008,11.819,7.914,16.552a5.158,5.158,0,0,1-.078.623c3.45.138,8.783.178,11.3-.521C378.431,250.9,409.634,236.665,413.421,233.4Z" transform="translate(37.452 60.696)"/><path class="j" d="M359.381,232.578l22.991-10.9a46.259,46.259,0,0,0,4.847-2.538,38.322,38.322,0,0,1,4.017-2.485,10.664,10.664,0,0,1,9.242.159c.059.03.113.072.172.1a22.509,22.509,0,0,0-3.127-5.024C393.271,213.372,366.26,228.307,359.381,232.578Z" transform="translate(40.087 52.673)"/><path class="d" d="M358.966,303.948a65.389,65.389,0,0,0-2.2-25.575c-27.22,12.713-30.93,13.733-31.833,13.733a1.2,1.2,0,0,1-.213-.019c-1.575-.269-3.791-2.611-5.968-5.684q-3.958,1.961-8.031,3.691a25.333,25.333,0,0,1,1.33,13.924c-1.559,7.918-7.078,14.791-16.4,20.422a23.5,23.5,0,0,1-12.24,3.578,21.927,21.927,0,0,1-3.858-.352,34.516,34.516,0,0,1-3.049,8.219c-3.2,5.961-10.542,14.493-26.347,14.493a57.394,57.394,0,0,1-13.493-1.79v1.266a1.592,1.592,0,0,1-3.185,0V347.8l-1.1-.279c-10.455-2.65-25.148-6.375-39.875-13.294-.068.747-.161,1.49-.287,2.232a1.594,1.594,0,0,1-1.57,1.326,1.71,1.71,0,0,1-.267-.022,1.593,1.593,0,0,1-1.3-1.836,26.655,26.655,0,0,0,.326-3.215,115.464,115.464,0,0,1-14.735-8.756c2.392,12.045,8.4,24.739,18.053,37.964,15.247,20.894,34.4,30.887,53.892,28.113,18.542-2.626,34.565-16.636,41.816-36.563,6.017-16.542,20.29-18.421,34.092-20.239,8.95-1.178,18.2-2.395,25.252-7.6C353.837,321.152,357.7,313.654,358.966,303.948Z" transform="translate(-69.31 92.048)"/><path class="j" d="M204.856,270.6a71.275,71.275,0,0,1,19.177-.091c9.92,1.174,19.614,3.75,29.433,5.576a35.85,35.85,0,0,0,10.112.82c7.281-.729,13.67-5.517,17.988-11.426,3.1-4.247,5.688-9.425,10.566-11.393,4-1.613,8.544-.607,12.622.785a72.12,72.12,0,0,1,17.645,8.9c-.026-.03-.048-.062-.073-.094-8.073-10.069-16.547-15.034-25.2-14.674-13.646.525-24.268,13.991-28.2,19.757-5.337,7.821-15.122,5.672-26.449,3.185-6.973-1.532-14.819-3.255-23.242-3.255A53.694,53.694,0,0,0,204.856,270.6Z" transform="translate(-51.432 74.643)"/><g transform="translate(253.05 327.924)"><path class="f" d="M291.36,284.462q1.512-.7,3.073-1.435c-1.7-2.89-3.387-5.788-4.906-8.791-1.841-3.64-3.5-7.348-5.1-11.087-.666.306-1.33.61-1.982.911A117.036,117.036,0,0,0,291.36,284.462Z" transform="translate(-258.531 -244.892)"/><path class="f" d="M276.5,266.822l-2.044.954a115.234,115.234,0,0,0,9.087,20.32l3.068-1.411c-1.836-3.129-3.677-6.256-5.32-9.506C279.57,273.777,278.005,270.314,276.5,266.822Z" transform="translate(-263.261 -242.717)"/><path class="f" d="M314.94,263.283l-.718-.057a1.592,1.592,0,0,1-1.46-1.715,1.549,1.549,0,0,1,.742-1.193c-1.339-2.85-2.6-5.734-3.828-8.635l-1.849.828a121,121,0,0,0,8.305,19.935l1.188-.567c-.6-2.033-1-3.735-1.228-4.853v0c-.15-.728-.263-1.447-.36-2.164-.1-.186-.2-.368-.3-.554C315.264,263.969,315.108,263.623,314.94,263.283Z" transform="translate(-243.496 -251.683)"/><path class="f" d="M276.192,291.317q1.421-.623,3.121-1.382c-1.653-2.825-3.293-5.656-4.775-8.585-1.858-3.675-3.535-7.423-5.151-11.2-.686.326-1.338.639-1.962.938A117.387,117.387,0,0,0,276.192,291.317Z" transform="translate(-267.425 -240.745)"/><path class="f" d="M302.156,255.05l-1.779.8A122.33,122.33,0,0,0,308.69,276.1l2.974-1.414c-1.181-2.048-2.345-4.108-3.415-6.226C306.028,264.065,304.058,259.575,302.156,255.05Z" transform="translate(-247.909 -249.689)"/><path class="f" d="M292.716,259.335c-.615.279-1.226.559-1.836.836a120.657,120.657,0,0,0,8.544,20.429q1.5-.7,3.022-1.423c-1.36-2.341-2.7-4.692-3.927-7.116C296.41,267.89,294.531,263.629,292.716,259.335Z" transform="translate(-253.533 -247.151)"/></g><path class="f" d="M354.826,252.269c1.035-.527,1.967-1.006,2.839-1.459-.646-1.164-1.288-2.331-1.89-3.522-2.146-4.243-4.055-8.582-5.9-12.953-.588.228-1.2.467-1.85.724A125.4,125.4,0,0,0,354.826,252.269Z" transform="translate(33.361 65.966)"/><g transform="translate(205.944 328.113)"><path class="t" d="M238.467,306.918c39.284-17.913,78.448-36.077,117.956-53.5,1.045-.462.14-1.994-.9-1.537-39.514,17.375-78.475,35.837-117.472,54.323-.479.228-.062.925.414.709Z" transform="translate(-237.841 -251.802)"/></g><g transform="translate(206.627 333.914)"><path class="t" d="M238.9,310.561c39.284-17.913,78.446-36.079,117.955-53.5,1.046-.46.142-1.992-.9-1.535-39.512,17.375-78.473,35.837-117.471,54.323-.481.226-.062.925.414.709Z" transform="translate(-238.269 -255.445)"/></g><g transform="translate(206.627 340.396)"><path class="t" d="M238.9,314.632c39.284-17.913,78.446-36.078,117.955-53.5,1.046-.462.142-1.993-.9-1.537-39.512,17.375-78.473,35.837-117.471,54.323-.481.228-.062.927.414.709Z" transform="translate(-238.269 -259.516)"/></g><g transform="translate(207.992 344.15)"><path class="t" d="M239.753,316.989c39.284-17.913,78.446-36.077,117.955-53.5,1.046-.46.142-1.992-.9-1.537-39.512,17.375-78.473,35.837-117.471,54.323-.479.228-.062.927.414.709Z" transform="translate(-239.127 -261.873)"/></g><g transform="translate(378.023 299.938)"><path class="t" d="M346.31,239.409c4.794-1.317,9.683-2.635,14.348-4.36a.479.479,0,0,0-.255-.924c-4.815,1.263-9.579,2.989-14.265,4.659a.324.324,0,0,0,.172.624Z" transform="translate(-345.913 -234.107)"/></g><g transform="translate(381.758 302.656)"><path class="t" d="M348.672,242.027c4.192-1.385,7.767-4.044,11.967-5.45a.392.392,0,0,0-.209-.755c-4.337.787-7.875,3.987-11.94,5.546-.4.154-.242.8.181.659Z" transform="translate(-348.258 -235.814)"/></g><g transform="translate(384.612 306.776)"><path class="t" d="M350.333,243.964a32.469,32.469,0,0,0,5.211-2.175c1.935-.857,3.942-1.575,5.826-2.536a.456.456,0,0,0-.35-.83,48.527,48.527,0,0,0-5.6,2.366,25.373,25.373,0,0,0-5.3,2.812c-.18.143.017.411.212.363Z" transform="translate(-350.051 -238.402)"/></g><g transform="translate(386.874 310.69)"><path class="t" d="M351.977,246.994c1.882-.946,3.761-1.895,5.627-2.869a21.885,21.885,0,0,0,4.85-2.779.289.289,0,0,0-.279-.479c-1.783.427-3.419,1.613-5.024,2.484-1.849,1-3.681,2.03-5.514,3.062-.379.215-.045.774.339.581Z" transform="translate(-351.471 -240.859)"/></g><path class="g" d="M335.26,92.895a150.482,150.482,0,0,1-18.981,7.791c-15.913,5.062-32.4,8.273-48.916,10.612-17.044,2.414-34.361,4.46-51.565,5.2a234.721,234.721,0,0,1-26.1-.234c-.933-.065-1.865-.151-2.794-.244-.591,3.818-1.107,7.624-1.551,11.393,9.727,1.966,19.964,2.392,28.984,2.433,18.26.084,36.5-1.782,54.584-4.18,17.341-2.3,34.592-5.409,51.285-10.735a206.428,206.428,0,0,0,22.054-8.146C340.04,102.146,337.7,97.5,335.26,92.895Z" transform="translate(-62.983 -17.803)"/><path class="b" d="M326.614,84.539a125.923,125.923,0,0,1-21.365,9.281c-16.424,5.186-33.559,7.549-50.672,9.019-21.432,1.841-44.061,4.337-66.066,2.954q-.623,2.909-1.173,5.834c23.124,3.126,47.392.635,70.262-1.457,17.2-1.575,34.46-4.054,50.936-9.4a139.679,139.679,0,0,0,22.22-9.042Q328.73,88.1,326.614,84.539Z" transform="translate(-61.808 -22.752)"/><g transform="translate(25.409 126.362)"><path class="b" d="M357.019,166.425c-2.084-1.226-4.3-2.259-6.423-3.423q-7.022-3.845-13.835-8.058c-5.746-3.562-13.574-11.88-20.98-12.477q-3.126.748-6.329,1.494c-5.651,3.073-10.4,10.049-14.115,14.284a264.426,264.426,0,0,0-17.782,22.991c-.726,1.04-1.409,2.377-2.173,3.575q8.455-1.376,17-2.887c3.372-4.8,6.99-9.434,10.786-13.907,1.513-1.782,9.547-13.106,12.1-13.136.968-.011,5.137,3.576,5.732,3.974,2.419,1.618,4.866,3.2,7.32,4.761q6.7,4.275,13.595,8.218c5.762-1.363,11.4-2.775,16.867-4.243A19.994,19.994,0,0,0,357.019,166.425Z" transform="translate(-35.072 -114.807)"/><path class="b" d="M391.551,140.908a88.794,88.794,0,0,1-13.365-13.842,7.121,7.121,0,0,0-2.314-1.971c-2.427.887-5.041,1.826-7.824,2.8-5.4,8.482-10.966,16.883-17.045,24.893-5.839,7.7-12.428,17.407-20.037,23.678,7.836-2.2,15.268-4.509,22.137-6.937,1.616-2.138,3.189-4.245,4.727-6.24a255.421,255.421,0,0,0,16.478-23.976A132.837,132.837,0,0,0,387.481,151.8,51.428,51.428,0,0,0,391.551,140.908Z" transform="translate(-2.152 -125.095)"/><path class="b" d="M232.046,159.231q-8.992.673-17.192,1.108c-8.719,9.886-17.053,20.091-25.174,30.477A197.566,197.566,0,0,1,152.3,161.048a5.089,5.089,0,0,0-1-.767q-2.565-.191-4.971-.414a5.06,5.06,0,0,0-1.775,1.181c-6.831,7.071-13.565,14.213-20.094,21.539a22.578,22.578,0,0,0,3.307,2.892,20.3,20.3,0,0,0,5.129,2.315c5.269-4.957,10.431-10.027,15.55-15.15a209.353,209.353,0,0,0,23.721,19.848c8.735.234,18.884.2,30.565-.194,6.963-8.525,14.111-16.9,21.332-25.207A184.524,184.524,0,0,0,248.6,189.46q8.83-.755,18.411-1.716A140.184,140.184,0,0,1,232.046,159.231Z" transform="translate(-124.458 -104.878)"/><path class="b" d="M296.7,179.96q-5.567-2.661-10.883-5.8A126.608,126.608,0,0,1,260.364,154.5a5.879,5.879,0,0,0-2.1-1.334q-2.954.439-5.947.866a5.371,5.371,0,0,0-.559.468,253.088,253.088,0,0,0-28.13,35.2q8.3-.927,17.13-2c4.936-6.976,10.184-13.73,15.754-20.2a164.674,164.674,0,0,0,19.868,15.483C283,182.046,289.794,181.037,296.7,179.96Z" transform="translate(-65.725 -108.468)"/></g><g transform="translate(16.174 120.971)"><path class="g" d="M372.074,124.018c-.658-.705-1.328-1.489-2.011-2.309q-2.4.958-5.409,2.116,2.854,3.134,5.707,6.266c1.154,1.263,2.3,2.549,3.447,3.836.484-2.212.936-4.449,1.35-6.646C374.123,126.2,373.091,125.11,372.074,124.018Z" transform="translate(27.036 -121.709)"/><path class="g" d="M176.469,175.127c4.942-5.141,10.039-10.173,15.332-14.958q-3.21.139-6.3.242a149.041,149.041,0,0,0-10.931,10.374c-5.4-3.321-10.767-6.7-16.13-10.092q-4.392-.069-8.445-.215c.575.385,1.14.759,1.688,1.1,7.385,4.616,14.8,9.183,22.129,13.889A2.214,2.214,0,0,0,176.469,175.127Z" transform="translate(-100.096 -98.931)"/><path class="g" d="M133.686,158.352A117.514,117.514,0,0,1,118.658,170.6q.984,1.6,2,3.135a98.441,98.441,0,0,0,8.88-6.175c3.068-2.4,5.906-5.6,8.877-8.485Q135.936,158.728,133.686,158.352Z" transform="translate(-118.658 -100.007)"/><path class="g" d="M202.462,162.989c6.965,4.269,13.99,8.479,20.58,13.314a2.27,2.27,0,0,0,2.753-.355,219.5,219.5,0,0,1,18.727-20.335q-2.792.351-5.528.683a112.994,112.994,0,0,0-15.343,15.13c-6.531-3.665-12.955-7.527-19.371-11.4q-2.84.26-5.614.5C199.947,161.386,201.218,162.227,202.462,162.989Z" transform="translate(-71.273 -101.628)"/><path class="g" d="M359.6,133.212q-1.81,2.083-3.565,4.176c-2.9,3.446-5.573,7.076-8.48,10.52-2.121,2.511-4.909,7.461-8.027,8.59-5.434,1.97-17.015-4.261-22-6.514-2.092-.944-4.146-1.978-6.181-3.051q-2.7.69-5.466,1.377c3.154,1.815,6.371,3.519,9.681,5.038a132.309,132.309,0,0,0,24.186,8.273,2.063,2.063,0,0,0,2-.529c9.689-10.839,20.814-20.671,30.142-31.869Q366.113,131.152,359.6,133.212Z" transform="translate(-7.772 -117.258)"/><path class="g" d="M258.684,158.876c8.054,5.758,16.255,11.375,24.612,16.682a2.053,2.053,0,0,0,2.79-.731c3.78-7.67,7.67-15.453,12.775-22.339,1.478-1.992,3.2-4.258,5.1-6.549q-2.331.5-4.7.989A130.634,130.634,0,0,0,283.5,170.914c-8.589-5.14-16.958-10.522-25.108-16.325q-2.133.356-4.291.705C255.727,156.614,257.269,157.865,258.684,158.876Z" transform="translate(-38.443 -107.358)"/></g><path class="g" d="M141.99,174.06a3.716,3.716,0,0,0-4.576,1.5l-.137.186a3.174,3.174,0,0,0,0,3.326l.137.186a3.8,3.8,0,0,0,4.138,1.685,3.642,3.642,0,0,0,.438-6.882Z" transform="translate(-91.735 30.091)"/><path class="g" d="M193.884,175.307l-.051-.08a4.071,4.071,0,0,0-4.035-1.933,4.167,4.167,0,0,0-3.366,2.9l-.037.092a4.057,4.057,0,0,0,4.495,5.113A4.092,4.092,0,0,0,193.884,175.307Z" transform="translate(-62.477 29.792)"/><path class="g" d="M246.088,166.851c-4.8,0-4.81,7.463,0,7.463S250.9,166.851,246.088,166.851Z" transform="translate(-29.147 25.998)"/><path class="g" d="M302.014,157.051c-5.563,0-5.571,8.646,0,8.646S307.587,157.051,302.014,157.051Z" transform="translate(3.638 20.194)"/><path class="g" d="M357.2,141.194l-.338.2a4.463,4.463,0,0,0,0,7.627c.113.067.226.134.338.2a4.65,4.65,0,1,0,0-8.03Z" transform="translate(37.323 10.428)"/><path class="b" d="M359.62,132.931c-2.28-6.068-4.828-12.509-7.664-19.2-.938.26-1.852.5-2.783.758-.978,14.386-1.619,28.927-1.92,43.359a139.776,139.776,0,0,1-26.924-35.872q-8.672,2.119-16.991,3.977-6.076,19.487-12.09,39c-8.471-9.5-15.353-20.553-19.23-32.689q-6.444,1.146-12.719,2.129c-3.52,12.394-6.694,24.941-9.624,37.493a67.863,67.863,0,0,1-26.092-33.09c-4.664.408-9.821.759-15.246.895a269.2,269.2,0,0,1-6.9,26.5c-5.538-9.385-10.893-18.991-17.188-27.8-.322,5.987-.494,11.69-.568,16.985,4.678,9.063,9.815,17.954,14.187,27.027.083.172.183.317.277.473q4.724-.356,9.673-.78a5.814,5.814,0,0,0,.565-1.068,229.949,229.949,0,0,0,9.211-29.043,83.724,83.724,0,0,0,23.081,26.78q9.4-1.089,19.473-2.408c2.654-9.8,5.184-19.664,7.5-29.565a141.7,141.7,0,0,0,16.722,26.166q8.565-1.3,16.819-2.693,6.656-20.426,12.311-41.206a248.351,248.351,0,0,0,25.556,34.108q10.167-2.107,19.722-4.291Q359.378,145.94,359.62,132.931Z" transform="translate(-63.975 -5.465)"/><path class="t" d="M194.592,130.968c-4.562,0-4.57,7.09,0,7.09S199.162,130.968,194.592,130.968Z" transform="translate(-59.539 4.746)"/><path class="t" d="M222.166,129.428c-5.083,0-5.092,7.9,0,7.9S227.257,129.428,222.166,129.428Z" transform="translate(-43.44 3.834)"/><path class="t" d="M250.654,125.746a4.354,4.354,0,1,0,4.353,4.353A4.4,4.4,0,0,0,250.654,125.746Z" transform="translate(-26.889 1.653)"/><path class="t" d="M283.5,121.56l-.215-.24a3.476,3.476,0,0,0-4.882,0l-.213.24a3.824,3.824,0,0,0-.777,4.1,3.729,3.729,0,0,0,3.431,2.309,3.914,3.914,0,0,0,3.242-1.86A3.859,3.859,0,0,0,283.5,121.56Z" transform="translate(-8.632 -1.562)"/><path class="j" d="M286.786,59.929c-14.676-10.971-29.549-14.563-44.214-10.67-29.138,7.732-44.856,36.926-53.209,69.59l.212.158c7.369-16.126,14.937-32.555,27.018-45.531s29.677-22.132,47.226-19.617c15.614,2.239,28.56,13.085,39.319,24.621,5.256,5.638,10.275,11.592,15.582,17.2C309.19,81.331,298.5,68.687,286.786,59.929Z" transform="translate(-60.608 -44.548)"/><path class="c" d="M240.338,188.247c-2.559-3.837-5.947-8.216-11.132-7.45-4.307.637-8.654,4.485-11.143,7.871-3.4,4.624-3.14,9.434-1.328,14.66.744,2.143,4.114,1.9,4.094-.554-.046-5.27,1.28-12.267,7.172-14.373,6.159-2.2,11.006,9.068,11.245,13.929.158,3.232,5.411,4.377,5.985.81C246.086,197.843,243.228,192.583,240.338,188.247Z" transform="translate(-45.173 34.205)"/><path class="c" d="M254.542,188.088c2.559-3.839,5.947-8.218,11.132-7.452,4.307.637,8.654,4.485,11.143,7.871,3.4,4.626,3.14,9.434,1.328,14.66-.744,2.143-4.114,1.9-4.094-.554.046-5.27-1.28-12.267-7.172-14.373-6.157-2.2-11.006,9.068-11.243,13.929-.159,3.232-5.412,4.379-5.987.81C248.794,197.683,251.652,192.422,254.542,188.088Z" transform="translate(-24.994 34.11)"/></g><path class="b" d="M177.154,55.371c-2.853.656-5.28,3.161-7.245,5.245a69.213,69.213,0,0,0-6.014,7.065c-4.223,5.885,5.344,13.308,10.081,7.778a69.855,69.855,0,0,0,5.409-7.531c1.589-2.457,3.364-5.336,3.32-8.329A4.442,4.442,0,0,0,177.154,55.371Z" transform="translate(65.161 17.528)"/><path class="b" d="M160.875,101.5c-1.822-5.153-6.418-9.229-10.643-12.477-3.489-2.681-7.246,2.885-4.522,5.861a32.478,32.478,0,0,1,3.622,4.723c1.105,1.771,1.874,3.767,3.1,5.453,1.35,1.86,3.528,2.876,5.77,1.89C160.175,106.08,161.657,103.7,160.875,101.5Z" transform="translate(54.459 37.11)"/><path class="b" d="M95.846,122.473a80.418,80.418,0,0,0-17.954,14.1c-4.372,4.649,2.38,11.424,7.011,7.009a205.971,205.971,0,0,0,14.864-16.029C102.043,124.865,99.183,120.513,95.846,122.473Z" transform="translate(14.009 57.052)"/><path class="b" d="M101.07,170.057c-5.036-2.721-9.654-5.173-13.641-9.378-3.333-3.514-9.509,1.084-6.789,5.239,3.673,5.611,8.42,11.227,14.415,14.432C101.815,183.965,107.834,173.709,101.07,170.057Z" transform="translate(16.074 79.231)"/><path class="b" d="M83.519,246.787c-1.5,4.657-5.1,7.88-7.127,12.181a6.337,6.337,0,0,0,.954,7.4c1.785,1.783,5.234,2.524,7.4.954,6.1-4.42,7.92-12.1,8.058-19.279C92.909,242.574,85.123,241.812,83.519,246.787Z" transform="translate(13.508 129)"/><path class="b" d="M155.475,216.751c-1.737-2.939-5.057-4.45-7.638-6.567a33.061,33.061,0,0,1-6.527-6.912c-3.073-4.481-9.385-.656-7.2,4.207,2.993,6.651,8.921,16.337,16.967,16.931C155,224.7,157.333,219.891,155.475,216.751Z" transform="translate(47.876 104.02)"/><path class="b" d="M111.121,270.865c-2.847,5.039-6.379,9.711-8.805,14.98-1.333,2.9-.822,6.364,2.119,8.085,2.548,1.49,6.745.793,8.086-2.119,2.634-5.724,4.07-11.834,6.218-17.735C120.369,269.591,113.41,266.816,111.121,270.865Z" transform="translate(28.899 144.066)"/><path class="b" d="M153.537,306.821c-1.8-1.979-4.4-3.364-6.613-4.858-2.07-1.4-4.11-2.8-6.092-4.321-1.794-1.377-4.71-.455-5.938,1.185a4.643,4.643,0,0,0,.36,6.044c3.562,3.863,6.463,8.663,10.652,11.84,2.468,1.869,6.438.634,8.124-1.622A6.356,6.356,0,0,0,153.537,306.821Z" transform="translate(48.044 160.692)"/><path class="b" d="M83.419,339.165c-2.42-1.415-4.926-.35-6.466,1.7-3.363,4.465-6.159,9.128-6.805,14.748-.575,4.989,6.723,6.242,9,2.436,2.36-3.947,3.653-8.412,5.971-12.412A4.807,4.807,0,0,0,83.419,339.165Z" transform="translate(10.24 185.299)"/><path class="b" d="M143.731,352.375c-1.987,2.072-4.247,4.21-5.562,6.794-1.2,2.35-.694,5.581,1.81,6.906a5.17,5.17,0,0,0,6.906-1.81c1.623-2.4,2.392-5.425,3.239-8.167C151.251,352.445,146.347,349.651,143.731,352.375Z" transform="translate(50.179 192.858)"/><path class="b" d="M352.42,356.436c-3.707-2.365-6.88-4.417-8.947-8.447-2-3.9-8.124-1.181-6.992,2.947,1.613,5.887,4.958,11.88,10.366,15.036C353.019,369.573,358.394,360.247,352.42,356.436Z" transform="translate(167.917 189.789)"/><path class="b" d="M420.189,329.347c-6.742,1.621-12.923,5.395-16.112,11.767a5.454,5.454,0,0,0,1.911,7.283c2.314,1.353,6.051.7,7.283-1.909,2.118-4.492,4.955-8.7,9.531-10.945C426.351,333.8,423.808,328.478,420.189,329.347Z" transform="translate(207.646 179.811)"/><path class="b" d="M329.662,309.109c-2.556-4.885-6.274-9.364-9.711-13.654-2.022-2.524-6.114.734-4.446,3.43,2.841,4.586,4.9,9.421,7.39,14.181C325.232,317.536,332,313.579,329.662,309.109Z" transform="translate(155.344 159.256)"/><path class="b" d="M433.173,265.635a73.767,73.767,0,0,1-5.616,7.1c-2.156,2.39-4.358,4.544-5.541,7.581-1.576,4.043,3.622,7.165,6.933,5.329,5.305-2.942,8.531-10.77,11.046-16.024A3.953,3.953,0,0,0,433.173,265.635Z" transform="translate(218.486 141.035)"/><path class="b" d="M379.186,190.837a29.493,29.493,0,0,0-4.153-3.579c-1.4-1.183-2.783-2.372-4.175-3.56a3.392,3.392,0,0,0-4.794,4.794c1.186,1.392,2.377,2.78,3.559,4.175a29.617,29.617,0,0,0,3.581,4.154A4.233,4.233,0,0,0,379.186,190.837Z" transform="translate(184.972 93.056)"/><path class="b" d="M415.528,153.479c-5.875,2.309-11.644,5.444-15.384,10.681-3.1,4.347,3.968,9.851,7.444,5.743,3.49-4.127,6.289-8.466,10.6-11.85C420.308,156.393,418.011,152.505,415.528,153.479Z" transform="translate(205.249 75.616)"/><path class="b" d="M323.646,82.828c-4.022-3.713-8.367-7.116-12.385-10.813-1.817-1.673-5.1-.057-4.313,2.511a29.766,29.766,0,0,0,3.509,8.23,37,37,0,0,0,5.973,7.286C321.321,94.364,328.5,87.312,323.646,82.828Z" transform="translate(150.436 27.054)"/><path class="b" d="M266.3,38.432a3.406,3.406,0,0,0-3.36-2.966,9.762,9.762,0,0,0-5.668,1.834c-2.177,1.594-4.205,3.919-3.043,6.818a3.374,3.374,0,0,0,3.22,2.165c1.775.014,2.955-1.151,4.022-2.369-.545.623.158-.123.282-.245s.259-.24.393-.358c.046-.03.094-.064.167-.115.3-.18.576-.377.868-.567.107-.07,1.225-.678.669-.444C265.42,41.523,266.574,40.26,266.3,38.432Z" transform="translate(119.083 5.811)"/><path class="b" d="M408.089,127.5a30.673,30.673,0,0,1-6.995-11.417,2.521,2.521,0,0,0-4.858,1.339,41.339,41.339,0,0,0,5.622,14.886C404.923,137.128,412.05,131.74,408.089,127.5Z" transform="translate(203.359 52.501)"/><path class="g" d="M362.524,309.994a3.969,3.969,0,0,0-7.162.936,30.216,30.216,0,0,0-1.006,3.563c-.242,1.269-.575,2.5-.9,3.753a5.09,5.09,0,0,0,2.936,5.982c2.087.881,5.334.245,6.331-2.075a16.475,16.475,0,0,0,1.522-6.321A10.591,10.591,0,0,0,362.524,309.994Z" transform="translate(177.951 167.295)"/><path class="g" d="M396.043,290.086c-3.662-2.9-7.326-5.772-10.979-8.681a3.436,3.436,0,0,0-3.995-.516,3.32,3.32,0,0,0-1.514,3.723,25.775,25.775,0,0,0,10.633,13.063,4.825,4.825,0,0,0,6.232-1.245C397.722,294.686,397.953,291.6,396.043,290.086Z" transform="translate(193.424 150.911)"/><path class="g" d="M426.438,195.045c-5.527,2.594-11.09,5.667-15.182,10.311-4.428,5.025,2.14,11.254,7.216,7.218,4.468-3.551,8.2-7.953,12.338-11.864C433.955,197.737,429.97,193.387,426.438,195.045Z" transform="translate(211.419 100.108)"/><path class="g" d="M338.868,186.829c-1.562-2.683-3.374-5.242-5.07-7.843-1.993-3.057-7.52-1.194-6.2,2.613,1.008,2.893,1.912,5.852,3.065,8.689,1,2.474,3.352,4.046,6.055,2.908A4.485,4.485,0,0,0,338.868,186.829Z" transform="translate(162.62 89.908)"/><path class="g" d="M361.543,79.636a2.371,2.371,0,0,0-1.63,3.993c0,.043-.006.078-.008.127a7.783,7.783,0,0,1-.454,1.355c-.334.879-.764,1.7-1.146,2.56a54.172,54.172,0,0,0-3.081,8.186c-1.283,4.954,6.452,8.7,8.609,3.629C365.815,94.833,371.523,79.569,361.543,79.636Z" transform="translate(179.014 31.972)"/><path class="g" d="M216.423,27.437c-.361-2.126-3.594-2.387-4.548-.594-1.137,2.138-2.118,4.307-3.422,6.359a49.719,49.719,0,0,1-4.654,5.554c-2.8,3.278.909,9.294,4.957,6.425C214.132,41.372,217.532,33.971,216.423,27.437Z" transform="translate(88.837)"/><path class="g" d="M123.387,118.169c-3.067-3.847-7.2-7.043-10.7-10.52-2.56-2.551-7.444.884-5.178,3.995,3.113,4.274,5.815,9.114,9.394,13.006a4.633,4.633,0,0,0,6.479,0C125.3,122.737,124.937,120.112,123.387,118.169Z" transform="translate(32.044 48.036)"/><path class="g" d="M95.029,207.509c-3.417,3.6-7.648,7.308-10,11.724a4.316,4.316,0,0,0,6.748,5.208c3.669-3.411,6.168-8.445,8.772-12.673C102.63,208.386,97.791,204.6,95.029,207.509Z" transform="translate(18.746 107.092)"/><path class="g" d="M133.035,240.239c-1.923-3.167-4.25-6.143-6.38-9.176a3.268,3.268,0,0,0-5.638,3.3c1.661,3.309,3.178,6.762,5.054,9.95C128.7,248.78,135.737,244.69,133.035,240.239Z" transform="translate(40.141 120.759)"/><path class="g" d="M70.114,301.118a30.917,30.917,0,0,1-3.024,4.919c-1.253,1.624-2.825,2.944-3.995,4.627-2.251,3.24,2.331,8.041,5.582,5.582,3.879-2.933,6.261-7.923,7.917-12.4C77.983,300.093,71.924,297.549,70.114,301.118Z" transform="translate(5.727 162.133)"/><path class="g" d="M122.181,335.8c-1.871-2.78-4.509-3.142-7.437-4.184a20.61,20.61,0,0,1-6.2-3.616c-3.724-3.1-8.128,1.5-5.234,5.234a33.179,33.179,0,0,0,7.031,6.649c3.224,2.3,6.38,3.737,10.214,2.1C122.717,341.07,123.416,337.633,122.181,335.8Z" transform="translate(29.347 178.463)"/><path class="g" d="M69.411,164.618A90.085,90.085,0,0,0,58.2,157.275c-3.6-2.067-7.159,2.685-4.371,5.667a82.718,82.718,0,0,0,8.77,8.493c2.038,1.616,4.828,1.99,6.816,0C71.09,169.758,71.462,166.244,69.411,164.618Z" transform="translate(0 77.656)"/><path class="g" d="M138.719,36.045a.124.124,0,0,0,0,.248A.124.124,0,0,0,138.719,36.045Z" transform="translate(50.801 6.155)"/><path class="g" d="M131.751,46.836a2.988,2.988,0,0,0-5.971,0c-.5,4.669-1.653,9.468-1.459,14.173.236,5.716,8.651,5.726,8.888,0C133.4,56.3,132.254,51.506,131.751,46.836Z" transform="translate(42.331 10.842)"/><path class="g" d="M295.229,45.5a40.234,40.234,0,0,0-8.783,9.386,3.046,3.046,0,0,0,.473,3.659,4.237,4.237,0,0,0,5.506.771,2.057,2.057,0,0,0,.7-2.89,34.728,34.728,0,0,0,5.258-7.777C299.234,46.8,297.291,44,295.229,45.5Z" transform="translate(138.116 11.5)"/><path class="g" d="M340.057,49.6c-.957-2.608-2.339-5-3.229-7.64-.838-2.492-1.388-5.022-2.417-7.45-.841-1.982-3.715-1.153-4.262.557-1.812,5.645.49,13.418,4.294,17.8C336.6,55.352,341.2,52.728,340.057,49.6Z" transform="translate(163.875 4.565)"/><path class="t" d="M320.91,335.379a2.55,2.55,0,1,0,2.551,2.549A2.577,2.577,0,0,0,320.91,335.379Z" transform="translate(157.265 183.439)"/><path class="t" d="M402.228,264.329a5.131,5.131,0,1,0,5.132,5.132A5.189,5.189,0,0,0,402.228,264.329Z" transform="translate(203.897 141.359)"/><path class="t" d="M346.413,214.25a1.971,1.971,0,0,0-1.888,2.479l.25.7a1.716,1.716,0,0,0,3.278,0c.083-.232.167-.465.25-.7A1.972,1.972,0,0,0,346.413,214.25Z" transform="translate(172.706 111.699)"/><path class="t" d="M353.707,203.21a5.585,5.585,0,0,0-5.009-.433,4.339,4.339,0,0,0-3.1,4.078,4.422,4.422,0,0,0,3.1,4.079,5.624,5.624,0,0,0,5.009-.433,4.222,4.222,0,0,0,0-7.291Z" transform="translate(173.393 104.675)"/><path class="t" d="M389.035,148.95a2.606,2.606,0,0,0-2.458,3.228,7,7,0,0,0,.147.728,2.417,2.417,0,0,0,4.624,0,6.63,6.63,0,0,0,.147-.728A2.6,2.6,0,0,0,389.035,148.95Z" transform="translate(197.642 73.024)"/><path class="t" d="M338.211,80.137q-.5-.251-1.006-.5a4.412,4.412,0,0,0-5.2.67,4.486,4.486,0,0,0-.67,5.2l.5,1.008c1.345,2.731,5.317,2.952,7.326.944S340.939,81.481,338.211,80.137Z" transform="translate(164.633 31.654)"/><path class="t" d="M325.775,64.522a1.867,1.867,0,0,0,0,3.732A1.867,1.867,0,0,0,325.775,64.522Z" transform="translate(160.59 23.021)"/><path class="t" d="M229.229,32.1c-4.283,0-4.29,6.654,0,6.654S233.518,32.1,229.229,32.1Z" transform="translate(102.573 3.821)"/><path class="t" d="M178.068,104.714l-.256-.7a3.806,3.806,0,0,0-3.568-2.716,3.879,3.879,0,0,0-3.568,2.716l-.256.7c-.9,2.46,1.411,5.02,3.825,5.02S178.968,107.169,178.068,104.714Z" transform="translate(69.528 44.801)"/><path class="t" d="M168.817,92.341a1.587,1.587,0,0,0,0,3.172A1.587,1.587,0,0,0,168.817,92.341Z" transform="translate(67.79 39.497)"/><path class="t" d="M104.476,131.884a3.11,3.11,0,1,0,3.11,3.11A3.145,3.145,0,0,0,104.476,131.884Z" transform="translate(28.747 62.917)"/><path class="t" d="M75.318,196.5c-3.323,0-3.328,5.162,0,5.162S78.644,196.5,75.318,196.5Z" transform="translate(11.844 101.188)"/><path class="t" d="M133.156,264.011l-.99-.525a4.418,4.418,0,0,0-5.239.675,4.486,4.486,0,0,0-.677,5.239l.527.99a4.663,4.663,0,1,0,6.379-6.379Z" transform="translate(43.16 140.53)"/><path class="t" d="M138.9,254.535a2.313,2.313,0,0,0-2.22,2.912l.177.463a2.139,2.139,0,0,0,4.084,0l.177-.463A2.312,2.312,0,0,0,138.9,254.535Z" transform="translate(49.595 135.558)"/><path class="t" d="M95.778,308.329a3.693,3.693,0,0,0-2.006-1.543,3.361,3.361,0,0,0-3.794,4.934c.947,1.513,2.029,3.272,3.837,3.794a3.116,3.116,0,0,0,3.893-2.965C97.821,310.988,96.685,309.51,95.778,308.329Z" transform="translate(21.729 166.438)"/><path class="t" d="M177,354.3a3.965,3.965,0,0,0-5.586,0c-1.336,1.455-1.7,4.178,0,5.586,1.062.88,2.1,1.825,3.611,1.669a3.782,3.782,0,0,0,3.643-3.643C178.828,356.4,177.884,355.359,177,354.3Z" transform="translate(69.561 193.962)"/><path class="t" d="M103.513,367.015c-3,0-3.006,4.665,0,4.665S106.521,367.015,103.513,367.015Z" transform="translate(28.686 202.176)"/></g></svg>