<svg xmlns="http://www.w3.org/2000/svg" width="414" height="915.147" viewBox="0 0 414 915.147"><defs><style>.a,.f,.g,.h{fill:#d60000;}.b{fill:#2c1e1d;}.c,.e{fill:#366344;}.d{fill:#443521;}.e{stroke:#53b278;}.e,.f,.g,.h,.i{stroke-miterlimit:10;}.e,.g{stroke-width:0.25px;}.f,.g,.h,.i{stroke:#ea4c31;}.f{stroke-width:0.75px;}.i{fill:none;}</style></defs><g transform="translate(-379.837 -261)"><g transform="translate(688.59 863.947)"><g transform="translate(2.29 21.112)"><path class="a" d="M485.924,411.443a99.4,99.4,0,0,1-27.506-4.355c-8.8-2.7-18.6-8.648-18.434-17.851a9.048,9.048,0,0,1,2.131-5.9c4.271-4.717,12.074-1.889,17.374,1.627a121.631,121.631,0,0,1,27.228,24.73" transform="translate(-435.428 -376.014)"/><path class="a" d="M490,413.917c-6.234-1.028-51.276-10.778-40.047-22.831,7.629-8.191,33.435,18.748,39.087,23.885,1.558,1.417,4.208-.4,3.012-2.325-6.286-10.153-38.94-48.065-51.229-25.848-4.544,8.217.651,17.431,7.456,22.332,11.812,8.506,27.438,9.057,41.327,7.719,1.527-.147,2.188-2.634.394-2.933Z" transform="translate(-439.115 -379.931)"/></g><g transform="translate(35.023)"><path class="a" d="M459.607,428.868a99.336,99.336,0,0,1-11.67-25.286c-2.65-8.816-3.148-20.27,4.592-25.245a9.039,9.039,0,0,1,6.087-1.511c6.3.929,8.285,8.988,8.306,15.353a121.406,121.406,0,0,1-5.426,36.374" transform="translate(-441.844 -372.328)"/><path class="a" d="M464.4,431.693a183.672,183.672,0,0,1-7.971-22.285c-1.2-3.936-5.709-20.643.714-22.621q4.148,1.33,8.291,2.671a21.87,21.87,0,0,1,.955,6.3,91.579,91.579,0,0,1-.278,11.061,216.746,216.746,0,0,1-2.959,24.8c-.309,1.942,2.566,3.647,3.51,1.48,4.5-10.369,18.712-62.08-8.285-56.823-10.426,2.031-13.732,13.249-12.9,22.484,1.2,13.333,8.322,24.63,16.586,34.737,1.149,1.412,2.986-.388,2.34-1.81Z" transform="translate(-445.353 -375.908)"/></g><g transform="translate(51.275 16.227)"><path class="a" d="M448.738,415.012a99.355,99.355,0,0,1,14.53-23.754c5.856-7.1,15.1-13.884,23.539-10.216a9.037,9.037,0,0,1,4.639,4.224c2.729,5.751-2.865,11.88-8.144,15.437a121.671,121.671,0,0,1-33.257,15.705" transform="translate(-447.227 -374.698)"/><path class="a" d="M451.246,420.064a185.574,185.574,0,0,1,14.383-19.441c3.888-4.764,10.815-12.913,17.746-11.759,15.726,2.618-8.28,17.368-11.318,19.179-7.084,4.229-14.314,7.5-21.76,11.009-2.115,1-.5,3.836,1.48,3.51,12.971-2.136,27.28-7.834,37.612-16.12,7.147-5.73,12.242-16.156,3.642-23.188-20.721-16.928-40.152,21.146-44.512,35.66a1.5,1.5,0,0,0,2.729,1.149Z" transform="translate(-448.45 -379)"/></g><g transform="translate(50.252 53.004)"><path class="a" d="M449.2,387.03a99.464,99.464,0,0,1,27.81,1.385c9.036,1.742,19.42,6.611,20.239,15.778a9.04,9.04,0,0,1-1.485,6.092c-3.747,5.147-11.8,3.169-17.452.241a121.654,121.654,0,0,1-29.715-21.682" transform="translate(-446.815 -383.409)"/><path class="a" d="M450.637,391.12a158.675,158.675,0,0,1,26.708,3.888,37.139,37.139,0,0,1,8.763,2.975,20.243,20.243,0,0,1,5.211,3.663q5.053,3.707.22,7.063c-3.851,5.106-7.719,1.947-12.735-.609-2.986-1.522-5.84-3.321-8.716-5.037A229.384,229.384,0,0,1,451,389.787c-1.9-1.4-3.557,1.464-2.324,3.017,6.995,8.816,46.916,45.126,54.057,18.355,2.6-9.755-5.116-17.568-13.26-21.162-12.489-5.515-26.215-4.5-39.239-1.81-1.721.357-1.207,2.844.4,2.933Z" transform="translate(-448.255 -386.009)"/></g><g transform="translate(39.209 52.217)"><path class="a" d="M454.442,386.179a99.471,99.471,0,0,1,11.523,25.349c2.6,8.831,3.028,20.286-4.743,25.218a9.007,9.007,0,0,1-6.092,1.474c-6.292-.965-8.228-9.03-8.217-15.4a121.684,121.684,0,0,1,5.635-36.348" transform="translate(-442.917 -384.5)"/><path class="a" d="M456.39,388.294a184.194,184.194,0,0,1,7.844,22.343c1.176,3.941,5.578,20.7-.876,22.616q-4.124-1.385-8.259-2.765a21.674,21.674,0,0,1-.913-6.3,92.611,92.611,0,0,1,.341-11.061,216.532,216.532,0,0,1,3.106-24.777c.325-1.947-2.555-3.636-3.505-1.48-4.56,10.337-19.058,62.022,7.986,56.859,10.411-1.989,13.785-13.2,13-22.432-1.128-13.338-8.186-24.662-16.387-34.81-1.149-1.422-2.975.394-2.34,1.81Z" transform="translate(-446.15 -385.859)"/></g><g transform="translate(0 52.985)"><path class="a" d="M487.521,388a99.652,99.652,0,0,1-18.879,20.469c-7.126,5.824-17.515,10.678-25.077,5.431a9.026,9.026,0,0,1-3.731-5.043c-1.553-6.171,5.127-11.093,10.993-13.553a121.555,121.555,0,0,1,35.681-8.931" transform="translate(-434.736 -384.444)"/><path class="a" d="M490.409,388.5c-4.806,5.153-33.934,35.12-41.4,22.443-6.638-11.271,35.97-19.7,41.952-21.162,2.141-.52,1.621-3.715-.509-3.768-11.533-.294-64.273,6.916-49.03,29.437,5.761,8.516,16.734,7.74,24.935,3.678,12.195-6.034,20.17-17.127,26.394-28.818.771-1.448-1.144-3.091-2.34-1.81Z" transform="translate(-438.678 -386.005)"/></g><path class="b" d="M467.365,394.576A10.374,10.374,0,1,1,456.991,384.2,10.373,10.373,0,0,1,467.365,394.576Z" transform="translate(-404.96 -340.68)"/></g><g transform="translate(379.837 261)"><g transform="translate(252.246)"><path class="a" d="M500.046,268.2l-39.349-7.01a12.1,12.1,0,0,0-13.989,9.755L428.1,375.378a12.1,12.1,0,0,0,9.76,13.989l39.349,7.01a12.091,12.091,0,0,0,13.989-9.754l18.612-104.436A12.1,12.1,0,0,0,500.046,268.2Z" transform="translate(-427.909 -261)"/></g><g transform="translate(195.239 115.34)"><path class="c" d="M483.805,282.981l-66.76,342.691,55.245,9.845,55.729-344.657Z" transform="translate(-417.045 -282.981)"/></g><g transform="translate(0 453.697)"><path class="a" d="M522.88,804.625c-79.065-14.089-156.3-62.054-141.119-147.238S465.177,557,472.995,513.135s-17.158-49.9-8.8-96.827c9.818-55.091,71.231-77.822,139.582-65.643s118.131,54.729,108.314,109.819c-8.364,46.926-33.887,43.962-41.705,87.823s50.966,81.71,35.786,166.889S601.94,818.718,522.88,804.625Z" transform="translate(-379.837 -347.464)"/></g><g transform="translate(122.288 528.261)"><g transform="translate(3.297 30.425)"><g transform="translate(6.567 6.979)"><path class="c" d="M471.224,412.882a143.656,143.656,0,0,1-39.638-6.271c-12.677-3.888-26.8-12.467-26.562-25.727a13.028,13.028,0,0,1,3.064-8.5c6.155-6.8,17.4-2.723,25.045,2.34a175.379,175.379,0,0,1,39.234,35.645" transform="translate(-405.022 -368.803)"/></g><path class="c" d="M477.112,416.458c-8.983-1.49-73.9-15.537-57.714-32.906,10.993-11.806,48.185,27.013,56.329,34.417,2.246,2.041,6.066-.572,4.345-3.348-9.062-14.635-56.125-69.269-73.834-37.25-6.549,11.838.944,25.124,10.746,32.187,17.022,12.257,39.548,13.05,59.556,11.124,2.209-.215,3.159-3.8.572-4.224Z" transform="translate(-403.771 -367.472)"/></g><g transform="translate(50.474)"><g transform="translate(6.245 6.378)"><path class="c" d="M433.3,437.995a143.53,143.53,0,0,1-16.817-36.437c-3.815-12.7-4.533-29.211,6.622-36.384A13,13,0,0,1,431.877,363c9.067,1.338,11.932,12.95,11.969,22.117a175.138,175.138,0,0,1-7.823,52.431" transform="translate(-413.952 -362.89)"/></g><path class="c" d="M440.212,442.071c-4.7-10.384-8.165-21.225-11.491-32.118-1.732-5.672-8.223-29.747,1.034-32.6q5.974,1.929,11.943,3.852a31.44,31.44,0,0,1,1.38,9.078c.4,5.274-.157,10.683-.4,15.946-.562,12.126-2.33,23.759-4.266,35.744-.451,2.8,3.7,5.258,5.058,2.136,6.486-14.944,26.966-89.471-11.943-81.894-15.028,2.928-19.782,19.095-18.591,32.4,1.726,19.221,12,35.5,23.9,50.064,1.663,2.031,4.308-.562,3.379-2.608Z" transform="translate(-412.762 -361.674)"/></g><g transform="translate(73.896 23.389)"><g transform="translate(2.171 7.658)"><path class="c" d="M417.639,418.027a143.415,143.415,0,0,1,20.942-34.233c8.443-10.232,21.766-20.008,33.929-14.719a12.985,12.985,0,0,1,6.68,6.082c3.93,8.285-4.13,17.122-11.733,22.248a175.248,175.248,0,0,1-47.928,22.637" transform="translate(-417.639 -367.591)"/></g><path class="c" d="M421.253,425.312c6.113-9.9,13.386-19.011,20.727-28.02,5.6-6.869,15.584-18.607,25.57-16.943,22.668,3.767-11.932,25.029-16.308,27.643-10.2,6.092-20.627,10.8-31.352,15.862-3.049,1.438-.724,5.525,2.13,5.053,18.685-3.075,39.312-11.281,54.2-23.229,10.3-8.259,17.641-23.282,5.247-33.409-29.862-24.4-57.861,30.471-64.148,51.386-.713,2.377,2.666,3.7,3.93,1.658Z" transform="translate(-417.225 -366.132)"/></g><g transform="translate(72.418 76.389)"><g transform="translate(2.568 4.627)"><path class="c" d="M418.3,377.7a143.391,143.391,0,0,1,40.078,2c13.024,2.508,27.984,9.529,29.164,22.736a12.994,12.994,0,0,1-2.141,8.779c-5.394,7.42-17.006,4.57-25.15.351a175.164,175.164,0,0,1-42.817-31.247" transform="translate(-417.433 -377.114)"/></g><path class="c" d="M420.377,383.6a228.741,228.741,0,0,1,38.494,5.6,53.473,53.473,0,0,1,12.63,4.287,29.176,29.176,0,0,1,7.5,5.279q7.281,5.336.315,10.18c-5.541,7.351-11.124,2.8-18.355-.882-4.3-2.193-8.411-4.786-12.557-7.257-9.718-5.793-18.413-12.4-27.5-19.131-2.739-2.02-5.127,2.109-3.353,4.345,10.08,12.709,67.616,65.034,77.906,26.457,3.752-14.063-7.373-25.318-19.111-30.5-18-7.95-37.775-6.485-56.544-2.608-2.482.509-1.748,4.093.572,4.224Z" transform="translate(-416.944 -376.232)"/></g><g transform="translate(56.501 75.256)"><g transform="translate(5.76 2.418)"><path class="c" d="M425.859,376.477a143.213,143.213,0,0,1,16.607,36.531c3.741,12.725,4.366,29.238-6.832,36.342a12.977,12.977,0,0,1-8.784,2.125c-9.062-1.39-11.859-13.018-11.843-22.185a175.126,175.126,0,0,1,8.128-52.383" transform="translate(-415.008 -376.477)"/></g><path class="c" d="M428.669,379.52c4.644,10.416,8.039,21.288,11.3,32.2,1.7,5.677,8.039,29.82-1.254,32.591q-5.958-1.991-11.906-3.983a31.068,31.068,0,0,1-1.317-9.083c-.362-5.279.22-10.683.493-15.941.63-12.121,2.472-23.733,4.476-35.707.472-2.807-3.684-5.237-5.053-2.13-6.575,14.892-27.469,89.381,11.507,81.941,15.007-2.865,19.866-19.021,18.743-32.323-1.627-19.226-11.8-35.55-23.618-50.174-1.653-2.052-4.287.567-3.374,2.608Z" transform="translate(-413.91 -376.016)"/></g><g transform="translate(0 76.36)"><g transform="translate(7.019 2.778)"><path class="c" d="M473.527,379.1a143.272,143.272,0,0,1-27.207,29.5c-10.264,8.4-25.239,15.385-36.138,7.829a13.021,13.021,0,0,1-5.373-7.262c-2.241-8.894,7.388-15.989,15.842-19.541a175.2,175.2,0,0,1,51.423-12.871" transform="translate(-404.48 -376.756)"/></g><path class="c" d="M477.687,379.828c-6.921,7.42-48.9,50.61-59.661,32.339-9.566-16.24,51.843-28.388,60.464-30.5,3.085-.75,2.335-5.352-.735-5.431-16.618-.42-92.63,9.97-70.659,42.429,8.3,12.268,24.116,11.145,35.933,5.3,17.573-8.7,29.064-24.688,38.037-41.532,1.112-2.088-1.653-4.46-3.379-2.608Z" transform="translate(-403.143 -376.227)"/></g><g transform="translate(60.036 62.724)"><path class="c" d="M444.483,388.577a14.949,14.949,0,1,1-14.949-14.949A14.953,14.953,0,0,1,444.483,388.577Z" transform="translate(-414.584 -373.628)"/></g></g><g transform="translate(8.399 462.379)"><path class="c" d="M567.993,793.651a5.664,5.664,0,0,1,0-11.329v5.667l.031-5.667h.026a5.739,5.739,0,0,1,5.74,5.452,5.6,5.6,0,0,1-5.174,5.856C568.486,793.64,568.129,793.651,567.993,793.651Zm-17-.352c-.147,0-.509-.016-.661-.026a5.669,5.669,0,0,1-5.211-6.082,5.6,5.6,0,0,1,6.087-5.21l-.441,5.646.462-5.646a5.737,5.737,0,0,1,5.336,5.856A5.591,5.591,0,0,1,550.992,793.3Zm34.2-.63a5.662,5.662,0,0,1-.43-11.308l.435,5.646-.4-5.646a5.722,5.722,0,0,1,6.171,5,5.606,5.606,0,0,1-4.743,6.234c-.121.016-.467.047-.588.058C585.487,792.664,585.335,792.669,585.193,792.669Zm-51.365-.9c-.136,0-.268-.005-.409-.016s-.525-.052-.677-.073a5.665,5.665,0,0,1,1.726-11.2l-.866,5.6.887-5.588a5.723,5.723,0,0,1,4.875,6.223A5.588,5.588,0,0,1,533.828,791.767Zm68.618-1.658a5.745,5.745,0,0,1-5.662-4.6,5.567,5.567,0,0,1,4.182-6.533c.157-.037.535-.11.693-.131a5.664,5.664,0,1,1,1.605,11.213A6.258,6.258,0,0,1,602.446,790.109Zm-85.646-.95a5.526,5.526,0,0,1-1.2-.126,5.763,5.763,0,0,1-4.492-6.58,5.545,5.545,0,0,1,6.323-4.591c.105.016.436.079.546.1a5.662,5.662,0,0,1-1.181,11.2Zm-16.859-3.652a5.585,5.585,0,0,1-1.663-.247,5.757,5.757,0,0,1-3.909-6.911A5.609,5.609,0,0,1,501,774.272c.131.031.477.121.609.163a5.661,5.661,0,0,1-1.669,11.072Zm120.975-.037-2-5.305-1.574-5.441a5.663,5.663,0,0,1,3.579,10.746Zm-137.551-4.691a5.751,5.751,0,0,1-5.5-7.42,5.575,5.575,0,0,1,6.953-3.72c.047.016.294.094.336.11a5.66,5.66,0,0,1-1.789,11.03Zm151.661-1.469a5.692,5.692,0,0,1-5.111-3.091,5.569,5.569,0,0,1,2.435-7.546l.2-.1a5.661,5.661,0,1,1,5.063,10.127A5.742,5.742,0,0,1,635.026,779.31Zm-167.865-4.4a5.755,5.755,0,0,1-2.025-.373l1.831-5.373,2.178-5.226-2.178,5.226,2.246-5.195a5.668,5.668,0,0,1-2.052,10.941Zm182.588-4.45a5.63,5.63,0,0,1-4.586-2.288,5.571,5.571,0,0,1,1.16-7.845l.184-.131a5.661,5.661,0,0,1,6.659,9.156A5.8,5.8,0,0,1,649.75,770.458Zm-198.262-2.7a5.657,5.657,0,0,1-2.524-.6,5.767,5.767,0,0,1-2.634-7.65,5.586,5.586,0,0,1,7.5-2.582l.2.1a5.664,5.664,0,0,1-2.54,10.731ZM662.5,759.412a5.715,5.715,0,0,1-4.14-9.639c.136-.147.43-.446.577-.577a5.662,5.662,0,1,1,7.577,8.417A5.342,5.342,0,0,1,662.5,759.412Zm-225.946-.231a5.677,5.677,0,0,1-3.138-.95,5.761,5.761,0,0,1-1.695-7.866,5.576,5.576,0,0,1,7.692-1.747l.289.189a5.662,5.662,0,0,1-3.148,10.374Zm-13.716-10.143a5.905,5.905,0,0,1-3.495-1.128c-.157-.115-.483-.378-.63-.514a5.662,5.662,0,0,1,7.577-8.417l-3.788,4.208,3.8-4.2a5.5,5.5,0,0,1,1.1,7.792A5.59,5.59,0,0,1,422.833,749.039ZM678,742.553l-5.011-2.666-4.749-3.085a5.726,5.726,0,0,1,7.755-1.9A5.616,5.616,0,0,1,678,742.553Zm-267.714-5.51a5.639,5.639,0,0,1-4.208-1.873,5.768,5.768,0,0,1,.341-8.081,5.57,5.57,0,0,1,7.929.341l.147.163a5.662,5.662,0,0,1-4.208,9.45Zm275.674-11.03-5.447-1.58-5.263-2.088a5.687,5.687,0,0,1,7.21-3.406A5.607,5.607,0,0,1,685.956,726.014Zm-285.964-2.75a5.677,5.677,0,0,1-4.9-2.807,5.755,5.755,0,0,1,1.894-7.782,5.548,5.548,0,0,1,7.661,1.7l.231.373a5.655,5.655,0,0,1-4.885,8.516Zm285.193-9.723a5.651,5.651,0,0,1-5.525-6.932l5.52,1.27-5.515-1.3a5.742,5.742,0,0,1,6.57-4.4,5.59,5.59,0,0,1,4.6,6.281c-.026.163-.1.535-.136.693A5.664,5.664,0,0,1,685.184,713.541Zm-292.744-5.709a5.662,5.662,0,0,1-5.368-3.872,5.759,5.759,0,0,1,3.416-7.226,5.585,5.585,0,0,1,7.163,3.19c.026.084.136.373.162.451a5.669,5.669,0,0,1-5.373,7.456ZM388.112,691.2a5.66,5.66,0,0,1-5.6-4.859,5.76,5.76,0,0,1,4.759-6.517,5.564,5.564,0,0,1,6.407,4.628l.047.283a5.664,5.664,0,0,1-4.806,6.407A5.28,5.28,0,0,1,388.112,691.2ZM693.15,691l-5.662-.184-5.63-.625a5.555,5.555,0,0,1,6.05-5.242A5.651,5.651,0,0,1,693.15,691Zm-5.483-11.854a5.558,5.558,0,0,1-5.63-5.111c-.011-.152-.026-.514-.026-.661a5.662,5.662,0,1,1,11.323,0,5.754,5.754,0,0,1-5.441,5.767C687.813,679.145,687.74,679.145,687.666,679.145ZM387.1,674.04q-.2,0-.409-.016a5.662,5.662,0,0,1-5.242-6.05,5.768,5.768,0,0,1,5.656-5.373c.063,0,.131,0,.194.005a5.569,5.569,0,0,1,5.468,5.546c0,.136-.016.493-.026.63A5.663,5.663,0,0,1,387.1,674.04Zm298.432-11.974a5.526,5.526,0,0,1-5.447-4.287c-.031-.152-.11-.53-.131-.687a5.664,5.664,0,1,1,11.213-1.606,5.767,5.767,0,0,1-4.544,6.48A5.938,5.938,0,0,1,685.536,662.065Zm-296.511-5.221a5.484,5.484,0,0,1-1-.094,5.582,5.582,0,0,1-4.591-6.281c.021-.157.1-.535.131-.693a5.662,5.662,0,0,1,11.035,2.545l-5.515-1.27,5.51,1.3A5.772,5.772,0,0,1,389.025,656.844ZM675.944,641.48l5.41-1.668-5.441,1.579a5.663,5.663,0,0,1,10.746-3.579l-5.3,2Zm-282.737-1.259a5.668,5.668,0,0,1-5.373-7.451,5.762,5.762,0,0,1,7.131-3.7,5.559,5.559,0,0,1,3.72,6.948c-.016.047-.094.294-.11.341A5.657,5.657,0,0,1,393.207,640.221Zm276.9-14.367,5.226-2.178-5.247,2.13a5.712,5.712,0,0,1,2.881-7.456,5.62,5.62,0,0,1,7.42,2.75l-5.053,2.576ZM399.4,624.086a5.5,5.5,0,0,1-2.214-.462,5.593,5.593,0,0,1-3.049-7.142c.063-.168.231-.535.315-.7a5.665,5.665,0,0,1,10.132,5.069l-5.069-2.534,5.053,2.55A5.8,5.8,0,0,1,399.4,624.086Zm268.659-10.5a5.5,5.5,0,0,1-4.948-3.054c-.058-.115-.2-.43-.257-.551a5.663,5.663,0,0,1,10.453-4.361,5.766,5.766,0,0,1-2.818,7.43A5.912,5.912,0,0,1,668.057,613.586ZM407.71,609.094a5.664,5.664,0,0,1-4.707-8.8,5.771,5.771,0,0,1,7.865-1.695,5.573,5.573,0,0,1,1.747,7.692l-.189.289A5.652,5.652,0,0,1,407.71,609.094Zm252.9-11.051A5.5,5.5,0,0,1,655.663,595c-.084-.168-.247-.535-.315-.7a5.665,5.665,0,0,1,10.573-4.072,5.706,5.706,0,0,1-5.31,7.824ZM417.8,595.357a5.725,5.725,0,0,1-4.549-9.193c.115-.163.383-.488.514-.63a5.662,5.662,0,1,1,8.417,7.577l-4.208-3.789,4.2,3.8A5.351,5.351,0,0,1,417.8,595.357Zm11.507-13.05a5.659,5.659,0,0,1-3.783-9.87,5.51,5.51,0,0,1,7.86-.294,5.819,5.819,0,0,1,.289,8.128,7.517,7.517,0,0,1-.577.583A5.627,5.627,0,0,1,429.308,582.307Zm224.677-.168A5.513,5.513,0,0,1,648.8,578.6c-.026-.084-.136-.367-.157-.451a5.659,5.659,0,1,1,10.736-3.584,5.754,5.754,0,0,1-3.416,7.225A5.96,5.96,0,0,1,653.984,582.139Zm-212.5-11.754a5.761,5.761,0,0,1-3.862-1.521,5.825,5.825,0,0,1-.278-8.133c.131-.147.43-.441.577-.577a5.664,5.664,0,0,1,7.577,8.422l-3.789-4.213,3.773,4.229A5.349,5.349,0,0,1,441.487,570.385Zm208.143-4.9a5.541,5.541,0,0,1-5.536-4.691l-.042-.283a5.664,5.664,0,1,1,11.213-1.606,5.763,5.763,0,0,1-4.759,6.517A6.206,6.206,0,0,1,649.629,565.485Zm-195.785-7.372a5.664,5.664,0,0,1-3.783-9.875,5.5,5.5,0,0,1,7.861-.289,5.819,5.819,0,0,1,.289,8.128c-.131.147-.425.446-.577.577A5.634,5.634,0,0,1,453.844,558.112Zm11.444-12.877a5.662,5.662,0,0,1-4.208-9.45,5.485,5.485,0,0,1,7.792-1.113,5.814,5.814,0,0,1,1.133,8.055c-.115.157-.378.493-.509.635A5.639,5.639,0,0,1,465.288,545.235Zm189.609-2.3-11.318-.619.032-.3a5.733,5.733,0,0,1,6.155-5.064A5.613,5.613,0,0,1,654.9,542.937Zm-2.067-11.46a5.5,5.5,0,0,1-1.611-.241,5.568,5.568,0,0,1-3.783-6.968l.068-.215a5.662,5.662,0,1,1,10.825,3.327A5.822,5.822,0,0,1,652.83,531.477Zm-178.3-.74a5.661,5.661,0,0,1-5.058-8.2,5.769,5.769,0,0,1,7.645-2.634,5.568,5.568,0,0,1,2.582,7.5l-.1.2A5.658,5.658,0,0,1,474.529,530.737Zm184.8-15.185a5.619,5.619,0,0,1-5.043-8.075c.052-.11.215-.415.273-.52a5.667,5.667,0,1,1,9.791,5.709A5.854,5.854,0,0,1,659.331,515.552Zm-179.377-1.107a5.52,5.52,0,0,1-1.2-.126,5.654,5.654,0,0,1-4.345-6.727l.047-.226a5.948,5.948,0,0,1,.1-.656,5.777,5.777,0,0,1,6.58-4.492,5.567,5.567,0,0,1,4.591,6.323c-.016.1-.079.436-.1.546l-.026.115c-.005.073-.016.152-.026.22-.021.1-.079.441-.1.551A5.667,5.667,0,0,1,479.954,514.445Zm188.79-13.312a5.624,5.624,0,0,1-4.581-8.873c.047-.068.236-.315.289-.388a5.665,5.665,0,0,1,8.847,7.078A5.861,5.861,0,0,1,668.745,501.132Zm-187.012-4.707a5.661,5.661,0,0,1-5.662-5.662,5.757,5.757,0,0,1,5.662-5.777,5.565,5.565,0,0,1,5.662,5.552v.226A5.658,5.658,0,0,1,481.733,496.426Zm197.5-8.826a5.665,5.665,0,0,1-4.576-8.994l4.581,3.332-4.56-3.363a5.733,5.733,0,0,1,7.818-1.448,5.6,5.6,0,0,1,1.648,7.672c-.063.094-.257.372-.331.467A5.631,5.631,0,0,1,679.234,487.6Zm-199.012-8.306a5.66,5.66,0,0,1-5.6-4.859,5.772,5.772,0,0,1,4.544-6.486,5.588,5.588,0,0,1,6.538,4.187c.031.157.11.53.131.693a5.664,5.664,0,0,1-4.807,6.407A5.213,5.213,0,0,1,480.222,479.293Zm212.534-10.94-5.447-1.58-5.263-2.083a5.7,5.7,0,0,1,7.21-3.411A5.607,5.607,0,0,1,692.756,468.353Zm-217.1-5.762a5.526,5.526,0,0,1-5.142-3.411c-.073-.168-.2-.546-.262-.724a5.665,5.665,0,1,1,10.83-3.327l-5.415,1.663,5.42-1.643a5.748,5.748,0,0,1-3.442,7.094A5.862,5.862,0,0,1,475.651,462.591Zm215.987-6.911a5.29,5.29,0,0,1-.992-.089,5.572,5.572,0,0,1-4.591-6.323c.016-.1.079-.435.1-.546a5.662,5.662,0,0,1,11.072,2.377A5.8,5.8,0,0,1,691.639,455.681Zm-220.7-9.55a5.665,5.665,0,0,1-5.6-4.859,5.776,5.776,0,0,1,4.549-6.485,5.6,5.6,0,0,1,6.533,4.187c.037.157.11.53.136.693a5.664,5.664,0,0,1-4.807,6.407A5.32,5.32,0,0,1,470.94,446.131Zm221.14-7.608a5.541,5.541,0,0,1-5.546-4.691c-.021-.152-.068-.525-.079-.682a5.662,5.662,0,0,1,5.242-6.05,5.586,5.586,0,0,1,6.05,5.247,5.669,5.669,0,0,1-5.667,6.176Zm-222.294-9.629-.2-.005a5.591,5.591,0,0,1-5.462-5.573c0-.147.016-.509.026-.661a5.663,5.663,0,1,1,11.292.876L469.8,423.1l5.646.456A5.748,5.748,0,0,1,469.785,428.894Zm212.671-10.3,5.226-2.183-5.247,2.13a5.7,5.7,0,0,1,2.881-7.451,5.609,5.609,0,0,1,7.419,2.744l-5.053,2.576Zm-204.6-10.83-10.888-3.112a5.748,5.748,0,0,1,7.115-3.857A5.566,5.566,0,0,1,477.861,407.763Zm201.006-.425A5.631,5.631,0,0,1,674.286,405l4.575-3.327-4.591,3.311a5.484,5.484,0,0,1,.546-7.845,5.81,5.81,0,0,1,8.117.567c.131.147.394.478.509.635a5.665,5.665,0,0,1-4.576,8.994ZM479.083,396.125a5.65,5.65,0,0,1-4.88-8.459l5.006,2.666,4.754,3.085A5.77,5.77,0,0,1,479.083,396.125Zm187.862-1.2a5.673,5.673,0,0,1-3.789-1.453l3.789-4.208-3.8,4.2a5.494,5.494,0,0,1-1.1-7.792,5.809,5.809,0,0,1,8.06-1.128c.157.115.488.383.63.514a5.662,5.662,0,0,1-3.789,9.87Zm-16.938-11.04,3.043-4.78-3.085,4.749a5.71,5.71,0,0,1-1.9-7.755,5.629,5.629,0,0,1,7.656-2L653.05,379.1Zm-159.947-.892a5.662,5.662,0,0,1-3.789-9.87,5.763,5.763,0,0,1,8.081.341,5.577,5.577,0,0,1-.336,7.923l-.168.152A5.663,5.663,0,0,1,490.06,382.991Zm147.82-6.407a5.673,5.673,0,0,1-2.529-.593l2.534-5.069-2.55,5.058a5.745,5.745,0,0,1-2.76-7.388,5.585,5.585,0,0,1,7.141-3.049c.163.068.535.231.7.315a5.662,5.662,0,0,1-2.54,10.725Zm-133.653-3.537a5.667,5.667,0,0,1-5.006-2.928,5.6,5.6,0,0,1,2.052-7.561c.1-.063.409-.22.52-.278a5.665,5.665,0,0,1,5.069,10.132l-2.534-5.064,2.508,5.079A5.789,5.789,0,0,1,504.228,373.047Zm117.643-2.886a5.737,5.737,0,0,1-1.637-.247c-.178-.058-.551-.189-.724-.262a5.662,5.662,0,1,1,4.355-10.453,5.755,5.755,0,0,1,3.253,7.183A5.607,5.607,0,0,1,621.871,370.161Zm-101.865-3.778a5.658,5.658,0,0,1-1.826-11.019l2,5.3,1.574,5.441A5.684,5.684,0,0,1,520.006,366.383Zm85.336-1.028a5.79,5.79,0,0,1-1.259-.142l-.215-.052a5.662,5.662,0,1,1,2.54-11.035,5.759,5.759,0,0,1,4.355,6.816A5.592,5.592,0,0,1,605.342,365.355Zm-68.5-3.049a5.718,5.718,0,0,1-5.63-4.607,5.592,5.592,0,0,1,4.3-6.559l1.412,5.494.829,5.6A5.938,5.938,0,0,1,536.839,362.306Zm50.73-.268.861-5.6-1.023,5.578a5.666,5.666,0,0,1,1.606-11.219l-.583,5.641Zm-33.734-1.59a5.662,5.662,0,0,1,0-11.324,5.762,5.762,0,0,1,5.772,5.442,5.566,5.566,0,0,1-5.111,5.856C554.345,360.433,553.983,360.449,553.836,360.449Zm17.458-.005q-.213,0-.441-.016l.435-5.646-.456,5.646a5.665,5.665,0,1,1,.9-11.292,5.662,5.662,0,0,1-.436,11.308Z" transform="translate(-381.438 -349.119)"/></g><g transform="translate(105.905 771.489)"><rect class="b" width="25.636" height="112.661" transform="translate(0 25.238) rotate(-79.896)"/></g><g transform="translate(166.076 569.71)"><path class="b" d="M437.915,433.167a32.044,32.044,0,1,1,37.171-25.921A32.046,32.046,0,0,1,437.915,433.167Z" transform="translate(-411.487 -369.573)"/></g><g transform="translate(135.938 36.197)"><g transform="translate(52.014 7.283)"><rect class="b" width="765.214" height="4.249" transform="translate(0 754.868) rotate(-80.568)"/></g><g transform="translate(39.529 36.57)"><rect class="b" width="733.942" height="4.247" transform="translate(0 723.351) rotate(-80.255)"/></g><rect class="b" width="766.448" height="4.245" transform="translate(0 752.834) rotate(-79.185)"/><g transform="translate(11.972 32.395)"><rect class="b" width="734.868" height="4.252" transform="matrix(0.182, -0.983, 0.983, 0.182, 0, 722.589)"/></g><g transform="translate(26.16 67.762)"><rect class="b" width="700.512" height="4.246" transform="translate(0 689.763) rotate(-79.95)"/></g></g><g transform="translate(235.353 20.127)"><g transform="translate(82.107 16.137)"><g transform="translate(0 66.758)"><path class="b" d="M460.371,282.02l-7.778-1.386-1.389,7.795-9.851-1.755-1.016,5.7,9.851,1.755-1.389,7.794,7.777,1.386Z" transform="translate(-440.337 -280.634)"/></g><g transform="translate(5.949 33.38)"><path class="b" d="M461.5,275.659l-7.777-1.386-1.388,7.792-9.851-1.756-1.016,5.7,9.85,1.756-1.389,7.794,7.778,1.386Z" transform="translate(-441.471 -274.273)"/></g><g transform="translate(11.897)"><path class="b" d="M462.637,269.3l-7.777-1.386-1.388,7.794-9.851-1.756-1.016,5.7,9.85,1.756-1.388,7.793,7.777,1.386Z" transform="translate(-442.605 -267.911)"/></g></g><g transform="translate(11.896)"><path class="b" d="M426.957,286.124l7.778,1.386,1.389-7.794,9.851,1.756,1.016-5.7-9.851-1.755,1.388-7.792-7.777-1.386Z" transform="translate(-426.957 -264.836)"/></g><g transform="translate(5.948 33.379)"><path class="b" d="M425.823,292.485l7.777,1.386,1.389-7.793,9.851,1.755,1.016-5.7-9.852-1.756,1.389-7.794-7.777-1.386Z" transform="translate(-425.823 -271.197)"/></g><g transform="translate(0 66.76)"><path class="b" d="M424.69,298.846l7.777,1.386,1.389-7.792,9.851,1.756,1.016-5.7-9.851-1.755,1.389-7.793-7.778-1.386Z" transform="translate(-424.69 -277.559)"/></g></g><g transform="translate(279.573 64.745)"><path class="d" d="M441.526,278.323a4.238,4.238,0,1,1-3.427-4.917A4.236,4.236,0,0,1,441.526,278.323Z" transform="translate(-433.117 -273.339)"/></g><g transform="translate(297.372 67.916)"><path class="d" d="M444.924,278.926a4.24,4.24,0,1,1-3.432-4.917A4.242,4.242,0,0,1,444.924,278.926Z" transform="translate(-436.509 -273.943)"/></g><g transform="translate(282.522 100.15)"><path class="d" d="M442.089,285.069a4.237,4.237,0,1,1-3.427-4.917A4.239,4.239,0,0,1,442.089,285.069Z" transform="translate(-433.679 -280.086)"/></g><g transform="translate(277.091 32.266)"><path class="d" d="M441.058,272.132a4.24,4.24,0,1,1-3.432-4.917A4.234,4.234,0,0,1,441.058,272.132Z" transform="translate(-432.644 -267.149)"/></g><g transform="translate(311.728 38.437)"><path class="d" d="M447.66,273.308a4.24,4.24,0,1,1-3.432-4.917A4.245,4.245,0,0,1,447.66,273.308Z" transform="translate(-439.245 -268.325)"/></g><g transform="translate(222.087 662.451)"><g transform="translate(8.056)"><g transform="translate(1.525 1.975)"><path class="c" d="M423.988,387.771a77.811,77.811,0,0,1,10.51,26.771c1.454,7.651,1.748,15.5,3.332,23.119a69.665,69.665,0,0,0,7.215,19.509c2.618,4.749,6.675,9.671,12.095,9.634a10.126,10.126,0,0,0,5.751-1.989c4.822-3.437,6.58-10.007,5.809-15.883s-3.642-11.235-6.538-16.4c-9.692-17.279-20.884-34.695-37.854-44.911" transform="translate(-423.988 -387.624)"/></g><path class="c" d="M424.593,389.736c7.335,15.254,9.288,27.181,11.507,43.773,1.212,9.046,3.269,18.586,8,26.535,4.749,7.991,12.924,14.656,21.86,8.2,12.084-8.721,5.21-25.266-.331-35.419-9.8-17.972-21.54-34.27-39.113-45.268-2.12-1.328-3.967,1.936-1.941,3.322,12.173,8.333,21.109,19.336,28.97,31.688,2.66,4.182,5.268,8.5,7.619,12.872a64.908,64.908,0,0,1,5.342,11.465q-14.27,20.488-19.263,8.285c-8.532-7.834-7.561-28.792-9.949-39.48A73.877,73.877,0,0,0,425.852,389a.729.729,0,0,0-1.259.734Z" transform="translate(-423.697 -387.248)"/></g><g transform="translate(0 21.374)"><g transform="translate(1.212 0.514)"><path class="c" d="M429.11,391.828a49.41,49.41,0,0,0-6.664,20.317c-.178,1.826.021,4.135,1.731,4.817a3.074,3.074,0,0,0,3.526-1.5,8.739,8.739,0,0,0,.929-4.02,194.594,194.594,0,0,0,.241-20.023" transform="translate(-422.393 -391.419)"/></g><path class="c" d="M429.692,392.013a51.859,51.859,0,0,0-7.189,18.449c-.451,2.608-.976,6.811,2.172,8.055,9.681,3.831,6.04-23.329,5.714-26.682a.533.533,0,0,0-1.065,0c-.105,3.678-.367,7.341-.53,11.014-.079,1.668-.1,3.337-.178,5.006-.01.273-.131,10.075-3.983,5.846-1.155-1.265.96-8.076,1.37-9.7a52.518,52.518,0,0,1,4.491-11.518.465.465,0,0,0-.8-.467Z" transform="translate(-422.162 -391.321)"/></g><g transform="translate(6.323 50.451)"><g transform="translate(1.391 0.449)"><path class="c" d="M430.023,396.948c-3.122,4.686-6.354,9.728-6.391,15.353a5.7,5.7,0,0,0,.8,3.316,2.611,2.611,0,0,0,3.017,1.076c1.138-.488,1.553-1.868,1.794-3.091a63,63,0,0,0,1.065-16.639" transform="translate(-423.632 -396.948)"/></g><path class="c" d="M430.818,396.981c-3.416,3.022-12.058,18.255-4.334,21.089,7.52,2.76,6.412-17.615,5.336-20.853-.121-.346-.682-.4-.771,0-.535,2.545-.32,5.121-.488,7.708-.126,1.931-.341,3.867-.646,5.777-.162,1-.351,1.994-.561,2.986q-.055,2.1-1.889-.047c-2.356-1.39-1.774-2.492-1.086-5.132a23.514,23.514,0,0,1,1.784-4.586c1.086-2.2,2.655-4.167,3.432-6.491.157-.467-.451-.74-.777-.451Z" transform="translate(-423.367 -396.862)"/></g><g transform="translate(19.017 72.152)"><g transform="translate(1.411 1.107)"><path class="c" d="M427.808,401.828a41.235,41.235,0,0,0-1.218,18.512,5.822,5.822,0,0,0,.945,2.687,2.2,2.2,0,0,0,2.54.8,2.889,2.889,0,0,0,1.3-1.92c1.039-3.626.236-7.493-.577-11.177l-2.094-9.524" transform="translate(-426.055 -401.209)"/></g><path class="c" d="M428.378,402.393c-2.75,4.156-2.771,10.92-2.456,15.747.184,2.844.388,7.845,4.172,8.285,8.957,1.029,1.868-21.3.845-24.62a1.131,1.131,0,0,0-2.177.6c.4,2.965,1.05,5.872,1.647,8.8.257,1.233,2.6,11.5-1.243,9.634-1.055-.514-.64-7.714-.583-8.931.157-3.091,1.144-6.113,1.034-9.188a.669.669,0,0,0-1.238-.331Z" transform="translate(-425.786 -400.998)"/></g><g transform="translate(26.848 8.705)"><g transform="translate(1.052 1.109)"><path class="c" d="M428.224,391.574c2.681.283,4.922,2.062,7.1,3.636s4.733,3.075,7.4,2.7a2.662,2.662,0,0,0,1.154-.4,2.935,2.935,0,0,0,.934-2.629,5.836,5.836,0,0,0-2.555-4.807,7.291,7.291,0,0,0-2.86-.8,23.341,23.341,0,0,0-11.927,1.768" transform="translate(-427.479 -389.118)"/></g><path class="c" d="M428.9,393.111c4.754,1.091,7.566,5.814,12.431,6.664,3.059.53,5.431-.677,5.4-4-.079-9.393-13.186-7.126-18.707-4.927-1.338.535-.74,2.723.6,2.177a24.006,24.006,0,0,1,7.976-1.9,16.593,16.593,0,0,1,4.355.22,3.905,3.905,0,0,1,3.348,2.844,1.6,1.6,0,0,1-.777,2.6c-1.821,1.7-3.4.53-5.357-.614-1.008-.582-1.957-1.265-2.938-1.889a14.606,14.606,0,0,0-5.982-2.451c-.819-.121-1.207,1.081-.351,1.28Z" transform="translate(-427.278 -388.907)"/></g></g><g transform="translate(74.836 657.057)"><g transform="translate(2.896 1.959)"><path class="c" d="M454.589,386.813a77.809,77.809,0,0,0-16.817,23.329c-3.306,7.052-5.531,14.582-8.957,21.577a69.88,69.88,0,0,1-11.827,17.111c-3.715,3.946-8.863,7.713-14.1,6.333a10.135,10.135,0,0,1-5.079-3.353c-3.82-4.529-3.893-11.329-1.69-16.828s6.313-9.98,10.4-14.267c13.674-14.335,28.834-28.43,47.8-34.123" transform="translate(-394.651 -386.593)"/></g><path class="c" d="M456.419,387.885a71.419,71.419,0,0,0-17.7,23.03c-4.875,9.718-9.193,30.854-19.761,36.18q-3.573,5.242-10.395-1-12.829,1.22-7.435-7.351c.714-5.231,4.712-9.209,8.039-12.982,3.778-4.276,7.939-8.3,12.1-12.2,10.662-10.006,22.049-18.565,35.907-23.534,2.3-.824,1.37-4.46-1.023-3.71-18.438,5.772-32.863,17.447-46.17,31.085-8.579,8.8-22.715,24.437-12.069,37.3,8.5,10.269,19.882,1.784,26.294-6.181,5.651-7.026,9.251-14.954,12.473-23.3,5.415-14.036,11.15-24.73,20.774-36.311a.73.73,0,0,0-1.034-1.029Z" transform="translate(-394.099 -386.22)"/><g transform="translate(53.597 21.285)"><g transform="translate(1.13 0.513)"><path class="c" d="M409.236,390.715a49.348,49.348,0,0,1,1.422,21.33c-.278,1.816-1.049,4-2.87,4.24a3.065,3.065,0,0,1-3.043-2.33,8.717,8.717,0,0,1,.094-4.124,196.421,196.421,0,0,1,4.728-19.457" transform="translate(-404.529 -390.374)"/></g><path class="c" d="M409.7,391.251a52.182,52.182,0,0,1,1.485,11.36c.016,1.291.005,10.437-1.06,10.631l-3.2-2.671c.178-.987.373-1.968.572-2.949.331-1.637.708-3.264,1.055-4.9.834-3.925,1.553-7.876,2.435-11.791a.534.534,0,0,0-1.029-.283c-1.181,3.264-11.4,28.524-1.1,27.275,3.363-.409,3.909-4.6,4.119-7.241A51.891,51.891,0,0,0,410.6,391a.466.466,0,0,0-.9.247Z" transform="translate(-404.314 -390.276)"/></g><g transform="translate(41.968 47.867)"><g transform="translate(1.002 0.388)"><path class="c" d="M405.687,395.474c1.858,5.31,3.736,11,2.382,16.461a5.679,5.679,0,0,1-1.6,3.017,2.621,2.621,0,0,1-3.185.294c-.986-.761-1.044-2.2-.976-3.437a63.225,63.225,0,0,1,3.1-16.393" transform="translate(-402.288 -395.416)"/></g><path class="c" d="M406.031,395.787c.226,2.424,1.2,4.649,1.7,7.031a23.715,23.715,0,0,1,.619,5.3,14.93,14.93,0,0,1-.488,3.851q-3.928,3.1-3.694.625c-.745-2.272.588-7.026,1-9.2.478-2.566,1.333-5.048,1.448-7.661a.4.4,0,0,0-.745-.2c-2.713,4.2-3.28,10.29-3.689,15.2-.21,2.524-.273,6.124,3.1,6.318,8.947.52,3.94-17.925,1.616-21.5-.231-.352-.913-.252-.866.236Z" transform="translate(-402.097 -395.342)"/></g><g transform="translate(22.661 66.671)"><g transform="translate(1.743 1.083)"><path class="c" d="M407.187,399.95a41.241,41.241,0,0,1-3.406,18.24,5.784,5.784,0,0,1-1.585,2.366,2.2,2.2,0,0,1-2.66.147,2.9,2.9,0,0,1-.782-2.183c-.11-3.767,1.632-7.314,3.327-10.683l4.392-8.705" transform="translate(-398.75 -399.132)"/></g><path class="c" d="M407.958,400.654c-.871,2.949-.65,6.113-1.275,9.141a40.665,40.665,0,0,1-1.207,4.518,38.316,38.316,0,0,1-1.569,4c-.173,1.065-.609,1.16-1.3.273-2.917-1.312,5.289-15.631,6.359-18.281.493-1.218-1.417-1.921-2.062-.871-1.784,2.907-14.2,22.773-5.321,24.064,3.552.514,4.958-3.636,5.861-6.223,1.653-4.759,3.5-11.7,1.789-16.623a.669.669,0,0,0-1.281,0Z" transform="translate(-398.418 -398.925)"/></g><g transform="translate(23.735 1.112)"><g transform="translate(0.996 1.052)"><path class="c" d="M415.932,391.753c-2.666-.388-5.279.777-7.782,1.763s-5.352,1.8-7.839.777a2.734,2.734,0,0,1-1.023-.672,2.947,2.947,0,0,1-.252-2.781,5.84,5.84,0,0,1,3.668-4.019,7.35,7.35,0,0,1,2.97-.073,23.319,23.319,0,0,1,11.114,4.675" transform="translate(-398.813 -386.632)"/></g><path class="c" d="M416.738,391.938a14.6,14.6,0,0,0-6.4.892c-1.669.546-9.9,4.04-9.471-.855.367-4.224,5.935-3.416,8.579-2.639a23.7,23.7,0,0,1,7.582,3.914c1.16.866,2.3-1.1,1.138-1.952-4.88-3.568-16.177-8.721-19.178-.331-1.018,2.844.131,4.948,3.075,5.552,5.242,1.076,9.55-3.374,14.677-3.253.871.021.829-1.239,0-1.328Z" transform="translate(-398.623 -386.431)"/></g></g><g transform="translate(27.142 746.389)"><g transform="translate(21.182)"><g transform="translate(0.914 1.438)"><path class="c" d="M389.353,403.541l9.256,53.963" transform="translate(-388.66 -403.422)"/><path class="c" d="M398.472,457.722l-9.251-53.961,1.393-.243,9.252,53.96Z" transform="translate(-389.221 -403.518)"/></g><path class="c" d="M389.2,404.228c-.247,8.679,1.637,17.694,3.012,26.257,1.511,9.434,2.928,18.927,5.557,28.136.488,1.705,3.3,1.443,3.185-.43-.546-8.842-2.135-17.568-3.726-26.268-1.689-9.235-2.917-19.142-6.3-27.931a.884.884,0,0,0-1.726.236Z" transform="translate(-388.473 -402.671)"/><path class="c" d="M399.952,461.041a2.3,2.3,0,0,1-2.283-1.658c-2.44-8.516-3.857-17.389-5.226-25.979l-.351-2.241q-.362-2.227-.756-4.5c-1.217-7.2-2.471-14.645-2.267-21.886h0a1.53,1.53,0,0,1,1.275-1.511,1.642,1.642,0,0,1,1.816,1.044c2.755,7.136,4.093,14.991,5.389,22.589.315,1.842.625,3.663.955,5.468,1.569,8.595,3.185,17.468,3.731,26.352A2.117,2.117,0,0,1,400.392,461,3.119,3.119,0,0,1,399.952,461.041Zm-9.335-56.382c-.163,0-.121.005-.131.163v.005c-.2,7.094,1.044,14.472,2.251,21.6.252,1.516.509,3.017.745,4.513l.362,2.24c1.364,8.542,2.776,17.379,5.184,25.811a.941.941,0,0,0,1.118.614.736.736,0,0,0,.677-.8c-.541-8.8-2.151-17.631-3.71-26.179-.336-1.815-.646-3.647-.96-5.489-1.28-7.53-2.613-15.317-5.3-22.322A.243.243,0,0,0,390.617,404.659Z" transform="translate(-389.047 -403.244)"/></g><g transform="translate(28.353 26.34)"><g transform="translate(0.071 0.074)"><path class="e" d="M390.427,408.278" transform="translate(-390.427 -408.278)"/></g><path class="c" d="M390.484,408.405a.071.071,0,1,0,0-.142.071.071,0,1,0,0,.142Z" transform="translate(-390.413 -408.264)"/></g><g transform="translate(0 18.043)"><g transform="translate(2.114 2.263)"><path class="c" d="M385.422,407.248q31.239,1.929,62.274,6.129" transform="translate(-385.375 -406.545)"/><path class="c" d="M447.64,414.649c-20.6-2.792-41.532-4.854-62.227-6.118l.089-1.417c20.727,1.27,41.695,3.332,62.327,6.134Z" transform="translate(-385.413 -407.114)"/></g><path class="c" d="M386.205,410.513c9.445,2.954,20.365,3.043,30.172,4.2a286.754,286.754,0,0,0,32.5,2.456,1.967,1.967,0,0,0,.525-3.846,177.172,177.172,0,0,0-31.6-5.063c-10.153-.84-21.508-2.409-31.589-.614-1.527.273-1.3,2.461,0,2.87Z" transform="translate(-384.437 -406.11)"/><path class="c" d="M449.451,418.448h-.005a288.417,288.417,0,0,1-32.58-2.461c-2.734-.32-5.489-.556-8.417-.8-7.378-.625-15.007-1.275-21.881-3.427h-.005a2.326,2.326,0,0,1-1.548-2.382,1.956,1.956,0,0,1,1.637-1.857c8.59-1.522,17.893-.656,26.887.173,1.653.152,3.285.3,4.885.436,12.819,1.055,22.6,2.624,31.725,5.074a2.679,2.679,0,0,1-.7,5.247Zm-62.458-8.039c6.727,2.1,14.278,2.744,21.577,3.364,2.807.236,5.709.483,8.464.808a287.133,287.133,0,0,0,32.412,2.451h.005a1.19,1.19,0,0,0,1.191-1.1,1.169,1.169,0,0,0-.855-1.354c-9.041-2.435-18.748-3.988-31.483-5.032-1.606-.142-3.243-.289-4.9-.441-8.9-.829-18.113-1.679-26.509-.189a.526.526,0,0,0-.467.551.92.92,0,0,0,.561.944Z" transform="translate(-385.01 -406.683)"/></g><g transform="translate(12.632 0.758)"><g transform="translate(0.517 1.806)"><path class="c" d="M387.63,444.25a318.475,318.475,0,0,0,21.435-40.462" transform="translate(-387.032 -403.495)"/><path class="c" d="M388.707,444.861l-1.191-.756A318.407,318.407,0,0,0,408.9,403.733l1.3.577A318.627,318.627,0,0,1,388.707,444.861Z" transform="translate(-387.516 -403.733)"/></g><path class="c" d="M388.168,445.726c5.94-3.878,9.141-11.843,12.515-17.888a143.12,143.12,0,0,0,10.085-22.548c.535-1.521-1.826-2.487-2.592-1.091-4.1,7.472-8,15.044-11.927,22.6-3.049,5.882-7.881,11.906-8.695,18.575a.408.408,0,0,0,.614.346Z" transform="translate(-386.847 -402.818)"/><path class="c" d="M388.543,447.063a1.148,1.148,0,0,1-.614-.184,1.038,1.038,0,0,1-.5-1.023c.6-4.959,3.322-9.508,5.961-13.905,1.013-1.695,1.968-3.29,2.8-4.9l1.737-3.337c3.29-6.344,6.69-12.9,10.2-19.283a2.07,2.07,0,0,1,2.729-.834A1.968,1.968,0,0,1,412,406.1a143.371,143.371,0,0,1-10.132,22.652c-.651,1.16-1.286,2.388-1.941,3.647-2.744,5.279-5.851,11.26-10.809,14.493h0A1.022,1.022,0,0,1,388.543,447.063ZM409.894,404.8a.568.568,0,0,0-.525.31c-3.505,6.365-6.9,12.919-10.19,19.257l-1.731,3.337c-.855,1.648-1.868,3.343-2.844,4.974-2.429,4.051-4.932,8.228-5.667,12.63,4.313-3.122,7.189-8.653,9.734-13.559.666-1.275,1.307-2.519,1.957-3.684a141.689,141.689,0,0,0,10.038-22.427.6.6,0,0,0-.388-.756A1.113,1.113,0,0,0,409.894,404.8Z" transform="translate(-387.417 -403.389)"/></g><g transform="translate(10.515 8.288)"><g transform="translate(0.945 0.914)"><path class="c" d="M387.289,405.095q16.513,16.025,34.349,30.618" transform="translate(-386.79 -404.586)"/><path class="c" d="M421.589,436.67c-11.833-9.681-23.408-19.992-34.4-30.655L388.18,405c10.962,10.631,22.5,20.926,34.307,30.581Z" transform="translate(-387.194 -404.998)"/></g><path class="c" d="M387.352,406.2c9.692,11.628,22.065,22.191,34.364,30.964.944.677,2.057-.808,1.228-1.59-11.03-10.411-22.558-21.12-34.537-30.424a.745.745,0,0,0-1.055,1.05Z" transform="translate(-386.439 -404.249)"/><path class="c" d="M422.8,438.612a1.57,1.57,0,0,1-.913-.3c-14.052-10.022-25.659-20.48-34.5-31.09h-.005a1.434,1.434,0,0,1,.037-1.958,1.482,1.482,0,0,1,2-.1c12.027,9.34,23.676,20.176,34.585,30.471a1.764,1.764,0,0,1-1.207,2.98Zm-34.317-32.281c8.763,10.505,20.276,20.879,34.223,30.833.031.021.131.1.3-.094.016-.021.2-.252.031-.409-10.883-10.269-22.505-21.073-34.49-30.381Z" transform="translate(-387.014 -404.824)"/></g><g transform="translate(6.438 8.035)"><g transform="translate(0.644 1.233)"><path class="c" d="M386.417,425.133q20.22-10,40.435-20" transform="translate(-386.116 -404.478)"/><rect class="c" width="45.106" height="1.419" transform="translate(0 20.045) rotate(-26.385)"/></g><path class="c" d="M386.528,426.226c6.375.241,13.029-4.528,18.649-7.246a229.047,229.047,0,0,0,22.364-11.9c1.05-.661.388-2.571-.887-2.1a221.625,221.625,0,0,0-22.133,10.085c-5.882,2.97-14.215,5.452-18.108,10.951a.137.137,0,0,0,.115.2Z" transform="translate(-385.584 -404.201)"/><path class="c" d="M387.648,427.519c-.157,0-.325-.005-.493-.01l-.435-.026-.483-.86.268-.451c3.059-4.324,8.784-6.848,13.827-9.078,1.606-.7,3.127-1.375,4.523-2.078A220.778,220.778,0,0,1,427.06,404.9a1.662,1.662,0,0,1,2.152.861,1.918,1.918,0,0,1-.64,2.492,230.858,230.858,0,0,1-22.437,11.938c-1.3.63-2.66,1.375-4.056,2.141C397.613,424.765,392.576,427.519,387.648,427.519Zm40.047-21.33a.322.322,0,0,0-.136.037,218.478,218.478,0,0,0-22.065,10.053c-1.427.714-2.965,1.4-4.591,2.115-4.5,1.978-9.54,4.2-12.536,7.687,4.36-.257,8.941-2.765,13.029-5,1.422-.771,2.8-1.522,4.119-2.167a228.783,228.783,0,0,0,22.3-11.854.525.525,0,0,0,.126-.672C427.863,406.231,427.774,406.189,427.7,406.189Z" transform="translate(-386.237 -404.776)"/></g></g><g transform="translate(228.392 785.584)"><g transform="translate(27.203 1.431)"><g transform="translate(1.682 1.307)"><path class="c" d="M447.539,411.281q-9.272,25.761-18.544,51.512" transform="translate(-428.33 -411.043)"/><path class="c" d="M430.2,463.222l-1.327-.476,18.548-51.51,1.327.475Z" transform="translate(-428.868 -411.236)"/></g><path class="c" d="M449.734,412.114c-1.27,8.59-4.707,17.137-7.556,25.328-3.138,9.025-6.192,18.124-10.39,26.729-.777,1.6-3.5.845-3.059-.981,2.078-8.605,5.174-16.922,8.259-25.208,3.274-8.8,6.218-18.339,11.087-26.4a.883.883,0,0,1,1.658.53Z" transform="translate(-427.978 -410.418)"/><path class="c" d="M430.916,466.321a2.622,2.622,0,0,1-.881-.157,2.111,2.111,0,0,1-1.417-2.571c2.1-8.695,5.242-17.132,8.275-25.286.64-1.726,1.275-3.479,1.91-5.242,2.6-7.247,5.289-14.74,9.24-21.272a1.671,1.671,0,0,1,1.973-.714,1.53,1.53,0,0,1,.992,1.716h0c-1.065,7.152-3.6,14.251-6.055,21.125-.52,1.448-1.034,2.891-1.532,4.329l-.75,2.146c-2.844,8.207-5.793,16.7-9.676,24.657A2.243,2.243,0,0,1,430.916,466.321ZM449.465,412.4a.226.226,0,0,0-.2.12c-3.883,6.412-6.549,13.842-9.125,21.021q-.952,2.66-1.915,5.263c-3.022,8.112-6.15,16.508-8.233,25.124a.729.729,0,0,0,.525.9.935.935,0,0,0,1.212-.4c3.841-7.886,6.774-16.335,9.608-24.5l.75-2.151c.5-1.437,1.018-2.881,1.538-4.334,2.429-6.811,4.943-13.848,5.982-20.868h0c.021-.136-.021-.152-.063-.168Z" transform="translate(-428.547 -410.987)"/></g><g transform="translate(38.133 26.392)"><g transform="translate(0.07 0.07)"><path class="e" d="M430.644,415.757" transform="translate(-430.644 -415.757)"/></g><path class="c" d="M430.69,415.887a.072.072,0,1,1,.026-.142.072.072,0,0,1-.026.142Z" transform="translate(-430.631 -415.743)"/></g><g transform="translate(0 17.719)"><g transform="translate(2.59 2.462)"><path class="c" d="M486.252,419.548q-31.09-3.573-62.39-4.854" transform="translate(-423.836 -413.991)"/><path class="c" d="M486.189,420.82c-20.648-2.372-41.621-4-62.332-4.848l.058-1.412c20.747.845,41.752,2.482,62.442,4.854Z" transform="translate(-423.857 -414.56)"/></g><path class="c" d="M487.932,423.013c-9.818,1.259-20.585-.562-30.439-1.139a285.648,285.648,0,0,1-32.428-3.269,1.967,1.967,0,0,1,.157-3.878,177.212,177.212,0,0,1,32,.546c10.143.945,21.6,1.385,31.211,4.917,1.453.535.845,2.65-.5,2.823Z" transform="translate(-422.789 -413.514)"/><path class="c" d="M481.081,424.733c-4.849,0-9.792-.451-14.624-.892-2.928-.273-5.688-.52-8.427-.682a288.609,288.609,0,0,1-32.512-3.28,2.673,2.673,0,0,1,.22-5.279c9.4-.819,19.3-.661,32.129.546q2.448.22,4.985.43c8.968.75,18.245,1.532,26.4,4.529a1.948,1.948,0,0,1,1.291,2.109,2.326,2.326,0,0,1-1.947,2.078h0A59.2,59.2,0,0,1,481.081,424.733Zm-43.306-9.23c-4.166,0-8.081.173-11.917.509a1.166,1.166,0,0,0-1.076,1.186,1.18,1.18,0,0,0,.976,1.286,287.766,287.766,0,0,0,32.349,3.259c2.771.163,5.672.425,8.474.687,7.294.667,14.829,1.359,21.839.457h0a.935.935,0,0,0,.714-.829.53.53,0,0,0-.373-.625c-7.976-2.928-17.153-3.7-26.032-4.444-1.689-.136-3.358-.283-5-.436C450.237,415.855,443.746,415.5,437.775,415.5Z" transform="translate(-423.363 -414.091)"/></g><g transform="translate(33.529)"><g transform="translate(1.451 1.926)"><path class="c" d="M444.2,454.7a318.3,318.3,0,0,1-14.036-43.589" transform="translate(-429.478 -410.949)"/><path class="c" d="M444.093,455.095a318.728,318.728,0,0,1-14.063-43.683l1.37-.331a318.027,318.027,0,0,0,14,43.484Z" transform="translate(-430.03 -411.081)"/></g><path class="c" d="M445.092,456.13c-5.174-4.864-6.932-13.26-9.193-19.808a143.17,143.17,0,0,1-5.992-23.959c-.257-1.6,2.235-2.131,2.744-.619,2.734,8.07,5.242,16.2,7.787,24.342,1.978,6.323,5.683,13.1,5.315,19.8a.407.407,0,0,1-.661.241Z" transform="translate(-429.184 -410.143)"/><path class="c" d="M445.918,457.5a1.066,1.066,0,0,1-.74-.289h0c-4.308-4.045-6.328-10.473-8.1-16.146-.425-1.364-.84-2.692-1.28-3.946a143.225,143.225,0,0,1-6.013-24.074,1.967,1.967,0,0,1,1.564-2.267,2.09,2.09,0,0,1,2.545,1.3c2.4,7.1,4.67,14.367,6.869,21.4l.924,2.965c.54,1.731,1.2,3.463,1.9,5.3,1.826,4.8,3.715,9.755,3.442,14.755a1.129,1.129,0,0,1-1.112,1Zm-13.989-45.373a1.114,1.114,0,0,0-.241.026.6.6,0,0,0-.514.661,143.048,143.048,0,0,0,5.961,23.844c.441,1.27.861,2.608,1.291,3.977,1.653,5.273,3.515,11.219,7.215,15.044.042-4.46-1.695-9.02-3.379-13.433-.671-1.773-1.375-3.615-1.926-5.384l-.924-2.959c-2.2-7.021-4.465-14.283-6.858-21.367A.6.6,0,0,0,431.929,412.131Z" transform="translate(-429.753 -410.714)"/></g><g transform="translate(16.458 11.484)"><g transform="translate(1.359 0.832)"><path class="c" d="M466,413.173q-19.063,12.884-39.176,24.137" transform="translate(-426.479 -412.585)"/><path class="c" d="M427.446,438.405l-.687-1.238c13.3-7.44,26.467-15.548,39.123-24.106l.792,1.17C453.987,422.816,440.79,430.944,427.446,438.405Z" transform="translate(-426.759 -413.061)"/></g><path class="c" d="M467.23,414.365c-11.575,9.75-25.6,17.988-39.25,24.479-1.044.5-1.878-1.16-.929-1.784,12.683-8.322,25.906-16.849,39.328-23.917a.745.745,0,0,1,.85,1.223Z" transform="translate(-425.924 -412.336)"/><path class="c" d="M428.179,440.206a1.633,1.633,0,0,1-1.427-.882,1.678,1.678,0,0,1,.488-2.288c12.536-8.222,25.9-16.849,39.381-23.948a1.488,1.488,0,0,1,1.952.451,1.433,1.433,0,0,1-.31,1.931h-.005c-10.542,8.884-23.8,17.153-39.4,24.578A1.594,1.594,0,0,1,428.179,440.206ZM467.4,414.327c-13.548,7.083-26.882,15.689-39.386,23.9-.194.126-.037.4-.032.415.115.2.226.157.268.131,15.49-7.372,28.645-15.574,39.1-24.384C467.4,414.348,467.4,414.327,467.4,414.327Z" transform="translate(-426.5 -412.902)"/></g><g transform="translate(20.176 4.945)"><g transform="translate(1.394 1.326)"><path class="c" d="M463.866,438.779q-18.158-13.381-36.311-26.761" transform="translate(-427.131 -411.446)"/><rect class="c" width="1.416" height="45.109" transform="matrix(0.593, -0.805, 0.805, 0.593, 0, 1.14)"/></g><path class="c" d="M464.735,439.877c-6.318-.876-12.032-6.732-17.09-10.395a229.329,229.329,0,0,1-19.94-15.621c-.918-.834.068-2.6,1.238-1.915a220.577,220.577,0,0,1,20.029,13.805c5.273,3.951,13.045,7.85,15.915,13.947.047.094-.058.189-.152.178Z" transform="translate(-426.632 -411.087)"/><path class="c" d="M465.338,441.154l-.126-.011c-5.048-.7-9.7-4.428-13.8-7.719-1.233-1-2.44-1.957-3.6-2.8a230.288,230.288,0,0,1-20-15.673,1.917,1.917,0,0,1-.194-2.566,1.669,1.669,0,0,1,2.267-.472,218.583,218.583,0,0,1,20.1,13.848c1.244.929,2.624,1.852,4.077,2.823,4.591,3.08,9.786,6.564,12.053,11.386l.184.394-.283.462A.845.845,0,0,1,465.338,441.154ZM428.99,413.071a.309.309,0,0,0-.241.147.526.526,0,0,0,.01.682,227.724,227.724,0,0,0,19.876,15.574c1.186.861,2.409,1.842,3.668,2.844,3.636,2.923,7.719,6.2,11.964,7.209-2.33-3.951-6.916-7.026-11.009-9.77-1.469-.981-2.86-1.915-4.135-2.875a222.227,222.227,0,0,0-19.966-13.759A.354.354,0,0,0,428.99,413.071Z" transform="translate(-427.208 -411.656)"/></g></g><g transform="translate(259.174 509.281)"><g transform="translate(0 34.444)"><path class="c" d="M430.354,373.319a5.322,5.322,0,0,1,1.023-7.54,5.46,5.46,0,0,1,3.636-1.149,5.242,5.242,0,0,1,3.92,2.094,5.411,5.411,0,0,1-8.579,6.6Z" transform="translate(-429.23 -364.621)"/></g><g transform="translate(10.793 7.358)"><g transform="translate(0.385 1.096)"><path class="c" d="M431.36,382.87c2.209-5.09,7.756-16.865,12.294-21.388a5.886,5.886,0,0,1,2.634-1.747,2.231,2.231,0,0,1,2.65,1.217,5.1,5.1,0,0,1,.194,2.492c-.462,1.852-4.518,6.995-5.478,7.971-3.736,3.8-8.553,7.656-12.294,11.455" transform="translate(-431.36 -359.668)"/></g><path class="c" d="M431.9,384.051c1.018-.771,1.448-2.146,2.047-3.253,1.039-1.91,2-3.862,3.022-5.777,2.1-3.941,4.382-8.128,7.414-11.449,1.417-1.548,4.681-1.984,3.978.824a10.865,10.865,0,0,1-1.716,2.98,39.018,39.018,0,0,1-3.1,4.145c-3.757,4.245-8.778,7.472-12.168,12.016a.372.372,0,0,0,.525.514c2.057-1.527,26.142-20.611,16.56-24.326-4.738-1.831-8.915,6.3-10.683,9.392-1.516,2.661-2.928,5.389-4.213,8.17-.845,1.826-2.466,4.46-2.262,6.517a.377.377,0,0,0,.6.247Z" transform="translate(-431.286 -359.459)"/></g><g transform="translate(14.516 21.899)"><g transform="translate(0.371 1.189)"><path class="c" d="M432.067,376.209c4.3-3.5,14.656-11.392,20.763-13.312a5.864,5.864,0,0,1,3.148-.336,2.23,2.23,0,0,1,1.789,2.3,5.113,5.113,0,0,1-.976,2.3c-1.27,1.432-7.236,4.13-8.537,4.549-5.069,1.648-11.124,2.849-16.188,4.5" transform="translate(-432.067 -362.457)"/></g><path class="c" d="M432.41,377.539c2.928-.5,6.229-3.988,8.647-5.651,3.259-2.235,7.546-5.8,11.486-6.6.336-.141.672-.268,1.018-.378q4.25,1.787,2.12,3.106a11.482,11.482,0,0,1-2.424,1.5,39.839,39.839,0,0,1-4.67,2.256c-5.289,2.073-11.245,2.587-16.361,5.058-.362.178-.247.782.184.714,2.571-.415,32.6-6.145,25.963-13.921-3.2-3.752-10.227,1.092-13.207,2.965-2.786,1.758-5.494,3.673-8.1,5.688-1.6,1.228-4.282,2.839-5.048,4.759a.374.374,0,0,0,.388.509Z" transform="translate(-431.996 -362.231)"/></g><g transform="translate(15.439 38.556)"><g transform="translate(0.378 1.319)"><path class="c" d="M432.244,370.283c5.305-1.637,17.856-5.084,24.242-4.576a5.831,5.831,0,0,1,3.038.86,2.23,2.23,0,0,1,.8,2.8,5.083,5.083,0,0,1-1.763,1.768c-1.711.855-8.259,1.123-9.618,1.028-5.315-.367-11.387-1.516-16.7-1.884" transform="translate(-432.244 -365.656)"/></g><path class="c" d="M432.5,371.717c1.39.3,3.054-.4,4.439-.7,2.162-.477,4.308-1.034,6.475-1.5,3.883-.824,9.246-2.44,13.228-1.621,1.962.4,3.789,2.414,1.406,3.552a11.619,11.619,0,0,1-3.374.619,37.622,37.622,0,0,1-5.321.331c-5.6-.115-11.25-1.795-16.854-1.417-.446.026-.383.646,0,.735,2.219.5,33.6,6.234,29.08-3.552-2.036-4.408-10.468-2.382-14.01-1.695-3.007.577-5.987,1.3-8.936,2.13-1.947.546-4.943,1.028-6.381,2.524-.21.22.01.54.247.593Z" transform="translate(-432.172 -365.405)"/></g><g transform="translate(4.159)"><g transform="translate(1.002 1.074)"><path class="c" d="M430.338,386.162c-.231-5.541-.367-18.56,1.748-24.6a5.866,5.866,0,0,1,1.611-2.723,2.231,2.231,0,0,1,2.912-.058,5.1,5.1,0,0,1,1.265,2.157c.388,1.873-1.023,8.27-1.459,9.56-1.711,5.048-4.366,10.62-6.076,15.668" transform="translate(-430.213 -358.262)"/></g><path class="c" d="M431.49,387.173c.65-1.28.4-3.054.451-4.471.094-2.214.1-4.429.2-6.643.11-2.314.278-4.633.572-6.932.241-1.894.289-5.184,1.417-6.779,3.663-5.147,3.584,1.868,3.28,3.9a36.46,36.46,0,0,1-1.144,5.347c-1.585,5.137-4.523,10.085-5.489,15.385-.084.446.525.535.708.189,1.317-2.461,14.467-29.694,4.371-29.106-4.99.294-5.321,9.214-5.573,12.7-.236,3.211-.3,6.454-.247,9.676.031,2.02-.268,5.032.813,6.811.157.262.525.136.635-.084Z" transform="translate(-430.022 -358.057)"/></g></g><g transform="translate(115.241 490.797)"><g transform="translate(34.742 34.419)"><path class="c" d="M417.946,370.046a5.331,5.331,0,0,1-7.6.519,5.522,5.522,0,0,1-1.863-3.337,5.25,5.25,0,0,1,1.27-4.266,5.417,5.417,0,0,1,8.2,7.084Z" transform="translate(-408.421 -361.094)"/></g><g transform="translate(3.959 21.314)"><g transform="translate(1.074 0.988)"><path class="c" d="M428.7,372.309c-5.442-1.144-18.114-4.214-23.46-7.75a5.877,5.877,0,0,1-2.246-2.23,2.245,2.245,0,0,1,.656-2.849,5.17,5.17,0,0,1,2.4-.693c1.915.084,7.776,3.028,8.926,3.767,4.481,2.9,9.24,6.853,13.721,9.755" transform="translate(-402.759 -358.785)"/></g><path class="c" d="M429.812,372.825c-.965-.845-2.4-.987-3.61-1.354-2.083-.635-4.187-1.181-6.276-1.8-4.292-1.27-8.852-2.66-12.725-4.969-1.8-1.076-2.891-4.193.005-4.067a10.844,10.844,0,0,1,3.269,1.081,39.092,39.092,0,0,1,4.7,2.209c4.917,2.828,9.1,7.1,14.236,9.513a.372.372,0,0,0,.4-.614c-1.915-1.711-25.491-21.5-27.2-11.345-.845,5.016,7.971,7.477,11.36,8.585,2.917.955,5.882,1.784,8.868,2.487,1.962.462,4.875,1.522,6.848.908a.378.378,0,0,0,.126-.635Z" transform="translate(-402.554 -358.596)"/></g><g transform="translate(15.951 6.913)"><g transform="translate(1.148 1.298)"><path class="c" d="M423.27,379.034c-4.3-3.521-14.131-12.084-17.242-17.694a5.861,5.861,0,0,1-.966-3.017,2.237,2.237,0,0,1,1.894-2.22,5.119,5.119,0,0,1,2.456.493c1.658.955,5.5,6.271,6.181,7.456,2.639,4.639,5.037,10.342,7.677,14.981" transform="translate(-405.058 -356.099)"/></g><path class="c" d="M424.551,379.963c-1.081-2.771-5.169-5.3-7.283-7.341-2.849-2.75-7.22-6.234-8.794-9.943-.2-.3-.394-.6-.572-.918q.89-4.534,2.618-2.708a11.516,11.516,0,0,1,1.957,2.078,40.1,40.1,0,0,1,3.154,4.13c3.1,4.77,4.807,10.51,8.259,15.028.247.32.819.089.661-.325-.924-2.44-12.593-30.738-18.89-22.668-3.033,3.893,3.133,9.817,5.573,12.362,2.282,2.382,4.707,4.649,7.209,6.8,1.532,1.312,3.652,3.626,5.688,3.988a.373.373,0,0,0,.42-.483Z" transform="translate(-404.839 -355.852)"/></g><g transform="translate(31.915)"><g transform="translate(1.246 1.226)"><path class="c" d="M417.6,382.226c-2.671-4.87-8.584-16.492-9.377-22.857a5.849,5.849,0,0,1,.236-3.159,2.234,2.234,0,0,1,2.587-1.349,5.138,5.138,0,0,1,2.094,1.375c1.181,1.506,2.76,7.871,2.944,9.23.708,5.289.8,11.47,1.517,16.76" transform="translate(-408.119 -354.768)"/></g><path class="c" d="M418.975,383.193c.016-1.422-1-2.917-1.58-4.214-.908-2.025-1.884-4.014-2.771-6.05-1.6-3.642-4.261-8.574-4.261-12.651,0-2.01,1.606-4.2,3.2-2.1a11.442,11.442,0,0,1,1.291,3.19,38.888,38.888,0,0,1,1.4,5.147c1.018,5.525.509,11.408,2,16.823.121.436.714.247.719-.147.052-2.277-.656-34.217-9.345-27.81-3.915,2.881-.226,10.746,1.16,14.083,1.175,2.834,2.487,5.615,3.894,8.338.929,1.8,2,4.639,3.762,5.751.262.163.53-.115.53-.362Z" transform="translate(-407.882 -354.534)"/></g><g transform="translate(0 38.347)"><g transform="translate(1.112 0.883)"><path class="c" d="M430.432,364.93c-5.394,1.343-18.135,4.1-24.494,3.243a5.864,5.864,0,0,1-3-1.028,2.241,2.241,0,0,1-.645-2.849,5.179,5.179,0,0,1,1.863-1.674c1.758-.756,8.317-.661,9.676-.493,5.294.656,11.3,2.141,16.6,2.8" transform="translate(-402.011 -362.011)"/></g><path class="c" d="M431.4,365.277c-1.385-.378-3.075.231-4.481.462-2.188.357-4.36.792-6.554,1.139-2.293.357-4.6.661-6.916.834-1.91.147-5.147.766-6.937-.026-5.793-2.555,1.112-3.888,3.169-4a37.368,37.368,0,0,1,5.473.047c5.363.519,10.809,2.4,16.2,2.282.451-.005.42-.619.042-.734-2.681-.792-32.05-8.207-29.437,1.579,1.3,4.838,10.112,3.364,13.585,2.907,3.2-.42,6.391-1,9.545-1.705,1.973-.441,4.99-.75,6.517-2.172.226-.21.031-.54-.21-.609Z" transform="translate(-401.799 -361.842)"/></g></g><g transform="translate(43.068 809.145)"><g transform="translate(43.533 40.266)"><g transform="translate(0.577 0.399)"><path class="c" d="M423.388,423.306c-2.765-.189-4.324,1.857-6.333,3.768a30.276,30.276,0,0,0-4.392,4.848c-1.4,2.088-2.335,4.6-4.355,6.1a9.215,9.215,0,0,1-6.375,1.4c-1.973-.189-4.114-.9-5.037-2.655-1.218-2.3.268-5.116,2.094-6.963a23.2,23.2,0,0,1,11.523-6,45.683,45.683,0,0,1,13.1-.672" transform="translate(-396.452 -422.954)"/></g><path class="c" d="M423.855,423.592c-3.227-.409-5.426,2.382-7.561,4.423-3.8,3.631-6.113,10.573-11.733,11.161-2.786.289-3.757-.052-5.562-2.109q-2.723-1.6-.892-4.271a6.311,6.311,0,0,1,1.107-1.59,18.575,18.575,0,0,1,7.378-5.184c5.567-2.356,11.549-2.351,17.489-2.351a.215.215,0,0,0,0-.43c-6.942-.871-14.409-.315-20.6,3.227-3.311,1.894-8.947,6.4-6.58,10.877,2.073,3.92,9,3.72,12.147,1.48,2.487-1.773,3.494-4.948,5.263-7.315,2.277-3.043,5.693-7.115,9.55-7.85.042-.005.026-.063-.01-.068Z" transform="translate(-396.341 -422.878)"/></g><g transform="translate(55.323 11.285)"><g transform="translate(1.029 1.057)"><path class="c" d="M412.939,441.656c-6.679-2.267-12.546-8.086-13.921-15.007-.52-2.6-.257-5.594,1.616-7.477a5.491,5.491,0,0,1,9.135,2.214c.646,2.036.063,4.219-.121,6.344-.273,3.148-.966,9.319,2.97,13.506" transform="translate(-398.784 -417.556)"/></g><path class="c" d="M413.935,442.233c-4.271-2.256-8.039-4.937-10.652-9.093a15.539,15.539,0,0,1-2.513-6.916c-.147-1.753.052-4.1,1.443-5.436q2.81-2.637,5.163-.173,2.928.881,2.429,4.129c.22,6.4-2.372,12.756,3.211,17.772.488.441,1.359-.11.965-.724a17.053,17.053,0,0,1-2.624-9.524c.016-2.9.887-5.919.583-8.789a6.663,6.663,0,0,0-10.127-5.09c-4.471,2.881-3.552,9.209-1.669,13.328a20.3,20.3,0,0,0,13.543,11.1c.336.073.582-.409.247-.588Z" transform="translate(-398.588 -417.355)"/></g><g transform="translate(31.054 36.187)"><g transform="translate(0.49 0.581)"><path class="c" d="M413.862,422.876c-2.445.047-3.421,1.737-5.168,3.447a37.54,37.54,0,0,1-5.085,4.544,9.553,9.553,0,0,1-6.428,1.831,4,4,0,0,1-1.984-.745,3.6,3.6,0,0,1-.882-4.03,6.992,6.992,0,0,1,2.912-3.216c4.812-3.075,11-2.813,16.634-1.831" transform="translate(-394.056 -422.211)"/></g><path class="c" d="M414.258,423.273c-5.5.4-8.123,7.582-13.449,9.12-2.6.756-2.23.462-3.406-2.54-1.223-3.117-1.511-3.012.945-4.471a15.9,15.9,0,0,1,5.315-1.847c3.589-.656,7.005-.068,10.594-.01a.18.18,0,0,0,.047-.352,22.581,22.581,0,0,0-13.984.073c-3,1.113-7.079,3.673-6.25,7.456.745,3.427,4.833,3.364,7.488,2.4a16.349,16.349,0,0,0,5.373-3.621c2.2-2.041,4.229-5.536,7.346-6.066.079-.016.058-.147-.021-.142Z" transform="translate(-393.963 -422.1)"/></g><g transform="translate(41.671 5.739)"><g transform="translate(0.541 0.472)"><path class="c" d="M402.088,433.726c-1.039-1.758-.268-3.185.173-5.174a31.937,31.937,0,0,0,.992-5.6,7.966,7.966,0,0,0-1.521-5.352,3.312,3.312,0,0,0-1.4-1.075,2.991,2.991,0,0,0-3.243,1.139,5.829,5.829,0,0,0-1,3.474c-.068,4.759,2.833,9.031,6,12.588" transform="translate(-396.09 -416.388)"/></g><path class="c" d="M402.595,434.087c-.992-2.634.761-5.714,1.233-8.385a12.465,12.465,0,0,0,.016-5.321c-.583-2.262-2.456-4.875-5.1-3.857-3.049,1.17-3.038,5.3-2.466,7.934a18.728,18.728,0,0,0,6.113,9.776c.147.115.4-.026.289-.215-1.349-2.193-3.038-4.077-4.125-6.438a15.04,15.04,0,0,1-1.464-5.116,8.9,8.9,0,0,1,.163-2.634q4.5-3.274,5.373-.031c2.776,4.46-2.456,9.886-.168,14.346.037.068.163.021.131-.058Z" transform="translate(-395.987 -416.298)"/></g><g transform="translate(29.363)"><g transform="translate(0.67 0.477)"><path class="c" d="M397.286,423.523c-.588-.792-.289-1.522-.168-2.5a15.553,15.553,0,0,0,.2-2.744,3.826,3.826,0,0,0-.992-2.5,1.645,1.645,0,0,0-.724-.451,1.453,1.453,0,0,0-1.506.708,2.809,2.809,0,0,0-.31,1.721c.2,2.293,1.8,4.208,3.5,5.767" transform="translate(-393.769 -415.295)"/></g><path class="c" d="M397.886,423.872c-.488-1.112.226-2.671.346-3.83a6.306,6.306,0,0,0-.252-2.949c-.482-1.249-1.726-2.44-3.091-1.616-3.227,1.952.556,7.6,2.844,8.584a.179.179,0,0,0,.247-.241c-.577-1.144-1.621-2.015-2.235-3.175a7.675,7.675,0,0,1-.787-1.968,2.617,2.617,0,0,1,0-1.49c-.037-.551.247-.75.845-.6.6-.294,1-.115,1.2.535,1.181,2.125-.7,4.911.771,6.837.052.068.142-.021.11-.089Z" transform="translate(-393.641 -415.204)"/></g><g transform="translate(19.282 27.652)"><g transform="translate(0.488 0.563)"><path class="c" d="M406.8,421.651c-1.706-.131-3.253.924-4.591,1.994a26.849,26.849,0,0,1-3.846,2.812,6.685,6.685,0,0,1-4.592.834,2.815,2.815,0,0,1-1.327-.661,2.5,2.5,0,0,1-.336-2.86,4.861,4.861,0,0,1,2.24-2.036c3.558-1.81,7.845-1.2,11.691-.136" transform="translate(-391.813 -420.581)"/></g><path class="c" d="M407.2,422.038c-4.408-.226-6.659,4.591-10.794,5.268q-2.936.85-3.621-2.361a4.4,4.4,0,0,1,2.23-2.288,10.956,10.956,0,0,1,4.618-1.076c2.325-.131,4.518.483,6.806.651a.179.179,0,0,0,.094-.331,15.48,15.48,0,0,0-9.555-1.1c-2.288.546-5.515,2.094-5.237,4.932.22,2.256,2.576,2.8,4.507,2.513,4.376-.661,6.643-5.7,10.951-6.066.089-.011.094-.142,0-.142Z" transform="translate(-391.72 -420.474)"/></g><g transform="translate(9.648 18.648)"><g transform="translate(0.491 0.561)"><path class="c" d="M399.955,420.9a4.461,4.461,0,0,0-3.19.541,16.757,16.757,0,0,1-2.849,1.17,4.308,4.308,0,0,1-3.012-.184,1.82,1.82,0,0,1-.729-.619,1.614,1.614,0,0,1,.231-1.847,3.125,3.125,0,0,1,1.721-.929c2.513-.588,5.111.451,7.362,1.716" transform="translate(-389.977 -418.865)"/></g><path class="c" d="M400.369,421.287c-2.666-.866-4.68,1.506-7.283,1.506q-2.377.244-.907-2.655l.483-.131a6.922,6.922,0,0,1,3.211.079c1.391.268,2.6.981,3.962,1.291a.182.182,0,0,0,.178-.3,9.118,9.118,0,0,0-6.323-2.309c-1.5.089-3.51.682-3.778,2.419-.247,1.553,1.217,2.356,2.561,2.492,2.907.3,5.106-2.545,7.881-2.251.084.005.089-.121.016-.142Z" transform="translate(-389.884 -418.758)"/></g><g transform="translate(0 1.891)"><g transform="translate(0.6 0.644)"><path class="c" d="M457.589,451.766c-11.633.761-23.13-4.014-32.423-10.248-8.574-5.74-16.445-13.811-26.7-14.871a33.317,33.317,0,0,1-6.108-.719c-1.968-.588-3.857-2.057-4.156-4.088a5,5,0,0,1,2.5-4.712,11.139,11.139,0,0,1,5.4-1.4,35.72,35.72,0,0,1,20.318,5.552,54.546,54.546,0,0,1,15.332,14.7c2.109,2.912,4.035,6,6.648,8.469,5.079,4.785,12.242,6.7,19.195,7.314" transform="translate(-388.159 -415.687)"/></g><path class="c" d="M458.074,452.036c-14.43-.583-26.089-6.192-37.507-14.708-4.728-3.521-9.466-7.226-15.012-9.372a27.949,27.949,0,0,0-7.839-1.716c-2.078-.173-4.612.021-6.381-1.3-6.292-4.7,1.516-7.635,4.2-7.955,13.848-1.621,26.577,7.645,34.684,17.988,3.584,4.575,6.4,9.708,11.376,12.971,4.89,3.2,10.746,4.418,16.476,4.985.824.079.819-1.207,0-1.291-6.99-.708-14.031-2.571-19.184-7.619-4.334-4.25-7.189-9.875-11.35-14.33-7.22-7.719-16.875-13.5-27.626-14.068-3.668-.194-8.558-.115-10.909,3.264-2.078,2.975-.567,6.328,2.477,7.845a15.019,15.019,0,0,0,5.62,1.123,28.066,28.066,0,0,1,10.8,2.986c5.462,2.76,10.137,6.848,15.091,10.389,9.849,7.058,22.757,12.971,35.146,11.3.294-.042.2-.483-.063-.493Z" transform="translate(-388.045 -415.564)"/></g></g><g transform="translate(174.49 838.467)"><g transform="translate(0 19.345)"><g transform="translate(0.22 0.205)"><path class="c" d="M413.212,424.791c2.335,1.5,2.377,4.062,2.854,6.8a29.9,29.9,0,0,1,.661,6.507c-.11,2.513-.85,5.09-.11,7.493a9.205,9.205,0,0,0,4.3,4.911c1.695,1.018,3.846,1.716,5.63.855,2.34-1.128,2.823-4.276,2.445-6.848a23.225,23.225,0,0,0-5.709-11.67,45.589,45.589,0,0,0-10.148-8.317" transform="translate(-413.133 -424.518)"/></g><path class="c" d="M413.411,424.93c2.839,1.585,2.949,5.137,3.458,8.049.9,5.174-1.354,12.137,2.818,15.946,2.073,1.889,3.054,2.183,5.73,1.606q3.14.323,3.253-2.912a6.473,6.473,0,0,0,.052-1.936,18.633,18.633,0,0,0-2.86-8.553c-3.085-5.2-7.9-8.747-12.683-12.273-.226-.168.021-.478.257-.346,6.1,3.421,11.78,8.306,14.661,14.823,1.538,3.49,3.4,10.458-1.165,12.662-3.993,1.926-9.45-2.345-10.652-6.019-.95-2.907.121-6.055.1-9.01-.026-3.8-.362-9.109-3.028-11.985-.026-.037.016-.073.052-.052Z" transform="translate(-413.091 -424.479)"/></g><g transform="translate(3.138)"><g transform="translate(0.309 0.994)"><path class="c" d="M413.748,436.452c6.722,2.141,14.9.939,20.107-3.815,1.963-1.789,3.526-4.35,3.138-6.979a5.488,5.488,0,0,0-8.668-3.636c-1.721,1.254-2.555,3.358-3.668,5.174-1.647,2.7-4.749,8.076-10.405,9.109" transform="translate(-413.748 -420.982)"/></g><path class="c" d="M414.03,436.937c4.78.719,9.4.8,13.968-1a15.5,15.5,0,0,0,6.129-4.072c1.159-1.328,2.4-3.337,2.067-5.231q-.7-3.794-4.056-3.206-2.873-1.031-4.4,1.884c-3.977,5.016-5.662,11.675-13.134,12.394-.651.063-1.029-.892-.346-1.154a17.073,17.073,0,0,0,7.761-6.108c1.716-2.34,2.8-5.289,4.749-7.42a6.663,6.663,0,0,1,11.171,1.916c1.889,4.969-2.608,9.518-6.564,11.717a20.317,20.317,0,0,1-17.489.9c-.32-.136-.226-.677.147-.619Z" transform="translate(-413.689 -420.792)"/></g><g transform="translate(18.099 28.455)"><g transform="translate(0.177 0.178)"><path class="c" d="M416.574,426.249c1.941,1.49,1.721,3.432,2.115,5.846a38.308,38.308,0,0,0,1.4,6.674,9.544,9.544,0,0,0,4.082,5.289,3.985,3.985,0,0,0,2.041.572,3.591,3.591,0,0,0,3.1-2.718,6.955,6.955,0,0,0-.436-4.313c-2.046-5.331-7.188-8.8-12.3-11.35" transform="translate(-416.574 -426.249)"/></g><path class="c" d="M416.76,426.335c4.192,3.589,2.041,10.919,5.41,15.322,1.647,2.146,1.522,1.69,4.25-.026,2.833-1.784,3.007-1.522,1.894-4.156a15.816,15.816,0,0,0-3.185-4.639c-2.5-2.66-5.594-4.219-8.516-6.3a.179.179,0,0,1,.168-.31,22.593,22.593,0,0,1,11.213,8.359c1.753,2.676,3.516,7.157.6,9.713-2.634,2.314-5.882-.163-7.451-2.519a16.248,16.248,0,0,1-2.172-6.1c-.561-2.949-.115-6.968-2.309-9.246-.058-.058.037-.152.094-.1Z" transform="translate(-416.54 -426.215)"/></g><g transform="translate(28.863 5.979)"><g transform="translate(0.18 0.438)"><path class="c" d="M418.626,434.917c1.878-.792,2.1-2.4,2.928-4.266a31.487,31.487,0,0,1,2.529-5.09,7.946,7.946,0,0,1,4.4-3.411,3.351,3.351,0,0,1,1.763-.031,2.986,2.986,0,0,1,1.931,2.839,5.807,5.807,0,0,1-1.254,3.39c-2.771,3.873-7.645,5.588-12.3,6.57" transform="translate(-418.626 -422.015)"/></g><path class="c" d="M418.725,435.22c2.361-1.532,2.781-5.053,3.988-7.483a12.563,12.563,0,0,1,3.143-4.292c1.81-1.474,4.869-2.461,6.391-.084,1.758,2.755-.7,6.071-2.723,7.855a18.728,18.728,0,0,1-10.725,4.235c-.184.01-.3-.257-.1-.341,2.382-.966,4.864-1.48,7.141-2.734a15.051,15.051,0,0,0,4.214-3.248,9.15,9.15,0,0,0,1.433-2.219q-1.677-5.305-4.308-3.211c-4.88,1.941-3.888,9.414-8.375,11.644-.073.037-.147-.079-.079-.121Z" transform="translate(-418.592 -421.932)"/></g><g transform="translate(49.476 9.941)"><g transform="translate(0.178 0.444)"><path class="c" d="M422.554,428.462c.939-.289,1.128-1.055,1.616-1.91a15.691,15.691,0,0,1,1.464-2.33,3.875,3.875,0,0,1,2.288-1.427,1.619,1.619,0,0,1,.85.073,1.45,1.45,0,0,1,.792,1.459,2.8,2.8,0,0,1-.771,1.569c-1.522,1.731-3.951,2.319-6.239,2.566" transform="translate(-422.554 -422.771)"/></g><path class="c" d="M422.667,428.759c1.06-.6,1.406-2.288,2-3.29a6.285,6.285,0,0,1,1.952-2.225c1.133-.714,2.839-.939,3.448.535,1.438,3.484-4.959,5.793-7.388,5.221a.18.18,0,0,1-.052-.341c1.149-.577,2.5-.656,3.684-1.228a7.662,7.662,0,0,0,1.8-1.118,2.57,2.57,0,0,0,.887-1.2c.357-.425.247-.756-.325-.987-.309-.593-.734-.682-1.285-.278-2.209,1.008-2.351,4.366-4.675,5.042-.084.021-.1-.1-.042-.136Z" transform="translate(-422.52 -422.687)"/></g><g transform="translate(36.395 31.851)"><g transform="translate(0.068 0.072)"><path class="c" d="M420.04,426.876c1.453.9,2.078,2.676,2.514,4.329a26.522,26.522,0,0,0,1.427,4.544,6.712,6.712,0,0,0,3.206,3.4,2.846,2.846,0,0,0,1.453.257,2.509,2.509,0,0,0,1.973-2.1,4.856,4.856,0,0,0-.6-2.97c-1.789-3.568-5.6-5.625-9.33-7.052" transform="translate(-420.04 -426.876)"/></g><path class="c" d="M420.142,426.876c3.678,2.435,2.629,7.65,5.557,10.647q1.857,2.424,4.318.252a4.426,4.426,0,0,0-.441-3.164A11.065,11.065,0,0,0,426.5,431c-1.794-1.48-3.925-2.293-5.866-3.516-.147-.094-.047-.357.121-.32a15.483,15.483,0,0,1,8.343,4.78c1.516,1.8,3.2,4.959,1.291,7.079-1.516,1.69-3.736.729-5.121-.651-3.127-3.127-1.962-8.532-5.216-11.381a.073.073,0,0,1,.089-.115Z" transform="translate(-420.027 -426.862)"/></g><g transform="translate(52.948 34.061)"><g transform="translate(0.075 0.081)"><path class="c" d="M423.2,427.3a4.444,4.444,0,0,1,2.24,2.33,17.134,17.134,0,0,0,1.6,2.629,4.312,4.312,0,0,0,2.534,1.643,1.843,1.843,0,0,0,.955-.063,1.625,1.625,0,0,0,.913-1.627,3.189,3.189,0,0,0-.834-1.773c-1.674-1.963-4.387-2.666-6.947-2.98" transform="translate(-423.196 -427.299)"/></g><path class="c" d="M423.278,427.3c2.66.886,2.875,3.993,4.969,5.536q1.771,1.614,2.309-1.6l-.31-.393A6.919,6.919,0,0,0,427.612,429c-1.275-.6-2.676-.75-3.956-1.307a.182.182,0,0,1,.037-.346,9.109,9.109,0,0,1,6.459,1.894c1.154.96,2.419,2.629,1.606,4.187-.724,1.4-2.377,1.17-3.542.488-2.519-1.48-2.6-5.085-5.006-6.491-.068-.042,0-.147.068-.126Z" transform="translate(-423.182 -427.283)"/></g><g transform="translate(1.878 17.562)"><g transform="translate(0.667 0.677)"><path class="c" d="M413.576,424.525c8.91,7.514,20.994,10.5,32.176,11,10.305.467,21.424-1.354,30.318,3.878a33.116,33.116,0,0,0,5.336,3.049c1.931.693,4.329.635,5.772-.824a5.009,5.009,0,0,0,.787-5.273,11.112,11.112,0,0,0-3.515-4.334,35.725,35.725,0,0,0-19.646-7.593,54.708,54.708,0,0,0-21.068,2.734c-3.427,1.092-6.806,2.44-10.374,2.87-6.926.834-13.832-1.868-19.787-5.5" transform="translate(-413.576 -424.268)"/></g><path class="c" d="M414.263,424.873c11.958,8.091,24.673,10.5,38.914,10.426,5.9-.031,11.906-.2,17.646,1.364a27.823,27.823,0,0,1,7.325,3.269c1.774,1.1,3.7,2.76,5.908,2.744,7.855-.047,3.311-7.047,1.338-8.894-10.185-9.529-25.932-9.623-38.594-6.108-5.593,1.553-10.914,4.009-16.854,3.684-5.835-.325-11.266-2.818-16.214-5.767-.713-.425.058-1.459.766-1.039,6.045,3.579,12.814,6.26,19.961,5.252,6.008-.845,11.644-3.678,17.636-4.791,10.395-1.931,21.592-.85,30.586,5.069,3.07,2.02,6.952,4.99,6.842,9.1-.094,3.626-3.3,5.431-6.654,4.843a15.146,15.146,0,0,1-5.184-2.429,28.119,28.119,0,0,0-10.463-4.009c-6.034-1.023-12.226-.509-18.313-.593-12.116-.168-26.016-3.07-34.994-11.77-.21-.2.121-.509.346-.357Z" transform="translate(-413.449 -424.139)"/></g></g><g transform="translate(119.559 829.181)"><g transform="translate(1.632 8.704)"><g transform="translate(2.004 2.136)"><path class="c" d="M423.174,435.128a43.744,43.744,0,0,1-12.027-2.34c-3.825-1.322-8.044-4.093-7.824-8.138a3.956,3.956,0,0,1,1.029-2.561c1.947-2,5.336-.64,7.614.987a53.421,53.421,0,0,1,11.586,11.3" transform="translate(-403.315 -421.088)"/></g><path class="c" d="M425,436.232c-2.729-.551-22.379-5.541-17.258-10.667,3.484-3.479,14.414,8.768,16.817,11.114.661.645,1.857-.11,1.364-.976-2.608-4.56-16.377-21.74-22.128-12.163-2.125,3.542.016,7.677,2.933,9.938,5.058,3.925,11.922,4.408,18.051,4.035.672-.037,1-1.123.22-1.281Z" transform="translate(-402.933 -420.681)"/></g><g transform="translate(16.245)"><g transform="translate(1.907 1.933)"><path class="c" d="M411.425,442.338a43.715,43.715,0,0,1-4.738-11.3c-1.023-3.919-1.065-8.962,2.414-11.03a3.971,3.971,0,0,1,2.7-.567c2.755.5,3.5,4.077,3.411,6.874a53.412,53.412,0,0,1-2.954,15.915" transform="translate(-406.082 -419.391)"/></g><path class="c" d="M413.546,443.593a81.038,81.038,0,0,1-3.159-9.923c-.467-1.752-2.183-9.167.672-9.938l3.6,1.307a9.557,9.557,0,0,1,.325,2.786,41.841,41.841,0,0,1-.294,4.859A96.28,96.28,0,0,1,413,443.546c-.168.845,1.071,1.642,1.517.7,2.146-4.491,9.2-27.007-2.755-25.113-4.617.729-6.244,5.609-6.024,9.681.32,5.887,3.274,10.961,6.753,15.537.483.635,1.317-.126,1.055-.761Z" transform="translate(-405.718 -419.023)"/></g><g transform="translate(22.832 7.655)"><g transform="translate(0.662 2.351)"><path class="c" d="M407.1,435.8a43.837,43.837,0,0,1,6.758-10.216c2.687-3.033,6.858-5.866,10.516-4.124a3.971,3.971,0,0,1,1.973,1.931c1.107,2.571-1.448,5.179-3.825,6.659a53.5,53.5,0,0,1-14.865,6.386" transform="translate(-407.1 -420.93)"/></g><path class="c" d="M408.192,438.058a81.425,81.425,0,0,1,6.627-8.322c1.784-2.036,4.959-5.51,7.986-4.9,6.874,1.4-3.915,7.509-5.279,8.259-3.18,1.748-6.407,3.075-9.739,4.5-.945.4-.278,1.679.6,1.564a37.227,37.227,0,0,0,16.791-6.5c3.227-2.409,5.635-6.911,1.962-10.138-8.847-7.771-17.988,8.668-20.128,14.986a.658.658,0,0,0,1.181.546Z" transform="translate(-406.974 -420.481)"/></g><g transform="translate(22.351 23.592)"><g transform="translate(0.782 1.258)"><path class="c" d="M407.325,423.825a43.808,43.808,0,0,1,12.21,1.044c3.946.908,8.432,3.211,8.653,7.251a4,4,0,0,1-.75,2.655c-1.726,2.2-5.237,1.212-7.677-.163a53.665,53.665,0,0,1-12.73-10" transform="translate(-407.031 -423.758)"/></g><path class="c" d="M407.937,425.5a69.838,69.838,0,0,1,11.686,2.125,16.2,16.2,0,0,1,3.8,1.448,8.783,8.783,0,0,1,2.235,1.689q2.164,1.708-.016,3.112c-1.773,2.183-3.421.734-5.588-.467-1.291-.719-2.519-1.553-3.757-2.351a102.138,102.138,0,0,1-8.18-6.134c-.813-.651-1.59.583-1.071,1.286,2.938,3.988,19.924,20.574,23.481,8.915,1.3-4.25-1.973-7.8-5.5-9.513-5.4-2.618-11.455-2.387-17.227-1.406-.761.131-.577,1.228.131,1.3Z" transform="translate(-406.882 -423.519)"/></g><g transform="translate(16.968 22.915)"><g transform="translate(1.774 0.774)"><path class="c" d="M410.087,423.537a43.876,43.876,0,0,1,4.675,11.324c1,3.925,1.013,8.967-2.482,11.019a3.99,3.99,0,0,1-2.7.551c-2.75-.525-3.479-4.1-3.374-6.9a53.546,53.546,0,0,1,3.049-15.894" transform="translate(-406.194 -423.537)"/></g><path class="c" d="M410.945,424.473a80.2,80.2,0,0,1,3.1,9.949c.457,1.747,2.13,9.188-.735,9.928q-1.794-.669-3.589-1.344a9.37,9.37,0,0,1-.3-2.786,40.83,40.83,0,0,1,.325-4.859,95.26,95.26,0,0,1,1.748-10.846c.178-.85-1.065-1.637-1.517-.7-2.167,4.476-9.35,26.976,2.624,25.124,4.612-.708,6.265-5.588,6.071-9.655-.289-5.882-3.217-10.977-6.664-15.569-.483-.64-1.317.131-1.06.761Z" transform="translate(-405.856 -423.389)"/></g><g transform="translate(0 23.28)"><g transform="translate(2.127 0.871)"><path class="c" d="M424.4,424.354a43.741,43.741,0,0,1-8.621,8.71c-3.222,2.445-7.865,4.418-11.108,1.994a3.964,3.964,0,0,1-1.564-2.272c-.588-2.739,2.429-4.8,5.048-5.793a53.471,53.471,0,0,1,15.826-3.369" transform="translate(-403.028 -423.625)"/></g><path class="c" d="M425.671,424.582c-2.194,2.188-15.469,14.913-18.554,9.219-2.744-5.058,16.125-8.1,18.78-8.647a.851.851,0,0,0-.168-1.669c-5.063-.31-28.372,2.041-22.018,12.179,2.4,3.836,7.236,3.668,10.9,2.01,5.457-2.466,9.135-7.22,12.058-12.263.362-.624-.457-1.375-1-.829Z" transform="translate(-402.622 -423.459)"/></g><g transform="translate(18.644 19.142)"><path class="b" d="M415.3,427.4a4.563,4.563,0,1,1-4.4-4.723A4.567,4.567,0,0,1,415.3,427.4Z" transform="translate(-406.175 -422.67)"/></g></g><g transform="translate(124.91 808.453)"><g transform="translate(24.605 1.093)"><path class="c" d="M422.612,423.952A7.214,7.214,0,1,1,417,415.43,7.216,7.216,0,0,1,422.612,423.952Z" transform="translate(-408.331 -415.28)"/></g><g transform="translate(9.957 0.197)"><path class="c" d="M414.55,420.578a4.551,4.551,0,1,1-3.542-5.373A4.552,4.552,0,0,1,414.55,420.578Z" transform="translate(-405.54 -415.11)"/></g><g transform="translate(44.118 7.22)"><path class="c" d="M421.064,421.92a4.554,4.554,0,1,1-3.542-5.378A4.554,4.554,0,0,1,421.064,421.92Z" transform="translate(-412.05 -416.448)"/></g><g transform="translate(59.663 12.521)"><path class="c" d="M418.782,419.743a1.9,1.9,0,1,1-1.48-2.246A1.907,1.907,0,0,1,418.782,419.743Z" transform="translate(-415.013 -417.459)"/></g><path class="c" d="M408.043,417.747a2.223,2.223,0,1,1-1.731-2.629A2.22,2.22,0,0,1,408.043,417.747Z" transform="translate(-403.642 -415.072)"/></g></g><path class="f" d="M470.395,601.454c-24.384-19.1-35.7-61.76-33.845-89.119,3.337-49.114,48.563-87.639,52.41-136.717,1.684-21.424-4.817-42.781-3.936-64.258.346-8.406,2.55-17.856,9.833-22.075,7.1-4.114,16.692-1.307,22.385,4.612s8.212,14.188,9.629,22.28c5.7,32.533-3.558,66.031-17.615,95.92s-32.853,57.3-47.944,86.679c-5.221,10.175-10.043,20.716-12.121,31.956-4.644,25.119,11.576,53.212,21.2,70.723" transform="translate(240.038 111.857)"/><path class="g" d="M454.462,373.4c1.317-5.242-.425-10.72-2.361-15.763-6.774-17.583-16.445-35.471-13.611-54.1.682-4.513,2.928-9.671,7.435-10.39,4.885-.782,8.684,4.135,10.725,8.648,10.09,22.3,6.9,48.574-1.5,71.562" transform="translate(246.956 136.188)"/><path class="g" d="M448.242,362.719c4.649-10.794,9.854-21.472,17.116-30.717s16.765-17.043,27.952-20.648a9.021,9.021,0,0,1,4.917-.535c4.319,1.086,5.147,6.853,4.565,11.261-.493,3.752-1.448,7.645-4.025,10.416-1.947,2.1-4.628,3.337-7.231,4.523Q476.212,344,460.893,350.976c-5.263,2.393-11.308,5.877-11.591,11.654" transform="translate(290.531 210.9)"/><path class="g" d="M484.123,382.728a40.249,40.249,0,0,0-24.011-11.46c-2.718-.283-5.468-.289-8.18-.661a30.989,30.989,0,0,1-11.575-4.019c-4.8-2.828-8.957-7.273-10.038-12.74s1.721-11.843,7.01-13.59c6-1.984,12.153,2.209,16.88,6.391a181.576,181.576,0,0,1,31.945,37.072" transform="translate(213.428 334.466)"/><path class="g" d="M445.247,397.053a40.256,40.256,0,0,1,12.284-23.6c2-1.863,4.192-3.521,6.139-5.447a31.024,31.024,0,0,0,6.827-10.18c2.13-5.147,2.776-11.2.352-16.214s-8.5-8.427-13.779-6.638c-5.977,2.025-8.375,9.078-9.639,15.264a181.519,181.519,0,0,0-3.206,48.831" transform="translate(271.592 312.133)"/><path class="g" d="M443.8,372.33a40.206,40.206,0,0,1,21.776-15.285c2.634-.734,5.347-1.2,7.96-2.01a31.062,31.062,0,0,0,10.746-5.887c4.261-3.589,7.624-8.663,7.782-14.236S488.4,323.52,482.9,322.675c-6.244-.955-11.617,4.2-15.59,9.109a181.366,181.366,0,0,0-25.339,41.862" transform="translate(263.88 261.459)"/><path class="h" d="M439.124,427.661c-8.737-17.751-8.175-38.866-3.154-58s14.157-36.878,22.28-54.918" transform="translate(222.998 228.25)"/><path class="h" d="M453.044,283.8c3.2-.818,6.013,2.167,7.855,4.906a109.45,109.45,0,0,1,13.591,92.079" transform="translate(310.926 96.249)"/><path class="g" d="M443.372,480.755a234.7,234.7,0,0,1-31.221-114.889c-.21-27.768,6.36-58.549,29-74.626,4.339-3.08,9.844-5.573,14.871-3.825,4.408,1.527,7.184,5.935,8.663,10.358,6.265,18.775-4.917,38.384-14.54,55.673-13.538,24.321-25.04,51.449-22.1,79.128,1.81,17.022,8.989,32.995,16.985,48.128" transform="translate(137.223 109.739)"/><path class="g" d="M446.5,337.616c-5.693,1.186-11.449,2.34-17.263,2.183s-11.759-1.731-16.219-5.462c-3.222-2.7-5.614-7.241-3.872-11.072,1.506-3.316,5.667-4.77,9.267-4.219s6.764,2.666,9.681,4.848c6.029,4.5,11.89,9.666,19.132,11.68" transform="translate(122.002 246.051)"/><path class="g" d="M437.706,336.7a43.711,43.711,0,0,1-28.466-14.844c-1.936-2.256-3.71-5.4-2.351-8.044.939-1.826,3.1-2.7,5.147-2.844,7.4-.535,13.129,6.055,17.552,12.006q4.754,6.4,9.5,12.788" transform="translate(112.864 212.094)"/><path class="g" d="M433.021,327.416a37.048,37.048,0,0,1-21.346-7.934c-4.166-3.306-7.755-9.272-4.743-13.659,2.177-3.169,6.937-3.615,10.405-1.963s5.924,4.843,8.1,8.013a141.337,141.337,0,0,1,9.293,15.574" transform="translate(110.334 178.042)"/><path class="g" d="M429.028,319.121a30.735,30.735,0,0,1-14.11-4.093,18.361,18.361,0,0,1-8.579-11.591c-.729-3.6.824-8.364,4.486-8.642,2.167-.163,4.077,1.343,5.646,2.849a58.552,58.552,0,0,1,13.921,20.8" transform="translate(111.813 143.482)"/><path class="g" d="M419.1,324.377q7.761-10.027,15.516-20.06a13.381,13.381,0,0,1,4.145-4c1.726-.892,4.072-.876,5.379.556,1.2,1.317,1.154,3.353.74,5.09-1.275,5.331-5.258,9.692-9.9,12.614s-9.933,4.586-15.164,6.223" transform="translate(166.741 164.415)"/><path class="g" d="M416.854,333.618a38.919,38.919,0,0,1,15.075-24.678c1.3-.96,2.823-1.879,4.429-1.663,1.952.268,3.332,2.235,3.521,4.193a10.543,10.543,0,0,1-1.469,5.646,33.056,33.056,0,0,1-21.551,16.854" transform="translate(157.219 196.412)"/><path class="g" d="M418.949,347.414c-.834-9.9-1.5-20.569,3.694-29.038a8.593,8.593,0,0,1,3.636-3.6,3.858,3.858,0,0,1,4.675,1.039,5.331,5.331,0,0,1,.693,2.629c.761,11.26-5.462,21.676-11.455,31.237" transform="translate(163.693 226.872)"/><path class="g" d="M421.549,282.886c3.154-.026,6.008,1.826,8.343,3.941,11.6,10.495,14.388,28.524,9.293,43.311" transform="translate(177.159 92.954)"/><path class="g" d="M416.26,324.86a36.734,36.734,0,0,1,7.955,31.625" transform="translate(154.696 271.228)"/><path class="g" d="M419.748,320.244a36.63,36.63,0,0,1-9.282-28.619c.226-1.952.7-4.04,2.193-5.326,2.1-1.8,5.573-1.175,7.472.84s2.445,4.99,2.209,7.75a53.358,53.358,0,0,1-1.815,8.086,45.143,45.143,0,0,0-1.023,15.936" transform="translate(129.101 102.931)"/><path class="g" d="M415.246,328.109a62.957,62.957,0,0,1-.472,47.2" transform="translate(148.384 285.027)"/><path class="i" d="M445.035,353.29c25.538,34.259,24.641,85.777-2.073,119.128" transform="translate(268.11 391.977)"/><path class="i" d="M442.2,474.9c33.488-30.03,50.9-77.04,45.042-121.636" transform="translate(264.873 391.862)"/><path class="i" d="M443.343,472.39c36.579-28.088,59.388-73.325,60.228-119.438" transform="translate(269.724 390.541)"/><path class="i" d="M443.6,399.414c25.963,40.22,28.2,94.6,5.635,136.817" transform="translate(270.82 587.877)"/><path class="i" d="M443.557,399.081A158.54,158.54,0,0,1,488.1,497.042" transform="translate(270.633 586.463)"/><path class="i" d="M443.049,399.58c6.459-2.45,13.632.614,19.609,4.093a130.666,130.666,0,0,1,41.7,38.615" transform="translate(268.475 584.83)"/></g></svg>