<svg xmlns="http://www.w3.org/2000/svg" width="477.27" height="55.671" viewBox="0 0 477.27 55.671"><defs><style>.a{fill:#2d2825;}</style></defs><g transform="translate(-205.396 -575.548)"><path class="a" d="M292.2,578.228a1.1,1.1,0,0,0-.559-.857c-2.586-1.444-9.638,6.823-14.607,15.448-1.42,2.5-2.9,5.154-4.087,7.579-8.121,7.631-14.085,11.664-17.249,11.664a2.6,2.6,0,0,1-1.151-.234c-.675-.32-1-1.1-1-2.376,0-3.43,2.436-9.32,4.563-13.808a9.173,9.173,0,0,1,1.079.74,3.019,3.019,0,0,0,1.89.813.65.65,0,0,0,.46-.232c.548-.687-.577-1.651-1.067-2.071a12.82,12.82,0,0,0-1.262-.9c.98-1.316,1.938-2.55,2.867-3.747a84.711,84.711,0,0,0,5.152-7.111c2.215-3.593,3.182-5.925,2.876-6.932a.91.91,0,0,0-.508-.589c-2.566-1.076-8.873,10.732-11.456,15.828-.165.284-.32.579-.479.887-.093.178-.188.361-.288.548-4.177-2.284-11.655-4.649-20.571-4.649a50.315,50.315,0,0,0-10.771,1.2C213.3,592.3,205.4,598.587,205.4,605.845a10.852,10.852,0,0,0,.52,3.177c1.55,5.025,6.932,7.907,14.766,7.907a34.96,34.96,0,0,0,9.33-1.293c8.342-2.332,16.026-7.359,24.033-15.756-1.807,4.177-2.721,7.466-2.721,9.8,0,2,.693,3.336,2.048,3.964a4.284,4.284,0,0,0,2.006.408c3.485,0,8.456-2.985,15.568-9.365-1.522,3.576-2.319,6.463-2.319,8.415,0,1.616.553,2.619,1.645,2.983,2.178.727,4.521-1.337,5.5-2.833a1.14,1.14,0,0,0,.194-.95.524.524,0,0,0-.327-.312,1.016,1.016,0,0,0-1.084.5c-.752.973-2.3,2.474-3.324,1.947-.8-.436.422-5.611,5.567-15.339l1.143-1.143C284.189,591.787,292.637,581.294,292.2,578.228Zm-2.283,1.48c-.353,1.468-5.389,8.427-9.626,13.261C285.933,583.487,289.027,579.895,289.916,579.708ZM236.8,590.268c8.434,0,15.887,2.183,19.51,4.3l-.154.173c-.341.383-.69.773-1.066,1.151-6.035,6.4-18.786,14.081-29.673,15.858a40.832,40.832,0,0,1-6.239.544c-5.925,0-9.8-1.769-10.9-4.977a6.214,6.214,0,0,1-.344-2.018c0-7.274,10.158-12.057,18.861-13.944A45.35,45.35,0,0,1,236.8,590.268Z" transform="translate(0)"/><path class="a" d="M366.854,596.294c.956,0,2.3-1.4,3.043-2.761.686-1.182.908-2.211.6-2.753a.794.794,0,0,0-.718-.4c-.957,0-2.3,1.406-3.041,2.757-.687,1.183-.911,2.214-.6,2.757A.794.794,0,0,0,366.854,596.294Z" transform="translate(-31.639 -2.921)"/><path class="a" d="M462.247,596.294c.956,0,2.3-1.4,3.043-2.761.685-1.182.908-2.211.6-2.753a.793.793,0,0,0-.717-.4c-.957,0-2.3,1.406-3.041,2.757-.687,1.183-.911,2.214-.6,2.757A.8.8,0,0,0,462.247,596.294Z" transform="translate(-50.431 -2.921)"/><path class="a" d="M434.48,602.548a1.043,1.043,0,0,0-.982.35,52.132,52.132,0,0,1-5.5,5.087,21.853,21.853,0,0,1-5.449,3.495c-.722.252-.938.137-.988.1-.118-.1-.149-.414-.08-.853.22-1.716,1.384-3.784,3.455-7,1.5-2.354,3.123-4.671,4.194-6.2.414-.592.734-1.05.906-1.309a.55.55,0,0,0-.018-.74c-.408-.414-1.659-.159-2.016.1a76.855,76.855,0,0,0-6.342,7.019,1.29,1.29,0,0,0-1.512.469,48,48,0,0,1-5.75,5.25c-1.79,1.417-4.033,3.065-5.517,3.251a.8.8,0,0,1-.6-.076.387.387,0,0,1-.079-.292c.22-1.506,2.2-4.386,5.886-8.56a8.29,8.29,0,0,0,2.29-4.875,2.467,2.467,0,0,0-2.245-2.586c-1.926-.363-4.278.765-6.031,1.873.556-.8,1.114-1.6,1.659-2.391a27.9,27.9,0,0,0,8.145-6.019c2.671-2.715,6.37-8.02,6.37-10.919a1.821,1.821,0,0,0-.836-1.714c-1.723-1.023-4.39.894-6.275,3.247-3.411,4.376-6.728,9.154-9.935,13.775-2.188,3.153-4.445,6.4-6.727,9.512a1.454,1.454,0,0,0-.2-.018c-.475-.014-.851.356-1.679,1.2a49.5,49.5,0,0,1-5.806,5.136c-2.67,2.062-5.378,3.294-7.241,3.294-1.631,0-2.566-1.184-2.566-3.25a11.806,11.806,0,0,1,2.218-6.172c2.577-3.953,5.466-5.753,7.059-5.753.276,0,.74.055.74.42A3.76,3.76,0,0,1,391.4,599.9c-.262.217-.393.327-.393.545,0,.542,1.207,1.492,2.182,1.543a1,1,0,0,0,.846-.42,7.876,7.876,0,0,0,1.474-3.862,2.586,2.586,0,0,0-2.821-2.639c-2.892,0-8.243,3.288-11.442,7.544a1.036,1.036,0,0,0-.334-.056,1.1,1.1,0,0,0-.824.343,51.963,51.963,0,0,1-5.5,5.087c-2.178,1.767-4.946,3.654-6.184,3.654-.185,0-.375,0-.375-.512,0-1.682,1.177-3.813,3.5-7.406,1-1.547,2.2-3.259,3.164-4.633,1.809-2.577,2.059-2.972,2.059-3.254,0-.218-.112-.585-.858-.585-.992,0-1.207.159-2.049,1.01-.179-.668-.756-1.558-2.562-1.558-3.284,0-9,2.965-13.109,7.943a1.031,1.031,0,0,0-.29-.1,1.044,1.044,0,0,0-.983.35,52.051,52.051,0,0,1-5.5,5.087,21.838,21.838,0,0,1-5.449,3.495c-.722.252-.937.137-.987.1-.119-.1-.149-.414-.08-.853.22-1.716,1.384-3.784,3.455-7,1.5-2.354,3.122-4.671,4.194-6.2.413-.592.733-1.05.9-1.309a.548.548,0,0,0-.018-.74c-.408-.414-1.657-.159-2.016.1a76.809,76.809,0,0,0-6.368,7.052l-.031.04a1.2,1.2,0,0,0-1.408.4,47.045,47.045,0,0,1-5.609,5.065c-3.374,2.6-6.808,4.137-7.946,3.936-.022-.006-.066-.033-.054.009a2.729,2.729,0,0,1,.839-2.093c.858-1.044,1.916-2.134,2.939-3.189,2.329-2.4,4.527-4.665,4.73-6.619.174-2.005-1.475-2.729-2.566-3.207-.226-.1-.435-.19-.6-.282a2.97,2.97,0,0,1-.676-.51,3.366,3.366,0,0,0,.7-1.421,1.864,1.864,0,0,0-.341-1.506,1.468,1.468,0,0,0-1.153-.45,2.118,2.118,0,0,0-1.938,1.795,2.032,2.032,0,0,0,.136,1.612,22.312,22.312,0,0,1-3.2,4.128l-.832.964q-.636.738-1.213,1.4a.984.984,0,0,0-.479-.129,1.1,1.1,0,0,0-.823.343,52.044,52.044,0,0,1-5.5,5.087c-2.178,1.767-4.947,3.654-6.185,3.654-.184,0-.374,0-.374-.512,0-1.682,1.177-3.813,3.5-7.406.995-1.547,2.2-3.259,3.163-4.633,1.809-2.577,2.06-2.972,2.06-3.254,0-.218-.112-.585-.858-.585-.992,0-1.207.159-2.05,1.01-.178-.668-.756-1.558-2.562-1.558-3.377,0-9.337,3.132-13.462,8.37-2.525,3.183-3.055,5.616-3.055,7.1,0,2.279,1.329,3.87,3.232,3.87,1.747,0,3.625-1.046,5.717-3.19v.049a3.1,3.1,0,0,0,3.285,3.186c2.532-.047,6.291-2.843,8.1-4.187l.124-.092c1.01-.751,2.447-1.952,3.722-3.1a.811.811,0,0,0,.117.061,1.552,1.552,0,0,0,1.47-.44,47.227,47.227,0,0,0,4.157-4.384c.944-1.088,2.678-3.231,3.345-4.058a3.56,3.56,0,0,0,.772.5c.257.14.519.262.772.38.87.406,1.41.684,1.532,1.244.088.585-.65,1.476-2.034,2.45a25,25,0,0,1-2.2,1.443,29.793,29.793,0,0,0-3.514,2.4c-1.765,1.4-3.761,3.565-3.245,5.884.177.767.892,2.01,3.664,2.01.141,0,.287,0,.438-.01,2.655-.089,5.914-1.67,9.689-4.7l0,0c.825-.671,1.581-1.3,2.277-1.9a8.672,8.672,0,0,0-.915,2.188,3.848,3.848,0,0,0,.457,3.018,3.12,3.12,0,0,0,2.256,1.256,3.152,3.152,0,0,0,.4.026c2.62,0,6.5-2.937,8.205-4.227l-.2-.351.243.32,0,0c.921-.708,2.232-1.8,3.442-2.869a8.539,8.539,0,0,0-.711,3.236c0,2.279,1.33,3.87,3.233,3.87,1.746,0,3.624-1.046,5.716-3.19v.049a3.1,3.1,0,0,0,3.285,3.186c2.532-.047,6.291-2.843,8.1-4.187l.124-.092c1.054-.783,2.571-2.056,3.885-3.251a8.6,8.6,0,0,0-.464,2.7c0,3.12,2.323,5.059,6.063,5.059,3.57,0,6.576-2.154,8.769-3.726.785-.556,1.678-1.245,2.57-1.975-1.861,2.57-2.68,3.826-2.746,4.388a.7.7,0,0,0,.279.615,2.727,2.727,0,0,0,1.542.5,1.2,1.2,0,0,0,.316-.037c.216-.026.542-.067,7.12-9.426a29.58,29.58,0,0,1,6.657-5.978c3.048-2.009,4.164-1.956,4.556-1.563a.315.315,0,0,1,.07.259c-.064,1.165-2.5,3.915-6.2,7.009-1.926,1.62-4.125,3.812-4.023,6.4.1,2.109,2.045,3.214,3.932,3.214h0c2.314-.1,5.235-2.183,8.534-4.692.724-.546,1.426-1.123,2.087-1.691a8.62,8.62,0,0,0-.9,2.151,3.851,3.851,0,0,0,.457,3.018,3.437,3.437,0,0,0,2.66,1.282c2.62,0,6.5-2.937,8.2-4.227l-.2-.351.242.32,0,0a54,54,0,0,0,6.224-5.581,1.116,1.116,0,0,0,.333-1.131A.876.876,0,0,0,434.48,602.548ZM316.5,596.509c.642,0,.968.341.968,1.014a2.154,2.154,0,0,1-.448,1.287c-2.04,2.325-3.5,4.123-5.226,6.418-2.013,2.732-5.772,6.685-7.3,6.685-.479,0-.649-.645-.649-1.206-.036-1.531,1.207-4.782,4.831-8.9C311.707,598.366,314.97,596.509,316.5,596.509Zm95.779-5.639c.647-.975,1.283-1.943,1.909-2.9l.931-1.415.236-.36c5.046-7.664,6.3-8.029,6.618-7.827a.222.222,0,0,1,.038.124c.158,1.286-2.443,5.822-5.316,8.7A33.356,33.356,0,0,1,412.278,590.87ZM371.1,596.509c.642,0,.968.341.968,1.014a2.158,2.158,0,0,1-.447,1.287c-2.04,2.325-3.505,4.123-5.226,6.418-2.014,2.732-5.773,6.685-7.3,6.685-.479,0-.649-.645-.649-1.206-.036-1.531,1.207-4.782,4.831-8.9C366.3,598.366,369.566,596.509,371.1,596.509Z" transform="translate(-18.669 -0.032)"/><path class="a" d="M551.4,578.773a4.766,4.766,0,0,1,4.152,2.038c.305.38.525.654.87.654l.1-.011c.157-.039.67-.239.67-1.167,0-2.244-2.345-4.647-5.835-4.647-8.013,0-15.061,8.415-22.523,17.322-2.656,3.17-5.4,6.448-8.171,9.28-2.786,2.877-12.18,9.922-15.553,9.922a1.3,1.3,0,0,1-1.288-1.425c0-1.653,1.569-4.491,4.195-7.59,1.293-1.5,2.756-2.961,4.172-4.371,4.438-4.421,9.027-8.992,9.027-15.614,0-3.452-1.844-7.568-10.628-7.568a27.484,27.484,0,0,0-15.524,5c-5.36,3.748-8.435,8.676-8.435,13.523,0,5.041,3.043,8.3,7.751,8.3a20.165,20.165,0,0,0,10.928-3.827c5.637-4.328,7.141-8.493,7.141-10.27a.844.844,0,0,0-.858-.9c-.211,0-.921.084-1.206,1.153a15.609,15.609,0,0,1-6.207,8.611,19.024,19.024,0,0,1-9.843,3.477c-1.431,0-4.758-.4-4.758-4.119,0-4.483,5.5-11.574,11.761-15.175a23.874,23.874,0,0,1,11.44-3.6c4.005,0,6.492,1.946,6.492,5.077,0,2.248-1.169,5.106-3.206,7.839a43.548,43.548,0,0,1-6.88,6.446c-4.94,4.052-10.047,8.243-10.047,13.153,0,1.945,1.175,4.229,4.521,4.191,4.966,0,13.1-5.459,18.259-10.616,2.625-2.6,5.3-5.614,7.887-8.528C537.03,587.19,544.5,578.773,551.4,578.773Z" transform="translate(-55.402 -0.009)"/><path class="a" d="M747.87,607.274a.905.905,0,0,0-.7-.581,1.143,1.143,0,0,0-1.07.467c-.6.722-3.5,3.779-5.662,4.441a5.933,5.933,0,0,1-1.881.345,2.873,2.873,0,0,1-1.332-.3,24.911,24.911,0,0,0,1.938-2.5,12.254,12.254,0,0,0,2.488-6.481,3.41,3.41,0,0,0-3.734-3.688c-3.681,0-9.028,3.344-12.74,7.773a1.236,1.236,0,0,0-1.431.482,48.788,48.788,0,0,1-5.8,5.254c-1.79,1.417-4.033,3.065-5.517,3.251a.787.787,0,0,1-.6-.076.378.378,0,0,1-.08-.292c.22-1.506,2.2-4.386,5.885-8.56a8.287,8.287,0,0,0,2.291-4.875,2.467,2.467,0,0,0-2.245-2.586c-1.941-.365-4.3.777-6.06,1.892.567-.854.679-1.135.675-1.381a.533.533,0,0,0-.38-.41,3.857,3.857,0,0,0-2.367.163,89.558,89.558,0,0,0-5.5,7.172,1.03,1.03,0,0,0-.274-.046,1.1,1.1,0,0,0-.824.343,51.957,51.957,0,0,1-5.5,5.087c-2.178,1.767-4.947,3.654-6.185,3.654-.184,0-.374,0-.374-.512,0-1.682,1.177-3.813,3.5-7.406.995-1.547,2.2-3.259,3.163-4.633,1.809-2.577,2.06-2.972,2.06-3.254,0-.218-.112-.585-.858-.585-.992,0-1.207.159-2.05,1.01-.179-.668-.756-1.558-2.562-1.558-3.3,0-9.055,2.993-13.166,8.012a.841.841,0,0,0-.6-.157,1.227,1.227,0,0,0-.777.411c-1.971,2.3-6.806,7.095-10.446,9.328a4.473,4.473,0,0,0,.1-.939,2.705,2.705,0,0,0-.352-1.425,39.77,39.77,0,0,0,6.842-9.222,7.348,7.348,0,0,0,.815-3.05A2.312,2.312,0,0,0,674.6,599.4c-2.362-.52-5.726.98-10.287,4.6-1.474,1.16-2.568,2.1-3.425,2.879a.974.974,0,0,0-.366-.142,1.037,1.037,0,0,0-.976.342,62.97,62.97,0,0,1-5.507,5.094,21.875,21.875,0,0,1-5.449,3.5c-.74.258-.97.133-1.024.088-.125-.1-.158-.408-.092-.835.267-1.738,1.437-3.8,3.5-7.016.806-1.29,1.747-2.639,2.578-3.831,1.744-2.5,2.4-3.5,2.369-4.006a.694.694,0,0,0-.329-.612c-.6-.37-1.7.155-1.734.172-.218.126-.6.634-2.571,3.4-.972,1.368-2.073,2.916-3.025,4.186-3.321,4.314-5.957,7.233-8.837,8.461-.444.2-.789.239-.945.127s-.231-.484-.184-.993c.2-1.795,1.258-3.406,3.171-6.332l.377-.577c.806-1.29,1.747-2.639,2.578-3.831,1.745-2.5,2.4-3.5,2.369-4.006a.692.692,0,0,0-.33-.612c-.6-.37-1.7.155-1.733.172-.461.265-4.836,5.5-6.184,7.172l-.036.045a1.2,1.2,0,0,0-1.409.4,47.156,47.156,0,0,1-5.608,5.065c-3.375,2.6-6.814,4.134-7.947,3.936-.023-.006-.066-.033-.054.009a2.724,2.724,0,0,1,.84-2.093c.858-1.044,1.916-2.134,2.938-3.189,2.328-2.4,4.528-4.665,4.73-6.619.174-2.005-1.475-2.729-2.567-3.207-.225-.1-.434-.19-.6-.282a3.009,3.009,0,0,1-.676-.51,3.375,3.375,0,0,0,.7-1.421,1.864,1.864,0,0,0-.342-1.506,1.466,1.466,0,0,0-1.152-.45,2.118,2.118,0,0,0-1.938,1.795,2.035,2.035,0,0,0,.137,1.612,22.318,22.318,0,0,1-3.2,4.128l-.831.964q-.606.7-1.16,1.339l-.036-.027a.926.926,0,0,0-.426-.086c-.486-.026-.851.354-1.679,1.2a49.491,49.491,0,0,1-5.807,5.136c-2.67,2.062-5.377,3.294-7.241,3.294-1.631,0-2.566-1.184-2.566-3.25a11.813,11.813,0,0,1,2.218-6.172c2.578-3.953,5.466-5.753,7.059-5.753.276,0,.74.055.74.42A3.758,3.758,0,0,1,611,604.088c-.261.218-.392.327-.392.545,0,.542,1.207,1.492,2.182,1.543a1,1,0,0,0,.845-.42,7.877,7.877,0,0,0,1.474-3.862,2.586,2.586,0,0,0-2.821-2.639c-2.892,0-8.243,3.288-11.441,7.544a1.045,1.045,0,0,0-.335-.056,1.1,1.1,0,0,0-.825.343,51.93,51.93,0,0,1-5.5,5.087c-2.179,1.767-4.948,3.654-6.185,3.654-.185,0-.375,0-.375-.512,0-1.682,1.178-3.813,3.5-7.406,1-1.547,2.2-3.259,3.164-4.633,1.809-2.577,2.059-2.972,2.059-3.254,0-.218-.112-.585-.858-.585-.992,0-1.207.159-2.05,1.01-.179-.668-.756-1.558-2.561-1.558-3.288,0-9.015,2.972-13.122,7.958a1.2,1.2,0,0,0-1.419.391,47.157,47.157,0,0,1-5.608,5.065c-3.374,2.6-6.813,4.134-7.946,3.936-.023-.006-.065-.033-.054.009a2.724,2.724,0,0,1,.84-2.093c.858-1.044,1.916-2.134,2.938-3.189,2.328-2.4,4.528-4.665,4.73-6.619.174-2.005-1.475-2.729-2.567-3.207-.225-.1-.434-.19-.6-.282a3.008,3.008,0,0,1-.676-.51,3.375,3.375,0,0,0,.7-1.421,1.864,1.864,0,0,0-.342-1.506,1.466,1.466,0,0,0-1.153-.45,2.118,2.118,0,0,0-1.938,1.795,2.035,2.035,0,0,0,.137,1.612,22.315,22.315,0,0,1-3.2,4.128l-.831.964c-.4.463-.781.906-1.147,1.323a.71.71,0,0,0-.457-.134,1.741,1.741,0,0,0-1.162.76,57.289,57.289,0,0,1-6.7,5.924c-1.5,1.081-4.393,2.892-6.887,2.892a3.5,3.5,0,0,1-2.147-.614,2.539,2.539,0,0,1-1.058-2.272,6.528,6.528,0,0,1,.4-2.122,21.581,21.581,0,0,0,7.371-3.349c2.154-1.53,6.184-5.257,6.2-7.36a1.286,1.286,0,0,0-.523-1.091,3.1,3.1,0,0,0-1.936-.541c-3.15,0-8.012,2.643-11.565,6.285-2.815,2.909-4.5,6.2-4.5,8.817a4.444,4.444,0,0,0,2.1,3.987,5.443,5.443,0,0,0,3.1.8c3.764,0,8.43-2.571,10.6-4.094,1.539-1.114,3.271-2.538,4.665-3.775a1.437,1.437,0,0,0,1.563-.4,47.452,47.452,0,0,0,4.156-4.384c.943-1.088,2.678-3.23,3.345-4.058a3.552,3.552,0,0,0,.771.5c.257.14.519.262.773.38.87.406,1.409.684,1.532,1.244.088.585-.65,1.476-2.035,2.45a25.113,25.113,0,0,1-2.2,1.443,29.727,29.727,0,0,0-3.515,2.4c-1.766,1.4-3.761,3.565-3.245,5.884.177.767.892,2.01,3.664,2.01q.211,0,.438-.01c2.655-.089,5.914-1.67,9.688-4.7l0,0c1.131-.921,2.144-1.776,3.026-2.551a8.551,8.551,0,0,0-.715,3.244c0,2.279,1.33,3.87,3.233,3.87,1.746,0,3.624-1.046,5.716-3.19v.049a3.1,3.1,0,0,0,3.285,3.186c2.533-.047,6.291-2.843,8.1-4.187l.125-.092c1.053-.783,2.571-2.056,3.885-3.251a8.6,8.6,0,0,0-.464,2.7c0,3.12,2.322,5.059,6.063,5.059,3.57,0,6.576-2.154,8.769-3.726a54.427,54.427,0,0,0,4.783-3.881c.362.2.931.161,1.585-.383a47.459,47.459,0,0,0,4.156-4.384c.943-1.088,2.678-3.23,3.345-4.058a3.555,3.555,0,0,0,.771.5c.257.14.519.262.773.38.87.406,1.409.684,1.532,1.244.088.585-.65,1.476-2.035,2.45a25.113,25.113,0,0,1-2.2,1.443,29.727,29.727,0,0,0-3.515,2.4c-1.766,1.4-3.761,3.565-3.245,5.884.177.767.892,2.01,3.664,2.01q.211,0,.438-.01c2.655-.089,5.914-1.67,9.688-4.7l0,0q1.179-.959,2.179-1.817a7.45,7.45,0,0,0-.817,2.109,4.082,4.082,0,0,0,.511,3.044,3.009,3.009,0,0,0,2.152,1.224,3.3,3.3,0,0,0,.478.033c1.76,0,4.149-1.225,5.955-2.577a2.949,2.949,0,0,0,2.705,2.545c2.492.312,6.22-2.442,8.227-3.923l.416-.305,0,0c.945-.709,2.359-1.877,3.639-3.012a1.391,1.391,0,0,0,1.56-.313l.593-.6a44.741,44.741,0,0,1,5.07-4.568c2.907-2.168,4.849-3.251,5.79-3.165a1.327,1.327,0,0,1,1.375,1.519,8.4,8.4,0,0,1-1.188,3.6,24.667,24.667,0,0,1-3.933,5.524,7.077,7.077,0,0,0-2.238-.353,10.184,10.184,0,0,0-3.611.709,6.554,6.554,0,0,0-3.825,3.2,1.639,1.639,0,0,0,.058,1.4,2.228,2.228,0,0,0,2.036,1.021c1.784,0,4.494-1.264,7.148-3.319a4.229,4.229,0,0,1-.7,2.274,56.919,56.919,0,0,0-11.266,6.672c-4.3,3.373-6.98,6.748-7,8.807a1.785,1.785,0,0,0,.648,1.456,2.841,2.841,0,0,0,1.849.589c3.121,0,7.241-3.766,9.42-6.012a61.944,61.944,0,0,0,7.838-10.092c3.247-1.347,7.376-4.915,10.315-7.9a8.287,8.287,0,0,0-.585,2.921c0,2.279,1.329,3.87,3.232,3.87,1.747,0,3.625-1.046,5.717-3.19v.049a3.1,3.1,0,0,0,3.284,3.186c2.533-.047,6.291-2.843,8.1-4.187l.125-.092c.455-.339,1-.77,1.575-1.246-1.893,2.61-2.71,3.879-2.809,4.441a.7.7,0,0,0,.279.615,2.724,2.724,0,0,0,1.541.5,1.2,1.2,0,0,0,.317-.037c.215-.026.542-.067,7.121-9.426a29.552,29.552,0,0,1,6.656-5.978c3-1.979,4.144-1.931,4.574-1.546a.4.4,0,0,1,.125.336c-.017.656-.855,2.426-6.275,6.914-1.787,1.5-4.138,3.808-3.931,6.453.155,2.111,2.027,3.107,3.825,3.158,2.341,0,5.24-2.174,8.6-4.691l0,0c.869-.667,1.706-1.369,2.468-2.043a9.375,9.375,0,0,0-.925,3.733,3.432,3.432,0,0,0,3.78,3.689c2.938,0,7.112-2.194,10.7-5.609,1.351.736,2.89.851,5.155.254h0c2.46-.653,5.045-3.209,6.824-5.288A.957.957,0,0,0,747.87,607.274ZM590.7,600.7c.642,0,.968.341.968,1.014a2.153,2.153,0,0,1-.447,1.287c-2.04,2.325-3.506,4.123-5.226,6.418-2.014,2.732-5.773,6.685-7.3,6.685-.479,0-.649-.645-.649-1.206-.036-1.531,1.207-4.782,4.831-8.9C585.9,602.554,589.167,600.7,590.7,600.7Zm-48.127,8.366a16.34,16.34,0,0,1,2.49-3.511c2.83-2.867,6.381-4.836,7.84-4.836h.036a.5.5,0,0,1,.308.076c.169.552-2.292,3.381-5.411,5.565A20.271,20.271,0,0,1,542.57,609.063Zm122.261,5.559a4.2,4.2,0,0,1,.784.071,18.644,18.644,0,0,1-2.333,1.5c-1.215.608-1.977.687-2.284.556a.267.267,0,0,1-.166-.18c-.126-.4.617-1.087,1.579-1.464A7.512,7.512,0,0,1,664.831,614.622Zm-.336,6.467a47.631,47.631,0,0,1-5.974,7.139c-4.939,4.939-6.328,5.01-6.657,4.855-.193-.616,2.313-4.01,5.65-6.869l0,0A48.859,48.859,0,0,1,664.494,621.089Zm68.738-9.864a3.836,3.836,0,0,0,.718.872c-2.544,2.508-5.146,4.051-6.853,4.051-.631,0-1.47-.172-1.47-1.653a11.585,11.585,0,0,1,2.3-5.709c2.851-4.211,7.4-7.767,9.94-7.767,1.006,0,1.516.556,1.516,1.653a9.785,9.785,0,0,1-1.482,4.341,3.379,3.379,0,0,0-1.266-.222,4.265,4.265,0,0,0-2.663.9A2.689,2.689,0,0,0,733.232,611.225ZM693.957,600.7c.642,0,.968.341.968,1.014a2.148,2.148,0,0,1-.448,1.287c-2.04,2.325-3.505,4.123-5.226,6.418-2.013,2.732-5.772,6.685-7.3,6.685-.479,0-.649-.645-.649-1.206-.036-1.531,1.207-4.782,4.831-8.9C689.165,602.554,692.428,600.7,693.957,600.7Z" transform="translate(-65.258 -4.221)"/></g></svg>