<svg xmlns="http://www.w3.org/2000/svg" width="618.948" height="175.422" viewBox="0 0 618.948 175.422"><defs><style>.a{fill:#2d2825;stroke:#2c2825;stroke-miterlimit:10;stroke-width:0.75px;font-size:81px;font-family:AnnabelleJF;}.b{fill:#366344;}.c{fill:#d60000;}</style></defs><g transform="translate(-126 -109.032)"><g transform="translate(126 109.032)"><text class="a" transform="translate(155.67 97.67)"><tspan x="0" y="0">Services </tspan></text><g transform="translate(491.888 2.506)"><g transform="translate(25.207 65.945)"><path class="b" d="M333.2,155.813c8.823,4.383,16.258,7.493,24.75,9.64,7.981,2.015,15.975,4.034,24.1,5.355,6.7,1.09,15.113,2.995,21.851,2.165s15.559-1.24,20.8-5.558c3.5-2.879,5.841-9.294,5.4-13.8-.549-5.633-2.077-10.016-5.5-12.983-4.085-3.548-10.081-3.516-15.479-3.132-25.728,1.822-51.7,8.061-75.928,16.915" transform="translate(-331.082 -134.873)"/><path class="b" d="M335.21,156.028c14.524,6.5,29.236,9.918,44.837,12.722,12.627,2.27,42.337,8.961,47.952-8.422,1.982-6.127-.293-10.507-4.476-14.511-4.581-4.388-7.167-4.388-13.126-4.17-9.8.358-19.716,2.01-29.321,3.852-15.729,3.012-30.717,7.959-46.008,12.562-2.854.857-3.784-3.263-1.2-4.34,23.267-9.693,49.285-15.278,74.382-17.238,14.747-1.153,27.843,5.032,25.728,22.23-2.09,17-22.062,19.493-35.979,18.659-22.122-1.326-44.765-8.555-64.268-18.816-1.7-.892-.208-3.28,1.476-2.526Z" transform="translate(-332.354 -136.348)"/></g><g transform="translate(12.516)"><path class="c" d="M328.944,175.834c9.738-1.483,17.611-3.21,25.793-6.335,7.69-2.937,15.393-5.879,22.8-9.467,6.112-2.959,14.088-6.235,19.127-10.785s12.021-9.958,13.83-16.5c1.205-4.363-.564-10.963-3.513-14.4-3.686-4.3-7.455-7-11.958-7.465-5.383-.556-10.272,2.917-14.469,6.332-20.009,16.276-37.678,36.307-52.418,57.474" transform="translate(-326.009 -108.841)"/><path class="c" d="M330.1,175.57c15.624-3.027,29.627-8.685,44.008-15.356,11.64-5.4,39.8-17,34.406-34.448-1.9-6.152-6.282-8.432-12-9.3-6.272-.957-8.387.526-13.138,4.13-7.813,5.924-14.98,12.975-21.786,20-11.138,11.5-20.563,24.167-30.431,36.718-1.842,2.346-4.972-.494-3.473-2.862,13.471-21.3,31.554-40.826,50.967-56.853,11.4-9.417,25.678-11.883,33.829,3.408,8.059,15.115-6.854,28.629-18.721,35.944-18.867,11.63-41.552,18.726-63.413,21.535-1.9.246-2.052-2.563-.243-2.914Z" transform="translate(-327.29 -110.032)"/></g><g transform="translate(12.467 100.79)"><path class="c" d="M327.87,152.21c4.12,8.948,7.954,16.035,13.221,23.036,4.947,6.578,9.9,13.166,15.4,19.3,4.533,5.054,9.886,11.815,15.654,15.4s12.893,8.8,19.681,8.725c4.528-.048,10.382-3.571,12.868-7.355,3.1-4.731,4.666-9.1,3.867-13.557-.955-5.325-5.643-9.064-10.086-12.153-21.174-14.729-45.311-26.171-69.728-34.483" transform="translate(-326.367 -148.949)"/><path class="c" d="M330.139,152.993c7.227,14.181,16.536,26.071,26.923,38.047,8.407,9.693,27.339,33.546,42.62,23.54,5.388-3.528,6.367-8.367,5.623-14.108-.814-6.292-2.827-7.914-7.6-11.484-7.853-5.871-16.611-10.81-25.244-15.4-14.136-7.525-28.91-13.081-43.7-19.095-2.762-1.123-.9-4.914,1.792-4.13,24.2,7.056,47.957,19.035,68.726,33.26,12.2,8.357,18.518,21.39,6.079,33.453-12.3,11.923-29.409,1.328-39.72-8.054-16.391-14.917-29.482-34.754-38.227-54.986-.759-1.757,1.9-2.681,2.734-1.04Z" transform="translate(-327.27 -150.254)"/></g><path class="b" d="M322.3,148.832a9.475,9.475,0,1,0,9.475-9.475A9.475,9.475,0,0,0,322.3,148.832Z" transform="translate(-322.295 -65.873)"/></g><g transform="translate(0 65.945)"><path class="b" d="M224.066,154.813c-8.823,4.383-16.258,7.493-24.75,9.64-7.981,2.015-15.975,4.034-24.1,5.355-6.7,1.09-15.113,2.995-21.851,2.165s-15.559-1.24-20.8-5.558c-3.5-2.879-5.841-9.294-5.4-13.8.549-5.633,2.077-10.016,5.5-12.983,4.085-3.548,10.081-3.516,15.479-3.132,25.728,1.822,51.7,8.061,75.928,16.915" transform="translate(-124.33 -133.873)"/><path class="b" d="M225,155.028c-14.524,6.5-29.236,9.918-44.837,12.722-12.627,2.27-42.337,8.961-47.952-8.422-1.982-6.127.293-10.507,4.475-14.511,4.581-4.388,7.167-4.388,13.126-4.17,9.8.358,19.716,2.01,29.321,3.852,15.727,3.012,30.717,7.959,46.008,12.562,2.854.857,3.784-3.263,1.2-4.34-23.267-9.693-49.285-15.278-74.382-17.238-14.747-1.153-27.843,5.032-25.728,22.23,2.09,17,22.062,19.493,35.979,18.659,22.122-1.326,44.765-8.555,64.268-18.816,1.7-.892.208-3.28-1.476-2.526Z" transform="translate(-126 -135.348)"/></g><g transform="translate(27.066)"><path class="c" d="M219.777,174.834c-9.738-1.483-17.611-3.21-25.793-6.335-7.69-2.937-15.394-5.879-22.8-9.467-6.112-2.959-14.088-6.235-19.127-10.785s-12.021-9.958-13.83-16.5c-1.205-4.363.564-10.963,3.513-14.4,3.686-4.3,7.455-7,11.958-7.465,5.383-.556,10.272,2.917,14.469,6.332,20.009,16.276,37.678,36.307,52.418,57.474" transform="translate(-135.235 -107.841)"/><path class="c" d="M221.466,174.57c-15.627-3.027-29.627-8.685-44.008-15.356-11.64-5.4-39.8-17-34.405-34.448,1.9-6.152,6.282-8.432,12-9.3,6.272-.957,8.387.526,13.138,4.13,7.813,5.924,14.98,12.975,21.783,20,11.141,11.5,20.566,24.167,30.434,36.718,1.842,2.346,4.972-.494,3.473-2.862-13.471-21.3-31.554-40.826-50.967-56.853-11.4-9.417-25.678-11.883-33.829,3.408-8.059,15.115,6.854,28.629,18.721,35.944,18.867,11.63,41.552,18.726,63.413,21.535,1.9.246,2.052-2.563.243-2.914Z" transform="translate(-136.801 -109.032)"/></g><g transform="translate(29.748 100.79)"><path class="c" d="M219.745,151.21c-4.12,8.948-7.954,16.035-13.221,23.036-4.947,6.578-9.9,13.166-15.4,19.3-4.533,5.054-9.886,11.815-15.654,15.4s-12.893,8.8-19.681,8.725c-4.528-.048-10.382-3.571-12.868-7.355-3.1-4.731-4.666-9.1-3.867-13.557.955-5.325,5.643-9.064,10.086-12.153,21.175-14.729,45.311-26.171,69.728-34.483" transform="translate(-136.403 -147.949)"/><path class="c" d="M219.847,151.993c-7.227,14.181-16.536,26.071-26.923,38.047-8.407,9.693-27.339,33.546-42.62,23.54-5.388-3.528-6.367-8.367-5.623-14.108.814-6.292,2.827-7.914,7.6-11.484,7.853-5.871,16.611-10.81,25.244-15.4,14.136-7.525,28.91-13.081,43.7-19.095,2.761-1.123.9-4.914-1.792-4.13-24.2,7.056-47.957,19.035-68.726,33.26-12.2,8.357-18.518,21.39-6.079,33.453,12.3,11.923,29.409,1.328,39.72-8.054,16.391-14.917,29.481-34.754,38.227-54.986.759-1.757-1.9-2.681-2.734-1.04Z" transform="translate(-137.871 -149.254)"/></g><path class="b" d="M188.092,147.832a9.475,9.475,0,1,1-9.475-9.475A9.475,9.475,0,0,1,188.092,147.832Z" transform="translate(-61.033 -64.873)"/></g></g></svg>