<svg xmlns="http://www.w3.org/2000/svg" width="85.981" height="98.264" viewBox="0 0 85.981 98.264"><defs><style>.a{fill:#d60000;}</style></defs><path class="a" d="M469.121,233.367A7.291,7.291,0,0,0,467.8,229.2c-3.7-5.3-7.448-12.368-7.858-25.572a1.532,1.532,0,0,0-2.332-1.261l-.039.025a1.512,1.512,0,0,0-.7,1.327c.528,16.7,6.288,24.45,10.547,30.179l.017.024a.932.932,0,0,0,1.679-.556Zm0,0" transform="translate(-430.736 -165.89)"/><path class="a" d="M449.563,186.474c-6.773,0-12.284,6.2-12.284,13.819a21.169,21.169,0,0,0,3.4,11.057c1.935,2.976,4.315,4.894,6.852,5.564l-1.563,3.127a2.269,2.269,0,0,0,2.03,3.284h3.135a2.269,2.269,0,0,0,2.029-3.284l-1.562-3.127c2.537-.672,4.918-2.588,6.853-5.564a21.178,21.178,0,0,0,3.395-11.057c0-7.619-5.509-13.819-12.282-13.819Zm-6.909,15.354a2.3,2.3,0,1,1,2.3-2.3,2.3,2.3,0,0,1-2.3,2.3Zm.768-9.212a3.071,3.071,0,1,1,3.071,3.071,3.068,3.068,0,0,1-3.071-3.071Zm0,0" transform="translate(-437.279 -171.121)"/><path class="a" d="M472.584,185.323c-6.773,0-12.284,6.2-12.284,13.819a21.183,21.183,0,0,0,3.4,11.057c1.937,2.976,4.316,4.894,6.855,5.564l-1.565,3.127a2.269,2.269,0,0,0,2.03,3.283h3.135a2.267,2.267,0,0,0,2.029-3.283l-1.562-3.127c2.537-.672,4.918-2.588,6.852-5.564a21.183,21.183,0,0,0,3.4-11.057c0-7.619-5.509-13.819-12.282-13.819Zm-6.909,15.354a2.3,2.3,0,1,1,2.3-2.3,2.3,2.3,0,0,1-2.3,2.3Zm.768-9.212a3.07,3.07,0,1,1,3.071,3.071,3.068,3.068,0,0,1-3.071-3.071Zm0,0" transform="translate(-429.593 -171.505)"/><path class="a" d="M461.06,174.964c-6.417,0-11.7,5.566-12.234,12.633,6.976,1.59,12.234,6.865,12.234,15,0-8.066,5.166-14.827,12.05-16.495-1.11-6.343-6.091-11.142-12.05-11.142Zm-3.071,9.212a3.071,3.071,0,1,1,3.071-3.071,3.07,3.07,0,0,1-3.071,3.071Zm0,0" transform="translate(-433.424 -174.964)"/><path class="a" d="M485.276,184.172a11.439,11.439,0,0,0-7.81,3.161,17.68,17.68,0,0,1,4.739,12.193A24.345,24.345,0,0,1,478.6,211.8a10.438,10.438,0,0,0,4.646,2.809l-1.565,3.128a2.269,2.269,0,0,0,2.03,3.283h3.135a2.269,2.269,0,0,0,2.03-3.283l-1.563-3.127c2.537-.672,4.918-2.588,6.853-5.564a21.183,21.183,0,0,0,3.4-11.057c0-7.619-5.51-13.819-12.284-13.819Zm-4.606,5.374a2.3,2.3,0,1,1,2.3,2.3,2.3,2.3,0,0,1-2.3-2.3Zm0,0" transform="translate(-423.861 -171.89)"/><g transform="translate(41.456 53.737)"><path class="a" d="M471.429,239.816V216.838a1.571,1.571,0,0,0-1.434-1.585,1.536,1.536,0,0,0-1.637,1.533v23.029a1.535,1.535,0,0,0,3.071,0Zm0,0" transform="translate(-468.358 -215.25)"/><path class="a" d="M468.358,244.411v4.553a1.571,1.571,0,0,0,1.433,1.586,1.536,1.536,0,0,0,1.638-1.533v-4.606a1.535,1.535,0,0,0-3.071,0Zm0,0" transform="translate(-468.358 -206.027)"/></g><path class="a" d="M489.627,234.38a6.34,6.34,0,0,0-6.078-.442l-9.429,4.284-9.428-4.286a6.368,6.368,0,1,0-.959,11.932l10.387-2.832,10.387,2.832a6.363,6.363,0,0,0,5.121-11.489Zm-26.7,8.526a3.3,3.3,0,1,1,.5-6.173l7.818,3.555a.192.192,0,0,1-.029.36Zm25.244-.551a3.39,3.39,0,0,1-2.94.528l-8.2-2.236a.192.192,0,0,1-.029-.36l7.819-3.555a3.239,3.239,0,0,1,3.145.229,3.291,3.291,0,0,1,.205,5.393Zm0,0" transform="translate(-431.129 -155.465)"/><path class="a" d="M495.106,177.266a12.015,12.015,0,0,0-10.29,6.284c7.528,1.079,13.36,8.177,13.36,16.747a22.94,22.94,0,0,1-1.2,7.076h0a24.589,24.589,0,0,1-2.689,5.657q-.366.564-.755,1.084h3.145a2.269,2.269,0,0,0,2.029-3.283l-1.566-3.129c2.538-.671,4.919-2.584,6.855-5.56a21.184,21.184,0,0,0,3.4-11.058c0-7.618-5.509-13.818-12.282-13.818Zm-3.839,7.676a2.3,2.3,0,1,1,2.3-2.3,2.3,2.3,0,0,1-2.3,2.3Zm0,0" transform="translate(-421.407 -174.195)"/><path class="a" d="M484.3,213.936h0a1.8,1.8,0,0,0-1.389.667,60.423,60.423,0,0,1-4.789,4.921c-1.585,1.519-3.232,3.1-4.765,4.789a1.54,1.54,0,0,0,2.284,2.066c1.47-1.631,3.069-3.165,4.6-4.637a58.029,58.029,0,0,0,5.2-5.406,1.473,1.473,0,0,0-1.142-2.4Zm0,0" transform="translate(-425.365 -161.952)"/><path class="a" d="M499.221,207.192h-.045a1.514,1.514,0,0,0-1.506,1.379,16.62,16.62,0,0,1-2.905,8.449c-2.352,3.135-6.94,6.115-11.8,9.269a98.162,98.162,0,0,0-9.447,6.659,1.546,1.546,0,0,0-.555,1.182,1.533,1.533,0,0,0,2.513,1.18,96.517,96.517,0,0,1,9.161-6.445c5.094-3.307,9.905-6.429,12.585-10a19.685,19.685,0,0,0,3.511-10.016,1.515,1.515,0,0,0-1.511-1.655Zm0,0" transform="translate(-425.365 -164.204)"/><path class="a" d="M472.267,233.655a1.539,1.539,0,0,0-.576-1.2c-2.708-2.185-5.981-4.33-9.331-6.524-4.666-3.057-9.437-6.183-12.218-9.217a1.574,1.574,0,0,0-1.159-.514,1.524,1.524,0,0,0-1.14,2.541c3.035,3.336,7.85,6.493,12.835,9.759,3.211,2.1,6.468,4.238,9.094,6.352a1.536,1.536,0,0,0,2.5-1.2Zm0,0" transform="translate(-433.882 -161.196)"/></svg>