<svg xmlns="http://www.w3.org/2000/svg" width="98.264" height="98.264" viewBox="0 0 98.264 98.264"><defs><style>.a{fill:#d60000;}</style></defs><path class="a" d="M104.438,184.867l-3.027-4.607a1.536,1.536,0,0,0-1.283-.692H93.365a1.535,1.535,0,0,0-1.314,2.328l2.777,4.607a1.538,1.538,0,0,0,1.315.742h7.011a1.534,1.534,0,0,0,1.283-2.377Zm0,0" transform="translate(-23.798 -173.427)"/><path class="a" d="M50.42,184.176a1.535,1.535,0,0,1-1.535-1.535V176.5a1.535,1.535,0,0,1,3.071,0v6.141a1.536,1.536,0,0,1-1.535,1.535Zm0,0" transform="translate(-38.137 -174.964)"/><path class="a" d="M50.42,193.385a1.536,1.536,0,0,1-1.535-1.535v-6.143a1.535,1.535,0,0,1,3.071,0v6.143a1.536,1.536,0,0,1-1.535,1.535Zm0,0" transform="translate(-38.137 -171.89)"/><path class="a" d="M48.5,184.941H42.362a1.535,1.535,0,1,1,0-3.071H48.5a1.535,1.535,0,1,1,0,3.071Zm0,0" transform="translate(-40.827 -172.658)"/><path class="a" d="M60.014,184.941H53.873a1.535,1.535,0,0,1,0-3.071h6.141a1.535,1.535,0,0,1,0,3.071Zm0,0" transform="translate(-36.984 -172.658)"/><path class="a" d="M109.123,195.685a1.536,1.536,0,0,1-1.535-1.535v-1.535a1.535,1.535,0,0,1,3.071,0v1.535a1.536,1.536,0,0,1-1.535,1.535Zm0,0" transform="translate(-18.537 -169.584)"/><path class="a" d="M109.123,203.742a1.536,1.536,0,0,1-1.535-1.535v-1.535a1.535,1.535,0,0,1,3.071,0v1.535a1.536,1.536,0,0,1-1.535,1.535Zm0,0" transform="translate(-18.537 -166.893)"/><path class="a" d="M106.055,198.754h-1.535a1.535,1.535,0,1,1,0-3.071h1.535a1.535,1.535,0,1,1,0,3.071Zm0,0" transform="translate(-20.074 -168.046)"/><path class="a" d="M114.112,198.754h-1.535a1.535,1.535,0,1,1,0-3.071h1.535a1.535,1.535,0,1,1,0,3.071Zm0,0" transform="translate(-17.384 -168.046)"/><path class="a" d="M67.685,188.778a1.536,1.536,0,0,1-1.535-1.535v-1.535a1.536,1.536,0,0,1,3.072,0v1.535a1.536,1.536,0,0,1-1.537,1.535Zm0,0" transform="translate(-32.372 -171.89)"/><path class="a" d="M67.685,196.836A1.536,1.536,0,0,1,66.15,195.3v-1.535a1.536,1.536,0,0,1,3.072,0V195.3a1.537,1.537,0,0,1-1.537,1.535Zm0,0" transform="translate(-32.372 -169.199)"/><path class="a" d="M64.617,191.848H63.081a1.536,1.536,0,0,1,0-3.072h1.535a1.536,1.536,0,0,1,0,3.072Zm0,0" transform="translate(-33.909 -170.352)"/><path class="a" d="M72.675,191.848H71.139a1.536,1.536,0,0,1,0-3.072h1.535a1.536,1.536,0,0,1,0,3.072Zm0,0" transform="translate(-31.219 -170.352)"/><g transform="translate(0 6.141)"><path class="a" d="M99.217,199.994l5.681-10.08a1.536,1.536,0,0,0-1.338-2.289H96.469a1.535,1.535,0,0,0-1.414.936l-3.484,9.361a1.536,1.536,0,0,0,1.439,2.072Zm0,0" transform="translate(-23.917 -176.878)"/><path class="a" d="M98.084,197.987a20.5,20.5,0,0,0-2.376.133,4.5,4.5,0,0,0-2.681,7.664l.08.081a4.531,4.531,0,0,0,3.427,1.354,24.566,24.566,0,0,1,25.651,23.916,24.565,24.565,0,1,1-45.5-12.208,4.6,4.6,0,0,0-7.793-4.907,33.584,33.584,0,0,0-5.042,18.341c.311,17.786,15.4,32.872,33.191,33.174a33.779,33.779,0,1,0,1.039-67.549Zm0,0" transform="translate(-33.141 -173.418)"/><path class="a" d="M79,180.26l-3.027,4.607a1.534,1.534,0,0,0,1.283,2.377h6.912a1.535,1.535,0,0,0,1.315-.742l2.778-4.607a1.536,1.536,0,0,0-1.315-2.328H80.283A1.535,1.535,0,0,0,79,180.26Zm1.611,4.682a1.536,1.536,0,1,1,1.537-1.535,1.537,1.537,0,0,1-1.537,1.535Zm0,0" transform="translate(-29.177 -179.568)"/><path class="a" d="M100.2,209.75l-.287-.324A33.986,33.986,0,0,0,91.9,202.76l-.137-.081A33.774,33.774,0,1,0,74.6,265.541q.832,0,1.655-.04a4.534,4.534,0,0,0,2.957-7.748l-.08-.081a4.585,4.585,0,0,0-3.456-1.366c-.647.029-1.3.031-1.959.008a24.566,24.566,0,1,1,3.923-48.928l.055-.067,1.819.372c.231.048.462.1.69.152l.019,0q.326.078.648.163l.02.005a24.474,24.474,0,0,1,8.037,3.806l.111.08c.127.093.256.181.379.281.035.028.072.052.107.079l2.733,2.1-.167.173a24.516,24.516,0,0,1,3.152,30.536,4.527,4.527,0,0,0,2.082,6.653c.072.029.145.059.217.085a4.525,4.525,0,0,0,5.434-1.741A33.708,33.708,0,0,0,100.2,209.75ZM61.556,207.2a2.3,2.3,0,1,1,2.3-2.3,2.3,2.3,0,0,1-2.3,2.3Zm7.676-1.535a3.071,3.071,0,1,1,3.071-3.071,3.068,3.068,0,0,1-3.071,3.071Zm0,0" transform="translate(-40.827 -173.419)"/></g><path class="a" d="M90.324,191.08a2.3,2.3,0,1,1-2.3-2.3,2.3,2.3,0,0,1,2.3,2.3Zm0,0" transform="translate(-25.839 -170.352)"/><path class="a" d="M87.8,199.994H81.337L75.7,189.915a1.535,1.535,0,0,1,1.338-2.29h6.992a1.531,1.531,0,0,1,1.413.938l3.775,9.318a1.537,1.537,0,0,1-1.423,2.113Zm0,0" transform="translate(-29.249 -170.737)"/></svg>