<svg xmlns="http://www.w3.org/2000/svg" width="73.368" height="104.711" viewBox="0 0 73.368 104.711"><defs><style>.a{fill:#d60000;}</style></defs><g transform="translate(0 0)"><g transform="translate(0 23.428)"><path class="a" d="M411.472,221.779h-19.96v-3.071h18.425a1.535,1.535,0,1,0,0-3.071H408.4v-4.094a1.528,1.528,0,0,0-1.765-1.519,7.736,7.736,0,0,1-.942.1q-.184.008-.368.008a7.674,7.674,0,0,1-3.071-.64,7.671,7.671,0,0,1-6.138,0,7.672,7.672,0,0,1-6.141,0,7.672,7.672,0,0,1-6.141,0,7.672,7.672,0,0,1-6.141,0,7.669,7.669,0,0,1-6.14,0,7.67,7.67,0,0,1-3.071.642c-.121,0-.244,0-.367-.009a7.653,7.653,0,0,1-.94-.1,1.525,1.525,0,0,0-1.766,1.517v4.1h-1.535a1.535,1.535,0,1,0,0,3.071H382.3v3.071H362.34a4.611,4.611,0,0,0-4.606,4.606v1.535a6.333,6.333,0,0,0,1.89,4.488,6.037,6.037,0,0,0,4.37,1.755,6.123,6.123,0,0,0,4.482-2.09,6.132,6.132,0,0,0,9.218.008,6.133,6.133,0,0,0,9.212,0,6.133,6.133,0,0,0,9.212,0,6.132,6.132,0,0,0,9.218-.008,6.126,6.126,0,0,0,4.482,2.09,6.033,6.033,0,0,0,4.37-1.755,6.327,6.327,0,0,0,1.89-4.488v-1.535a4.61,4.61,0,0,0-4.606-4.606Zm0,0" transform="translate(-350.266 -180.415)"/><path class="a" d="M405.329,205.279H389.975v-3.071h12.284a1.535,1.535,0,0,0,0-3.071h-1.535v-2.558a1.529,1.529,0,0,0-1.766-1.518,7.708,7.708,0,0,1-.94.1c-.123.007-.245.008-.368.008a7.646,7.646,0,0,1-3.071-.64,7.677,7.677,0,0,1-6.138,0,7.683,7.683,0,0,1-6.141,0,7.677,7.677,0,0,1-6.138,0,7.658,7.658,0,0,1-3.068.642c-.124,0-.248,0-.373-.009a7.616,7.616,0,0,1-.936-.1,1.527,1.527,0,0,0-1.766,1.518v2.558h-1.535a1.535,1.535,0,1,0,0,3.071h12.284v3.071H365.41a3.076,3.076,0,0,0-3.072,3.071v.043a4.645,4.645,0,0,0,4.386,4.687,4.57,4.57,0,0,0,3.293-1.17,4.6,4.6,0,0,0,6.14,0,4.6,4.6,0,0,0,6.141,0,4.6,4.6,0,0,0,6.141,0,4.6,4.6,0,0,0,6.141,0,4.6,4.6,0,0,0,6.14,0,4.567,4.567,0,0,0,3.069,1.175c.075,0,.149,0,.224-.005a4.644,4.644,0,0,0,4.386-4.687v-.043a3.075,3.075,0,0,0-3.071-3.071Zm0,0" transform="translate(-348.729 -185.411)"/><path class="a" d="M398.372,187.694c-9.058,2.141-21.334-.015-29.139.017a3.045,3.045,0,0,0-2.289,2.839,4.647,4.647,0,0,0,4.383,4.811,4.57,4.57,0,0,0,3.293-1.17,4.6,4.6,0,0,0,6.14,0,4.6,4.6,0,0,0,6.141,0,4.6,4.6,0,0,0,6.14,0,4.567,4.567,0,0,0,3.069,1.175c.075,0,.149,0,.224-.005a4.646,4.646,0,0,0,4.383-4.811A3.05,3.05,0,0,0,398.372,187.694Z" transform="translate(-347.192 -187.694)"/><g transform="translate(0 55.579)"><path class="a" d="M414.158,231.148a1.15,1.15,0,0,0-1.554-1.072,9.038,9.038,0,0,1-3.051.527h-.18a9.168,9.168,0,0,1-4.419-1.241,9.2,9.2,0,0,1-9.221,0,9.19,9.19,0,0,1-9.212,0,9.19,9.19,0,0,1-9.212,0,9.192,9.192,0,0,1-9.22,0,9.178,9.178,0,0,1-4.422,1.241h-.181a9.021,9.021,0,0,1-3.047-.527,1.151,1.151,0,0,0-1.555,1.072v2.421h55.273Zm0,0" transform="translate(-349.882 -229.361)"/><path class="a" d="M352.627,234.818a.479.479,0,0,0-.474.43,1.3,1.3,0,0,0,.035.586,7.915,7.915,0,0,0,7.415,5.127h23.031v3.227a7.693,7.693,0,0,0-5.654,4.825,3.181,3.181,0,0,0-.073,2.121,3.079,3.079,0,0,0,2.92,2.11h17.821a3.173,3.173,0,0,0,1.893-.594,3.067,3.067,0,0,0,1.084-3.492,7.69,7.69,0,0,0-5.708-4.97v-3.227h23.031c4.318,0,6.888-1.886,7.55-5.6v-.005a.47.47,0,0,0-.472-.535Zm0,0" transform="translate(-352.135 -227.539)"/></g></g><g transform="translate(21.474 0)"><path class="a" d="M372.725,172.919h-.068l-3.844,2.074-.579-2.278,4.831-2.585h2.55v22.106h-2.891Z" transform="translate(-368.234 -170.13)"/><path class="a" d="M393.029,172.647H384.6l-.85,5.68a11.8,11.8,0,0,1,1.8-.136,9.349,9.349,0,0,1,4.763,1.19,6.307,6.307,0,0,1,3.163,5.68c0,4.32-3.435,7.551-8.231,7.551a10.817,10.817,0,0,1-5.509-1.361l.748-2.278a9.913,9.913,0,0,0,4.726,1.223c2.824,0,5.238-1.835,5.238-4.8-.033-2.856-1.938-4.9-6.359-4.9a22.746,22.746,0,0,0-3.061.237l1.427-10.611h10.578Z" transform="translate(-364.395 -170.13)"/></g></g></svg>