<svg xmlns="http://www.w3.org/2000/svg" width="98.263" height="98.421" viewBox="0 0 98.263 98.421"><defs><style>.a{fill:#d60000;}</style></defs><g transform="translate(0 0)"><g transform="translate(0 0)"><path class="a" d="M224.969,248.687a1.579,1.579,0,0,0-1.975-.934l-2.346.747c-4.571-2.413-6.761-4.26-8.166-8.68l-5.868-18.434a1.533,1.533,0,0,0-1.961-.987l-5.9,2.022a1.536,1.536,0,0,0-.966,1.918l5.826,18.3c1.445,4.543.56,7.314-1.739,11.833l-2.357.75a1.572,1.572,0,0,0-1.075,1.853,1.534,1.534,0,0,0,1.955,1.09l23.592-7.508a1.534,1.534,0,0,0,.982-1.973Zm0,0" transform="translate(-126.793 -159.821)"/><path class="a" d="M170.086,255.226l-2.357-.75c-2.3-4.519-3.185-7.29-1.739-11.833l5.826-18.3a1.536,1.536,0,0,0-.966-1.918l-5.9-2.022a1.535,1.535,0,0,0-1.962.987l-5.866,18.434c-1.407,4.419-3.6,6.267-8.169,8.68l-2.345-.747a1.58,1.58,0,0,0-1.975.934,1.533,1.533,0,0,0,.983,1.973l23.591,7.508a1.534,1.534,0,0,0,1.955-1.09,1.572,1.572,0,0,0-1.075-1.853Zm0,0" transform="translate(-144.545 -159.821)"/><path class="a" d="M181.762,184.176a1.536,1.536,0,0,1-1.535-1.535V176.5a1.535,1.535,0,0,1,3.071,0v6.141a1.535,1.535,0,0,1-1.535,1.535Zm0,0" transform="translate(-132.631 -174.963)"/><path class="a" d="M187.517,184.549a1.535,1.535,0,0,1-1.084-2.621l6.513-6.515a1.536,1.536,0,1,1,2.172,2.172L188.6,184.1a1.531,1.531,0,0,1-1.086.451Zm0,0" transform="translate(-130.709 -174.964)"/><path class="a" d="M177.638,184.549a1.537,1.537,0,0,1-1.086-.451l-6.515-6.513a1.536,1.536,0,1,1,2.172-2.172l6.515,6.515a1.536,1.536,0,0,1-1.086,2.621Zm0,0" transform="translate(-136.183 -174.964)"/></g><path class="a" d="M165.959,192.31a1.536,1.536,0,0,0-1.893.9c-1.258,3.173-2.166,5.633-2.7,7.308a56.148,56.148,0,0,0-1.759,24.988,1.538,1.538,0,0,0,1.016,1.188l6.712,2.3a1.534,1.534,0,0,0,1.554-.337c5.544-5.25,10.24-13.069,12.961-21.617.534-1.677,1.212-4.208,2.021-7.524a1.534,1.534,0,0,0-1.024-1.826Zm3.113,26.355a1.646,1.646,0,0,1-.1.324,1.676,1.676,0,0,1-.159.3,1.636,1.636,0,0,1-.476.476,1.663,1.663,0,0,1-.622.257,1.726,1.726,0,0,1-1.3-.257,1.609,1.609,0,0,1-.479-.475,1.775,1.775,0,0,1-.159-.3,1.742,1.742,0,0,1-.1-1,1.6,1.6,0,0,1,.1-.324,1.676,1.676,0,0,1,.159-.3,1.634,1.634,0,0,1,.478-.479,1.677,1.677,0,0,1,.3-.159,1.745,1.745,0,0,1,1.322,0,1.767,1.767,0,0,1,.3.159,1.634,1.634,0,0,1,.478.479,1.665,1.665,0,0,1,.256.622,1.637,1.637,0,0,1,0,.674Zm0-7.676a1.645,1.645,0,0,1-.1.324,1.738,1.738,0,0,1-.373.56,1.728,1.728,0,0,1-2.444,0,1.825,1.825,0,0,1-.213-.261,1.736,1.736,0,0,1-.159-.3,1.6,1.6,0,0,1-.1-.324,1.631,1.631,0,0,1,0-.672,1.6,1.6,0,0,1,.1-.324,1.736,1.736,0,0,1,.159-.3,1.645,1.645,0,0,1,.478-.478,1.7,1.7,0,0,1,.622-.256,1.738,1.738,0,0,1,1.558.471,1.725,1.725,0,0,1,.471.886,1.631,1.631,0,0,1,0,.672Zm1.535-7.678a1.68,1.68,0,0,1-.256.623,1.619,1.619,0,0,1-.215.263,1.748,1.748,0,0,1-.261.215,1.677,1.677,0,0,1-.3.159,1.62,1.62,0,0,1-.324.1,1.637,1.637,0,0,1-.674,0,1.711,1.711,0,0,1-.622-.256,1.634,1.634,0,0,1-.479-.478,1.678,1.678,0,0,1-.159-.3,1.742,1.742,0,0,1,0-1.322,1.725,1.725,0,0,1,.159-.3,1.849,1.849,0,0,1,.213-.264,1.763,1.763,0,0,1,.264-.213,1.709,1.709,0,0,1,.622-.257,1.749,1.749,0,0,1,1,.1,1.673,1.673,0,0,1,.3.16,1.625,1.625,0,0,1,.478.476,1.675,1.675,0,0,1,.159.3,1.618,1.618,0,0,1,.1.324,1.637,1.637,0,0,1,0,.674Zm4.606,4.607a1.6,1.6,0,0,1-.1.323,1.837,1.837,0,0,1-.16.3,1.652,1.652,0,0,1-.476.476,1.686,1.686,0,0,1-.622.257,1.637,1.637,0,0,1-.674,0,1.677,1.677,0,0,1-.622-.257,1.641,1.641,0,0,1-.479-.475,1.734,1.734,0,0,1-.159-.3,1.6,1.6,0,0,1-.1-.324,1.637,1.637,0,0,1,0-.674,1.583,1.583,0,0,1,.1-.323,1.733,1.733,0,0,1,.159-.3,1.761,1.761,0,0,1,.213-.264,1.925,1.925,0,0,1,.264-.213,1.675,1.675,0,0,1,.3-.159,1.732,1.732,0,0,1,1.322,0,1.675,1.675,0,0,1,.3.159,1.767,1.767,0,0,1,.263.213,1.743,1.743,0,0,1,.471.886,1.593,1.593,0,0,1,0,.674Zm0,0" transform="translate(-139.744 -169.196)"/><path class="a" d="M207.644,200.516c-.534-1.675-1.441-4.135-2.7-7.308a1.536,1.536,0,0,0-1.893-.9l-16.887,5.373a1.536,1.536,0,0,0-1.026,1.827c.808,3.316,1.489,5.848,2.022,7.523,2.72,8.55,7.416,16.369,12.96,21.621a1.539,1.539,0,0,0,1.555.337l6.709-2.3A1.538,1.538,0,0,0,209.4,225.5a56.15,56.15,0,0,0-1.761-24.988Zm-8.77-.3a1.912,1.912,0,0,1,.263-.213,1.833,1.833,0,0,1,.3-.159,1.741,1.741,0,0,1,1.321,0,1.75,1.75,0,0,1,.562.372,1.729,1.729,0,0,1,0,2.445,1.551,1.551,0,0,1-.261.213,1.7,1.7,0,0,1-.622.257,1.637,1.637,0,0,1-.674,0,1.709,1.709,0,0,1-.622-.257,1.684,1.684,0,0,1-.264-.213,1.732,1.732,0,0,1,0-2.445Zm-3.227,4.63a1.68,1.68,0,0,1-.1.324,1.84,1.84,0,0,1-.16.3,1.653,1.653,0,0,1-.476.476,1.709,1.709,0,0,1-.622.257,1.637,1.637,0,0,1-.674,0,1.7,1.7,0,0,1-.622-.257,1.681,1.681,0,0,1-.264-.213,1.864,1.864,0,0,1-.215-.263,1.676,1.676,0,0,1-.159-.3,1.742,1.742,0,0,1-.1-1,1.62,1.62,0,0,1,.1-.324,1.773,1.773,0,0,1,.159-.3,1.922,1.922,0,0,1,.213-.264,1.76,1.76,0,0,1,.264-.213,1.674,1.674,0,0,1,.3-.159,1.732,1.732,0,0,1,1.322,0,1.674,1.674,0,0,1,.3.159,1.645,1.645,0,0,1,.478.478,1.683,1.683,0,0,1,.256.622,1.592,1.592,0,0,1,0,.674Zm4.606,9.213a1.642,1.642,0,0,1-.1.324,1.773,1.773,0,0,1-.16.3,1.653,1.653,0,0,1-.476.476,1.686,1.686,0,0,1-.622.257,1.637,1.637,0,0,1-.674,0,1.686,1.686,0,0,1-.622-.257,1.658,1.658,0,0,1-.479-.475,1.733,1.733,0,0,1-.159-.3,1.7,1.7,0,0,1-.1-.323,1.637,1.637,0,0,1,0-.674,1.684,1.684,0,0,1,.1-.324,1.735,1.735,0,0,1,.159-.3,1.662,1.662,0,0,1,.478-.478,1.722,1.722,0,0,1,.3-.159,1.745,1.745,0,0,1,1.322,0,1.765,1.765,0,0,1,.3.159,1.645,1.645,0,0,1,.478.478,1.681,1.681,0,0,1,.256.623,1.593,1.593,0,0,1,0,.674Zm.8-5.043a1.677,1.677,0,0,1-.622.257,1.637,1.637,0,0,1-.674,0,1.686,1.686,0,0,1-.622-.257,1.657,1.657,0,0,1-.479-.475,1.832,1.832,0,0,1-.159-.3,1.684,1.684,0,0,1-.1-.324,1.637,1.637,0,0,1,0-.674,1.67,1.67,0,0,1,.1-.323,1.831,1.831,0,0,1,.159-.3,1.762,1.762,0,0,1,.213-.264,1.926,1.926,0,0,1,.264-.213,1.772,1.772,0,0,1,.3-.159,1.732,1.732,0,0,1,1.322,0,1.674,1.674,0,0,1,.3.159,1.651,1.651,0,0,1,.478.478,1.684,1.684,0,0,1,.256.622,1.764,1.764,0,0,1-.1,1,1.839,1.839,0,0,1-.16.3,1.632,1.632,0,0,1-.476.475Zm3.8,9.649a1.643,1.643,0,0,1-.1.324,1.772,1.772,0,0,1-.375.56,1.614,1.614,0,0,1-.263.213,1.654,1.654,0,0,1-.622.257,1.637,1.637,0,0,1-.674,0,1.663,1.663,0,0,1-.622-.257,1.684,1.684,0,0,1-.264-.213,1.932,1.932,0,0,1-.215-.261,1.875,1.875,0,0,1-.159-.3,1.743,1.743,0,0,1-.1-.324,1.637,1.637,0,0,1,0-.674,1.684,1.684,0,0,1,.1-.324,1.789,1.789,0,0,1,.372-.562,1.857,1.857,0,0,1,.264-.215,1.734,1.734,0,0,1,1.619-.159,1.834,1.834,0,0,1,.3.159,1.775,1.775,0,0,1,.263.215,1.635,1.635,0,0,1,.213.264,1.69,1.69,0,0,1,.257.622,1.637,1.637,0,0,1,0,.674Zm0,0" transform="translate(-131.005 -169.196)"/><path class="a" d="M200.863,184.761a3.056,3.056,0,0,0-3.754-1.717l-11.977,3.811a3.058,3.058,0,0,0-2.07,3.572c.32,1.485.806,3.707,1.366,6.181a1.536,1.536,0,0,0,1.963,1.124l15.977-5.085a1.533,1.533,0,0,0,.951-2.051c-.971-2.345-1.859-4.439-2.457-5.836Zm-13.115,9.05a2.3,2.3,0,1,1,2.3-2.3,2.3,2.3,0,0,1-2.3,2.3Zm0,0" transform="translate(-131.708 -172.315)"/><path class="a" d="M182.741,186.855l-11.977-3.811a3.055,3.055,0,0,0-3.754,1.718c-.6,1.4-1.486,3.491-2.457,5.834a1.535,1.535,0,0,0,.952,2.051l15.976,5.085a1.534,1.534,0,0,0,1.963-1.123c.562-2.476,1.047-4.7,1.367-6.183a3.058,3.058,0,0,0-2.072-3.572ZM170.913,189.2a2.3,2.3,0,1,1,2.3-2.3,2.3,2.3,0,0,1-2.3,2.3Zm0,0" transform="translate(-137.903 -172.315)"/></g></svg>