<svg xmlns="http://www.w3.org/2000/svg" width="98.263" height="98.263" viewBox="0 0 98.263 98.263"><defs><style>.a{fill:#d60000;}</style></defs><g transform="translate(68.095 42.99)"><path class="a" d="M297.462,228.83l27.022,28.513a10.706,10.706,0,0,0,2.725-7.14v-42.99a1.535,1.535,0,0,0-2.464-1.224l-27.1,20.563a1.535,1.535,0,0,0-.185,2.278Zm0,0" transform="translate(-297.041 -205.677)"/></g><path class="a" d="M310.447,200.581v8.131a1.535,1.535,0,0,0,2.464,1.222l8.045-6.1-8.225-4.591a1.536,1.536,0,0,0-2.284,1.342Zm0,0" transform="translate(-224.47 -164.902)"/><path class="a" d="M252.47,200.527l-5.146,2.872,4.966,3.771a1.537,1.537,0,0,0,2.465-1.223v-4.079a1.536,1.536,0,0,0-2.285-1.341Zm0,0" transform="translate(-245.546 -164.472)"/><path class="a" d="M262.873,173.448a7.685,7.685,0,0,0-7.676,7.676v39.22l33.835,25.676.057.048a4.6,4.6,0,0,0,5.92,0l.145-.117,30.669-23.271V181.124a7.686,7.686,0,0,1,7.677-7.676Zm3.289,30.707a1.737,1.737,0,0,0,1.755-1.717,1.535,1.535,0,0,1,3.071,0,4.826,4.826,0,0,1-9.651,0c0-3.387,2.3-4.658,4.15-5.68,1.969-1.091,3.527-1.951,3.527-5.157a2.666,2.666,0,0,0-2.852-2.8,1.737,1.737,0,0,0-1.754,1.715,1.7,1.7,0,0,0,.812,1.449,1.535,1.535,0,0,1-1.625,2.605,4.754,4.754,0,0,1-2.258-4.054,4.81,4.81,0,0,1,4.743-4.785,6.343,6.343,0,0,1-.137-1.318,4.813,4.813,0,0,1,4.787-4.826,4.758,4.758,0,0,1,4.052,2.258,1.535,1.535,0,1,1-2.6,1.626,1.7,1.7,0,0,0-1.449-.814,1.738,1.738,0,0,0-1.717,1.755,2.667,2.667,0,0,0,2.8,2.852c3.205,0,4.067-1.558,5.157-3.528,1.022-1.849,2.293-4.15,5.681-4.15a4.826,4.826,0,0,1,0,9.652,1.535,1.535,0,0,1,0-3.071,1.756,1.756,0,0,0,0-3.511c-1.513,0-2.011.787-2.995,2.565-1.181,2.134-2.793,5.05-7.69,5.109a6.734,6.734,0,0,1,.117,1.267c0,5.018-2.956,6.651-5.113,7.845-1.777.983-2.564,1.482-2.564,2.993a1.737,1.737,0,0,0,1.754,1.717Zm13.6,29.172a1.535,1.535,0,1,1,1.535-1.535,1.535,1.535,0,0,1-1.535,1.535Zm6.143,6.141a1.535,1.535,0,1,1,1.535-1.535,1.536,1.536,0,0,1-1.535,1.535Zm0-6.141a1.535,1.535,0,1,1,1.535-1.535,1.536,1.536,0,0,1-1.535,1.535Zm6.141,6.141a1.535,1.535,0,1,1,1.535-1.535,1.537,1.537,0,0,1-1.535,1.535Zm0-6.141a1.535,1.535,0,1,1,1.535-1.535,1.537,1.537,0,0,1-1.535,1.535Zm6.141,6.141a1.535,1.535,0,1,1,1.535-1.535,1.535,1.535,0,0,1-1.535,1.535Zm0-6.141a1.535,1.535,0,1,1,1.535-1.535,1.535,1.535,0,0,1-1.535,1.535Zm6.141,0a1.535,1.535,0,1,1,1.535-1.535,1.535,1.535,0,0,1-1.535,1.535Zm-11.849-6.2-.434.128-.433-.128c-.672-.2-16.456-4.99-16.456-17.2a10.289,10.289,0,0,1,10.172-10.379,9.933,9.933,0,0,1,6.717,2.63,9.933,9.933,0,0,1,6.717-2.63,10.289,10.289,0,0,1,10.171,10.379c0,12.205-15.782,17-16.455,17.2ZM317.928,188.8a2.667,2.667,0,0,0-2.853,2.8c0,3.205,1.558,4.066,3.528,5.157,1.849,1.022,4.15,2.293,4.15,5.68a4.826,4.826,0,0,1-9.652,0,1.536,1.536,0,0,1,3.072,0,1.755,1.755,0,0,0,3.509,0c0-1.513-.787-2.01-2.565-2.993C314.96,198.253,312,196.619,312,191.6a6.843,6.843,0,0,1,.119-1.267c-4.9-.06-6.511-2.975-7.691-5.11-.983-1.778-1.482-2.565-2.993-2.565a1.756,1.756,0,0,0,0,3.511,1.535,1.535,0,0,1,0,3.071,4.826,4.826,0,0,1,0-9.652c3.387,0,4.659,2.3,5.68,4.15,1.091,1.97,1.951,3.528,5.158,3.528a2.666,2.666,0,0,0,2.8-2.852,1.738,1.738,0,0,0-1.715-1.755,1.7,1.7,0,0,0-1.449.814,1.535,1.535,0,1,1-2.605-1.626,4.762,4.762,0,0,1,4.054-2.258,4.813,4.813,0,0,1,4.787,4.826,6.436,6.436,0,0,1-.137,1.318,4.811,4.811,0,0,1,4.743,4.785,4.757,4.757,0,0,1-2.258,4.054,1.535,1.535,0,0,1-1.626-2.605,1.7,1.7,0,0,0,.814-1.449,1.738,1.738,0,0,0-1.754-1.715Zm0,0" transform="translate(-242.917 -173.448)"/><g transform="translate(5.073 3.071)"><path class="a" d="M310.447,192.639V180.461a4.692,4.692,0,0,1,4.685-4.71,4.611,4.611,0,0,1,4.527,4.6v12.284a1.536,1.536,0,0,1-1.535,1.535h-6.141a1.536,1.536,0,0,1-1.535-1.535Zm0,0" transform="translate(-229.543 -175.751)"/><path class="a" d="M310.542,224.372a1.538,1.538,0,0,0-2.042-.167l-9.655,7.327-.059.047a7.668,7.668,0,0,1-9.867,0L279.2,224.2a1.535,1.535,0,0,0-2.043.167l-27.363,28.873a10.686,10.686,0,0,0,5.674,1.625h76.767a10.664,10.664,0,0,0,5.67-1.623Zm0,0" transform="translate(-249.794 -159.677)"/></g><path class="a" d="M281.291,199.157a3.839,3.839,0,1,1-3.839-3.839,3.839,3.839,0,0,1,3.839,3.839Zm0,0" transform="translate(-236.769 -166.146)"/><path class="a" d="M283.975,203.377a2.3,2.3,0,1,1-2.3-2.3,2.3,2.3,0,0,1,2.3,2.3Zm0,0" transform="translate(-234.847 -164.225)"/><path class="a" d="M248.455,205.989a1.535,1.535,0,0,0-2.464,1.224V250.2a10.7,10.7,0,0,0,2.721,7.138l27.023-28.51a1.536,1.536,0,0,0-.187-2.281Zm.6,13.507a4.606,4.606,0,1,1,4.606,4.606,4.606,4.606,0,0,1-4.606-4.606Zm9.213,12.282a3.071,3.071,0,1,1,3.071-3.071,3.068,3.068,0,0,1-3.071,3.071Zm0,0" transform="translate(-245.991 -162.687)"/></svg>