<svg xmlns="http://www.w3.org/2000/svg" width="98.264" height="98.263" viewBox="0 0 98.264 98.263"><defs><style>.a{fill:#d60000;}</style></defs><path class="a" d="M560.292,221.108v6.329a1.534,1.534,0,0,1-1.169,1.49l-1.681.412s-.7.057-1,.057a8.892,8.892,0,0,1-7.087-3.537,8.778,8.778,0,0,1-1.474-7.568l3.212-12.134a9.528,9.528,0,0,1,6.879-6.795,1.535,1.535,0,0,1,1.867,1.815l-3.864,18.037a.768.768,0,0,0,1.012.883l1.263-.44a1.537,1.537,0,0,1,2.04,1.451Zm0,0" transform="translate(-526.514 -166.833)"/><path class="a" d="M589.338,202.743a8.4,8.4,0,0,0-2.469-6.264l-.019-.019a1.247,1.247,0,0,0-2.113.9v10.179a1.25,1.25,0,0,0,2.144.87l.192-.2a8.442,8.442,0,0,0,2.265-5.468Zm0,0" transform="translate(-514.109 -167.904)"/><path class="a" d="M561.716,200.671v6.141a7.675,7.675,0,0,0,7.676,7.676h1.535v1.431a4.692,4.692,0,0,0,4.684,4.71,4.611,4.611,0,0,0,4.527-4.606v-1.535h1.535a7.675,7.675,0,0,0,7.676-7.676v-6.141a1.536,1.536,0,0,0-1.535-1.535H563.251a1.535,1.535,0,0,0-1.535,1.535Zm9.181,4.906a1.557,1.557,0,0,1-.419.787,1.7,1.7,0,0,1-.235.189,1.526,1.526,0,0,1-.264.141,1.45,1.45,0,0,1-.287.087,1.548,1.548,0,0,1-.888-.087,1.567,1.567,0,0,1-.264-.141,1.691,1.691,0,0,1-.235-.189,1.572,1.572,0,0,1-.417-.787,1.467,1.467,0,0,1,0-.6,1.575,1.575,0,0,1,.085-.288,1.671,1.671,0,0,1,.143-.263,1.449,1.449,0,0,1,.424-.426,1.565,1.565,0,0,1,.264-.141,1.461,1.461,0,0,1,.288-.087,1.516,1.516,0,0,1,.6,0,1.452,1.452,0,0,1,.287.087,1.524,1.524,0,0,1,.264.141,1.438,1.438,0,0,1,.425.426,1.562,1.562,0,0,1,.141.263,1.589,1.589,0,0,1,.087.288,1.515,1.515,0,0,1,0,.6Zm11.865.787a1.7,1.7,0,0,1-.235.189,1.572,1.572,0,0,1-.264.141,1.46,1.46,0,0,1-.288.087,1.415,1.415,0,0,1-.3.031,1.53,1.53,0,0,1-1.5-1.835,1.58,1.58,0,0,1,.087-.288,1.593,1.593,0,0,1,.332-.5,1.538,1.538,0,0,1,2.173,0,1.411,1.411,0,0,1,.189.235,1.681,1.681,0,0,1,.143.263,1.575,1.575,0,0,1,.085.288,1.423,1.423,0,0,1,.031.3,1.552,1.552,0,0,1-.448,1.087Zm0,0" transform="translate(-521.796 -166.893)"/><path class="a" d="M583.212,188.394H567.859c-3.417,0-4.953-.215-6.4-2.386l-.456-.684h-3.892V193a7.686,7.686,0,0,0,7.678,7.676h26.1v-4.606a7.685,7.685,0,0,0-7.676-7.678Zm-20.727,6.143a2.3,2.3,0,1,1,2.3-2.3,2.3,2.3,0,0,1-2.3,2.3Zm5.374,2.3a1.535,1.535,0,1,1,1.535-1.535,1.537,1.537,0,0,1-1.535,1.535Zm0,0" transform="translate(-523.333 -171.505)"/><path class="a" d="M589.341,235.587v-1.535a1.535,1.535,0,1,1,3.071,0v1.535Zm0,0" transform="translate(-512.572 -155.749)"/><path class="a" d="M593.945,235.587v-1.535a1.535,1.535,0,1,1,3.071,0v1.535Zm0,0" transform="translate(-511.035 -155.749)"/><path class="a" d="M598.549,235.587v-1.535a1.535,1.535,0,1,1,3.071,0v1.535Zm0,0" transform="translate(-509.498 -155.749)"/><path class="a" d="M594.35,225.274l-1.661-7.475a7.63,7.63,0,0,0-5.286-5.692,10.634,10.634,0,0,1-3.561,1.127,7.722,7.722,0,0,1-7.408,6.229c-.043,0-.084,0-.127,0a7.72,7.72,0,0,1-7.527-6.231,10.653,10.653,0,0,1-4.094-1.414,6.169,6.169,0,0,0-1.553.368l-2.73,1.039a1.537,1.537,0,0,0-.99,1.435v7.09a1.537,1.537,0,0,0,1.9,1.491l1.171-.287v15.15a.767.767,0,0,0,1.406.423c1.126-1.7,2.832-3.639,4.735-3.639h18.149a1.535,1.535,0,0,0,1.513-1.789l-1.238-5.961h5.8a1.534,1.534,0,0,0,1.5-1.869Zm-29.563-5.808a2.3,2.3,0,1,1,2.3-2.3,2.3,2.3,0,0,1-2.3,2.3Zm5.374,3.071A1.536,1.536,0,1,1,571.7,221a1.538,1.538,0,0,1-1.535,1.535Zm0,0" transform="translate(-522.565 -162.658)"/><path class="a" d="M588.583,240.194H564.018v-5.118a2.853,2.853,0,0,1,3.071-2.56h18.424a2.853,2.853,0,0,1,3.071,2.56Zm0,0" transform="translate(-521.027 -155.749)"/><path class="a" d="M565.562,240.194H541v-5.118a2.853,2.853,0,0,1,3.071-2.56h18.424a2.853,2.853,0,0,1,3.071,2.56Zm0,0" transform="translate(-528.713 -155.749)"/><path class="a" d="M609.3,174.964H597.019a3.073,3.073,0,0,0-3.071,3.071v9.212h-4.606a4.607,4.607,0,0,0,0,9.213h3.071a4.612,4.612,0,0,0,4.606-4.607v-7.676H609.3v3.071H604.7a4.607,4.607,0,0,0,0,9.213h3.071a4.611,4.611,0,0,0,4.606-4.607V178.035a3.073,3.073,0,0,0-3.071-3.071Zm-15.353,16.888a1.536,1.536,0,0,1-1.535,1.535h-3.071a1.535,1.535,0,0,1,0-3.071h4.606Zm15.353,0a1.535,1.535,0,0,1-1.535,1.535H604.7a1.535,1.535,0,0,1,0-3.071H609.3Zm-12.282-10.747v-3.071H609.3v3.071Zm0,0" transform="translate(-514.109 -174.964)"/><path class="a" d="M604.692,195.683a1.536,1.536,0,0,0-1.535,1.535v9.212h-4.606a4.606,4.606,0,0,0,0,9.212h3.071a4.609,4.609,0,0,0,4.606-4.606V197.218a1.535,1.535,0,0,0-1.535-1.535Zm-1.535,15.353a1.536,1.536,0,0,1-1.535,1.535h-3.071a1.535,1.535,0,0,1,0-3.071h4.606Zm0,0" transform="translate(-511.035 -168.046)"/><path class="a" d="M539.846,213.34a1.535,1.535,0,1,1,1.535,1.535,1.536,1.536,0,0,1-1.535-1.535Zm0-6.141a1.535,1.535,0,1,1,1.535,1.535,1.536,1.536,0,0,1-1.535-1.535Zm0-6.141a1.535,1.535,0,1,1,1.535,1.535,1.536,1.536,0,0,1-1.535-1.535Zm0-6.141a1.535,1.535,0,1,1,1.535,1.535,1.535,1.535,0,0,1-1.535-1.535Zm0,0" transform="translate(-529.098 -168.815)"/><path class="a" d="M544.45,204.9a1.535,1.535,0,1,1,1.535,1.535,1.536,1.536,0,0,1-1.535-1.535Zm0-6.141a1.535,1.535,0,1,1,1.535,1.535,1.536,1.536,0,0,1-1.535-1.535Zm0-6.141a1.535,1.535,0,1,1,1.535,1.535,1.536,1.536,0,0,1-1.535-1.535Zm0,0" transform="translate(-527.56 -169.584)"/><path class="a" d="M535.241,204.9a1.536,1.536,0,1,1,1.537,1.535,1.537,1.537,0,0,1-1.537-1.535Zm0-6.141a1.536,1.536,0,1,1,1.537,1.535,1.536,1.536,0,0,1-1.537-1.535Zm0-6.141a1.536,1.536,0,1,1,1.537,1.535,1.536,1.536,0,0,1-1.537-1.535Zm0,0" transform="translate(-530.635 -169.584)"/><path class="a" d="M548.774,174.964a7.37,7.37,0,0,0-4.7,1.7,7.376,7.376,0,0,0-4.7-1.7,7.678,7.678,0,0,0-7.582,7.754c0,8.916,11.363,12.384,11.847,12.526l.436.129.435-.129c.484-.143,11.848-3.611,11.848-12.526a7.677,7.677,0,0,0-7.581-7.754Zm-10.843,9.212A3.071,3.071,0,1,1,541,181.105a3.068,3.068,0,0,1-3.071,3.071Zm4.606,3.071a1.535,1.535,0,1,1,1.535-1.535,1.537,1.537,0,0,1-1.535,1.535Zm0,0" transform="translate(-531.788 -174.964)"/><g transform="translate(0.001 29.296)"><path class="a" d="M560.566,198.833v8.433a1.249,1.249,0,0,1-2.144.87,8.615,8.615,0,0,1-.64-.719,8.439,8.439,0,0,1,.009-10.49,10.756,10.756,0,0,0,2.775,1.906Zm0,0" transform="translate(-523.718 -196.927)"/><path class="a" d="M628.516,237.12H533.376a1.57,1.57,0,0,0-1.585,1.434,1.536,1.536,0,0,0,1.531,1.638h70.628a1.535,1.535,0,1,1,0,3.071H539.466a1.535,1.535,0,0,0-1.535,1.535v7.676H623.91V241.727a1.536,1.536,0,0,1,1.535-1.535h3.019a1.57,1.57,0,0,0,1.585-1.434,1.536,1.536,0,0,0-1.533-1.638Zm-12.336,6.143h-6.088a1.535,1.535,0,0,1,0-3.071h6.141a1.534,1.534,0,0,1,1.533,1.637,1.572,1.572,0,0,1-1.586,1.434Zm0,0" transform="translate(-531.789 -183.507)"/></g></svg>