<svg xmlns="http://www.w3.org/2000/svg" xmlns:xlink="http://www.w3.org/1999/xlink" width="81.409" height="57.162" viewBox="0 0 81.409 57.162"><defs><style>.a{fill:url(#a);}.b{fill:#f7f7f8;}.c{fill:url(#b);}</style><linearGradient id="a" y1="0.5" x2="1" y2="0.5" gradientUnits="objectBoundingBox"><stop offset="0" stop-color="#bc0f0f"/><stop offset="0.671" stop-color="#cd0e0e"/><stop offset="1" stop-color="#d80e0e"/></linearGradient><linearGradient id="b" y1="0.5" x2="1" y2="0.5" gradientUnits="objectBoundingBox"><stop offset="0" stop-color="#d80e0e"/><stop offset="1" stop-color="#bc0f0f"/></linearGradient></defs><g transform="translate(-757.5 -246)"><rect class="a" width="81.409" height="57.162" rx="24.709" transform="translate(757.5 246)"/><g transform="translate(773.136 255.687)"><path class="b" d="M14.041,0H36.479A14.042,14.042,0,0,1,50.52,14.042v9.706A14.042,14.042,0,0,1,36.479,37.789H14.041A14.041,14.041,0,0,1,0,23.747V14.041A14.041,14.041,0,0,1,14.041,0Z"/><g transform="translate(20.814 11.547)"><path class="c" d="M808.747,275.855l12.726,7.347-12.726,7.347Z" transform="translate(-808.747 -275.855)"/><path class="c" d="M808.747,275.855l11.183,8.238,1.542-.891Z" transform="translate(-808.747 -275.855)"/></g></g></g></svg>